NotoSansSinhala-Light.ufo
<glyph name="exclam.sinh" format="2">
  <advance width="222"/>
  <unicode hex="0021"/>
  <outline>
    <contour>
      <point x="123" y="174" type="line"/>
      <point x="125" y="714" type="line"/>
      <point x="97" y="714" type="line"/>
      <point x="99" y="174" type="line"/>
    </contour>
    <contour>
      <point x="85" y="23" type="curve" smooth="yes"/>
      <point x="85" y="6"/>
      <point x="90" y="-8"/>
      <point x="110" y="-8" type="curve" smooth="yes"/>
      <point x="134" y="-8"/>
      <point x="137" y="6"/>
      <point x="137" y="23" type="curve" smooth="yes"/>
      <point x="137" y="39"/>
      <point x="134" y="54"/>
      <point x="110" y="54" type="curve" smooth="yes"/>
      <point x="90" y="54"/>
      <point x="85" y="39"/>
    </contour>
  </outline>
</glyph>
<glyph name="quotedbl.sinh" format="2">
  <advance width="320"/>
  <unicode hex="0022"/>
  <outline>
    <contour>
      <point x="102" y="799" type="line"/>
      <point x="74" y="799" type="line"/>
      <point x="77" y="541" type="line"/>
      <point x="98" y="541" type="line"/>
    </contour>
    <contour>
      <point x="246" y="799" type="line"/>
      <point x="218" y="799" type="line"/>
      <point x="221" y="541" type="line"/>
      <point x="242" y="541" type="line"/>
    </contour>
  </outline>
</glyph>
<glyph name="quotesingle.sinh" format="2">
  <advance width="176"/>
  <unicode hex="0027"/>
  <outline>
    <contour>
      <point x="102" y="799" type="line"/>
      <point x="74" y="799" type="line"/>
      <point x="77" y="541" type="line"/>
      <point x="98" y="541" type="line"/>
    </contour>
  </outline>
</glyph>
<glyph name="parenleft.sinh" format="2">
  <advance width="276"/>
  <unicode hex="0028"/>
  <outline>
    <contour>
      <point x="60" y="290" type="curve" smooth="yes"/>
      <point x="60" y="84"/>
      <point x="116" y="-86"/>
      <point x="212" y="-216" type="curve"/>
      <point x="245" y="-216" type="line"/>
      <point x="138" y="-76"/>
      <point x="87" y="97"/>
      <point x="87" y="291" type="curve" smooth="yes"/>
      <point x="87" y="483"/>
      <point x="138" y="659"/>
      <point x="245" y="799" type="curve"/>
      <point x="212" y="799" type="line"/>
      <point x="116" y="668"/>
      <point x="60" y="495"/>
    </contour>
  </outline>
</glyph>
<glyph name="parenright.sinh" format="2">
  <advance width="276"/>
  <unicode hex="0029"/>
  <outline>
    <contour>
      <point x="216" y="293" type="curve" smooth="yes"/>
      <point x="216" y="499"/>
      <point x="160" y="669"/>
      <point x="64" y="799" type="curve"/>
      <point x="31" y="799" type="line"/>
      <point x="138" y="659"/>
      <point x="189" y="486"/>
      <point x="189" y="292" type="curve" smooth="yes"/>
      <point x="189" y="100"/>
      <point x="138" y="-76"/>
      <point x="31" y="-216" type="curve"/>
      <point x="64" y="-216" type="line"/>
      <point x="160" y="-85"/>
      <point x="216" y="88"/>
    </contour>
  </outline>
</glyph>
<glyph name="asterisk.sinh" format="2">
  <advance width="517"/>
  <unicode hex="002A"/>
  <outline>
    <contour>
      <point x="273" y="799" type="line"/>
      <point x="245" y="799" type="line"/>
      <point x="248" y="596" type="line"/>
      <point x="57" y="662" type="line"/>
      <point x="48" y="635" type="line"/>
      <point x="242" y="577" type="line"/>
      <point x="121" y="415" type="line"/>
      <point x="144" y="399" type="line"/>
      <point x="259" y="566" type="line"/>
      <point x="375" y="398" type="line"/>
      <point x="398" y="415" type="line"/>
      <point x="276" y="577" type="line"/>
      <point x="469" y="635" type="line"/>
      <point x="461" y="662" type="line"/>
      <point x="270" y="596" type="line"/>
    </contour>
  </outline>
</glyph>
<glyph name="comma.sinh" format="2">
  <advance width="213"/>
  <unicode hex="002C"/>
  <outline>
    <contour>
      <point x="137" y="116" type="line"/>
      <point x="112" y="116" type="line"/>
      <point x="105" y="44"/>
      <point x="82" y="-60"/>
      <point x="55" y="-129" type="curve"/>
      <point x="77" y="-129" type="line"/>
      <point x="107" y="-60"/>
      <point x="132" y="25"/>
      <point x="143" y="107" type="curve"/>
    </contour>
  </outline>
</glyph>
<glyph name="hyphen.sinh" format="2">
  <advance width="320"/>
  <unicode hex="002D"/>
  <outline>
    <contour>
      <point x="40" y="303" type="line"/>
      <point x="280" y="303" type="line"/>
      <point x="280" y="329" type="line"/>
      <point x="40" y="329" type="line"/>
    </contour>
  </outline>
</glyph>
<glyph name="period.sinh" format="2">
  <advance width="213"/>
  <unicode hex="002E"/>
  <outline>
    <contour>
      <point x="80" y="23" type="curve" smooth="yes"/>
      <point x="80" y="6"/>
      <point x="85" y="-8"/>
      <point x="105" y="-8" type="curve" smooth="yes"/>
      <point x="129" y="-8"/>
      <point x="132" y="6"/>
      <point x="132" y="23" type="curve" smooth="yes"/>
      <point x="132" y="39"/>
      <point x="129" y="54"/>
      <point x="105" y="54" type="curve" smooth="yes"/>
      <point x="85" y="54"/>
      <point x="80" y="39"/>
    </contour>
  </outline>
</glyph>
<glyph name="slash.sinh" format="2">
  <advance width="373"/>
  <unicode hex="002F"/>
  <outline>
    <contour>
      <point x="333" y="799" type="line"/>
      <point x="306" y="799" type="line"/>
      <point x="40" y="-216" type="line"/>
      <point x="67" y="-216" type="line"/>
    </contour>
  </outline>
</glyph>
<glyph name="two.sinh" format="2">
  <advance width="572"/>
  <unicode hex="0032"/>
  <outline>
    <contour>
      <point x="491" y="0" type="line"/>
      <point x="491" y="26" type="line"/>
      <point x="98" y="26" type="line"/>
      <point x="98" y="27" type="line"/>
      <point x="305" y="246" type="line" smooth="yes"/>
      <point x="402" y="348"/>
      <point x="459" y="419"/>
      <point x="459" y="539" type="curve" smooth="yes"/>
      <point x="459" y="652"/>
      <point x="385" y="724"/>
      <point x="270" y="724" type="curve" smooth="yes"/>
      <point x="208" y="724"/>
      <point x="141" y="705"/>
      <point x="80" y="655" type="curve"/>
      <point x="95" y="634" type="line"/>
      <point x="148" y="677"/>
      <point x="211" y="698"/>
      <point x="268" y="698" type="curve" smooth="yes"/>
      <point x="370" y="698"/>
      <point x="432" y="638"/>
      <point x="432" y="538" type="curve" smooth="yes"/>
      <point x="432" y="428"/>
      <point x="380" y="362"/>
      <point x="283" y="260" type="curve" smooth="yes"/>
      <point x="59" y="23" type="line"/>
      <point x="59" y="0" type="line"/>
    </contour>
  </outline>
</glyph>
<glyph name="three.sinh" format="2">
  <advance width="572"/>
  <unicode hex="0033"/>
  <outline>
    <contour>
      <point x="469" y="551" type="curve" smooth="yes"/>
      <point x="469" y="665"/>
      <point x="387" y="724"/>
      <point x="263" y="724" type="curve" smooth="yes"/>
      <point x="178" y="724"/>
      <point x="110" y="693"/>
      <point x="54" y="650" type="curve"/>
      <point x="68" y="628" type="line"/>
      <point x="122" y="670"/>
      <point x="188" y="698"/>
      <point x="262" y="698" type="curve" smooth="yes"/>
      <point x="369" y="698"/>
      <point x="442" y="651"/>
      <point x="442" y="550" type="curve" smooth="yes"/>
      <point x="442" y="435"/>
      <point x="344" y="385"/>
      <point x="238" y="385" type="curve" smooth="yes"/>
      <point x="155" y="385" type="line"/>
      <point x="155" y="359" type="line"/>
      <point x="238" y="359" type="line" smooth="yes"/>
      <point x="371" y="359"/>
      <point x="464" y="314"/>
      <point x="464" y="193" type="curve" smooth="yes"/>
      <point x="464" y="85"/>
      <point x="390" y="16"/>
      <point x="246" y="16" type="curve" smooth="yes"/>
      <point x="172" y="16"/>
      <point x="96" y="36"/>
      <point x="46" y="61" type="curve"/>
      <point x="46" y="32" type="line"/>
      <point x="97" y="8"/>
      <point x="164" y="-10"/>
      <point x="246" y="-10" type="curve" smooth="yes"/>
      <point x="406" y="-10"/>
      <point x="491" y="72"/>
      <point x="491" y="194" type="curve" smooth="yes"/>
      <point x="491" y="300"/>
      <point x="428" y="358"/>
      <point x="317" y="373" type="curve"/>
      <point x="317" y="375" type="line"/>
      <point x="404" y="390"/>
      <point x="469" y="457"/>
    </contour>
  </outline>
</glyph>
<glyph name="seven.sinh" format="2">
  <advance width="572"/>
  <unicode hex="0037"/>
  <outline>
    <contour>
      <point x="180" y="0" type="line"/>
      <point x="209" y="0" type="line"/>
      <point x="507" y="696" type="line"/>
      <point x="507" y="714" type="line"/>
      <point x="55" y="714" type="line"/>
      <point x="55" y="688" type="line"/>
      <point x="475" y="688" type="line"/>
    </contour>
  </outline>
</glyph>
<glyph name="nine.sinh" format="2">
  <advance width="572"/>
  <unicode hex="0039"/>
  <outline>
    <contour>
      <point x="501" y="413" type="curve" smooth="yes"/>
      <point x="501" y="569"/>
      <point x="442" y="726"/>
      <point x="270" y="726" type="curve" smooth="yes"/>
      <point x="134" y="726"/>
      <point x="56" y="630"/>
      <point x="56" y="491" type="curve" smooth="yes"/>
      <point x="56" y="361"/>
      <point x="131" y="276"/>
      <point x="263" y="276" type="curve" smooth="yes"/>
      <point x="378" y="276"/>
      <point x="447" y="337"/>
      <point x="472" y="392" type="curve"/>
      <point x="474" y="392" type="line"/>
      <point x="470" y="112"/>
      <point x="351" y="16"/>
      <point x="202" y="16" type="curve" smooth="yes"/>
      <point x="160" y="16"/>
      <point x="118" y="23"/>
      <point x="94" y="32" type="curve"/>
      <point x="94" y="3" type="line"/>
      <point x="121" y="-5"/>
      <point x="160" y="-10"/>
      <point x="202" y="-10" type="curve" smooth="yes"/>
      <point x="373" y="-10"/>
      <point x="501" y="108"/>
    </contour>
    <contour>
      <point x="270" y="700" type="curve" smooth="yes"/>
      <point x="432" y="700"/>
      <point x="470" y="537"/>
      <point x="470" y="458" type="curve" smooth="yes"/>
      <point x="470" y="390"/>
      <point x="394" y="302"/>
      <point x="265" y="302" type="curve" smooth="yes"/>
      <point x="145" y="302"/>
      <point x="83" y="374"/>
      <point x="83" y="492" type="curve" smooth="yes"/>
      <point x="83" y="621"/>
      <point x="149" y="700"/>
    </contour>
  </outline>
</glyph>
<glyph name="colon.sinh" format="2">
  <advance width="248"/>
  <unicode hex="003A"/>
  <outline>
    <contour>
      <point x="98" y="23" type="curve" smooth="yes"/>
      <point x="98" y="6"/>
      <point x="103" y="-8"/>
      <point x="123" y="-8" type="curve" smooth="yes"/>
      <point x="147" y="-8"/>
      <point x="150" y="6"/>
      <point x="150" y="23" type="curve" smooth="yes"/>
      <point x="150" y="39"/>
      <point x="147" y="54"/>
      <point x="123" y="54" type="curve" smooth="yes"/>
      <point x="103" y="54"/>
      <point x="98" y="39"/>
    </contour>
    <contour>
      <point x="98" y="501" type="curve" smooth="yes"/>
      <point x="98" y="484"/>
      <point x="103" y="470"/>
      <point x="123" y="470" type="curve" smooth="yes"/>
      <point x="147" y="470"/>
      <point x="150" y="484"/>
      <point x="150" y="501" type="curve" smooth="yes"/>
      <point x="150" y="517"/>
      <point x="147" y="532"/>
      <point x="123" y="532" type="curve" smooth="yes"/>
      <point x="103" y="532"/>
      <point x="98" y="517"/>
    </contour>
  </outline>
</glyph>
<glyph name="semicolon.sinh" format="2">
  <advance width="248"/>
  <unicode hex="003B"/>
  <outline>
    <contour>
      <point x="137" y="116" type="line"/>
      <point x="112" y="116" type="line"/>
      <point x="105" y="44"/>
      <point x="84" y="-59"/>
      <point x="55" y="-129" type="curve"/>
      <point x="77" y="-129" type="line"/>
      <point x="107" y="-60"/>
      <point x="132" y="25"/>
      <point x="143" y="107" type="curve"/>
    </contour>
    <contour>
      <point x="98" y="501" type="curve" smooth="yes"/>
      <point x="98" y="484"/>
      <point x="103" y="470"/>
      <point x="123" y="470" type="curve" smooth="yes"/>
      <point x="147" y="470"/>
      <point x="150" y="484"/>
      <point x="150" y="501" type="curve" smooth="yes"/>
      <point x="150" y="517"/>
      <point x="147" y="532"/>
      <point x="123" y="532" type="curve" smooth="yes"/>
      <point x="103" y="532"/>
      <point x="98" y="517"/>
    </contour>
  </outline>
</glyph>
<glyph name="equal.sinh" format="2">
  <advance width="572"/>
  <unicode hex="003D"/>
  <outline>
    <contour>
      <point x="56" y="442" type="line"/>
      <point x="516" y="442" type="line"/>
      <point x="516" y="468" type="line"/>
      <point x="56" y="468" type="line"/>
    </contour>
    <contour>
      <point x="56" y="238" type="line"/>
      <point x="516" y="238" type="line"/>
      <point x="516" y="264" type="line"/>
      <point x="56" y="264" type="line"/>
    </contour>
  </outline>
</glyph>
<glyph name="greater.sinh" format="2">
  <advance width="572"/>
  <unicode hex="003E"/>
  <outline>
    <contour>
      <point x="57" y="155" type="line"/>
      <point x="57" y="127" type="line"/>
      <point x="515" y="342" type="line"/>
      <point x="515" y="364" type="line"/>
      <point x="57" y="579" type="line"/>
      <point x="57" y="551" type="line"/>
      <point x="482" y="353" type="line"/>
    </contour>
  </outline>
</glyph>
<glyph name="question.sinh" format="2">
  <advance width="400"/>
  <unicode hex="003F"/>
  <outline>
    <contour>
      <point x="129" y="174" type="line"/>
      <point x="155" y="174" type="line"/>
      <point x="155" y="186" type="line" smooth="yes"/>
      <point x="155" y="277"/>
      <point x="172" y="311"/>
      <point x="228" y="350" type="curve" smooth="yes"/>
      <point x="307" y="405"/>
      <point x="360" y="454"/>
      <point x="360" y="554" type="curve" smooth="yes"/>
      <point x="360" y="667"/>
      <point x="283" y="724"/>
      <point x="171" y="724" type="curve" smooth="yes"/>
      <point x="117" y="724"/>
      <point x="69" y="711"/>
      <point x="24" y="686" type="curve"/>
      <point x="35" y="662" type="line"/>
      <point x="76" y="686"/>
      <point x="121" y="698"/>
      <point x="170" y="698" type="curve" smooth="yes"/>
      <point x="264" y="698"/>
      <point x="333" y="653"/>
      <point x="333" y="553" type="curve" smooth="yes"/>
      <point x="333" y="463"/>
      <point x="287" y="422"/>
      <point x="215" y="371" type="curve" smooth="yes"/>
      <point x="146" y="322"/>
      <point x="129" y="284"/>
      <point x="129" y="186" type="curve" smooth="yes"/>
    </contour>
    <contour>
      <point x="117" y="23" type="curve" smooth="yes"/>
      <point x="117" y="6"/>
      <point x="122" y="-8"/>
      <point x="142" y="-8" type="curve" smooth="yes"/>
      <point x="166" y="-8"/>
      <point x="169" y="6"/>
      <point x="169" y="23" type="curve" smooth="yes"/>
      <point x="169" y="39"/>
      <point x="166" y="54"/>
      <point x="142" y="54" type="curve" smooth="yes"/>
      <point x="122" y="54"/>
      <point x="117" y="39"/>
    </contour>
  </outline>
</glyph>
<glyph name="backslash.sinh" format="2">
  <advance width="373"/>
  <unicode hex="005C"/>
  <outline>
    <contour>
      <point x="67" y="799" type="line"/>
      <point x="40" y="799" type="line"/>
      <point x="306" y="-216" type="line"/>
      <point x="333" y="-216" type="line"/>
    </contour>
  </outline>
</glyph>
<glyph name="bracketright.sinh" format="2">
  <advance width="320"/>
  <unicode hex="005D"/>
  <outline>
    <contour>
      <point x="45" y="-190" type="line"/>
      <point x="45" y="-216" type="line"/>
      <point x="240" y="-216" type="line"/>
      <point x="240" y="799" type="line"/>
      <point x="45" y="799" type="line"/>
      <point x="45" y="773" type="line"/>
      <point x="214" y="773" type="line"/>
      <point x="214" y="-190" type="line"/>
    </contour>
  </outline>
</glyph>
<glyph name="asciicircum.sinh" format="2">
  <advance width="572"/>
  <unicode hex="005E"/>
  <outline>
    <contour>
      <point x="47" y="278" type="line"/>
      <point x="76" y="278" type="line"/>
      <point x="285" y="688" type="line"/>
      <point x="494" y="278" type="line"/>
      <point x="523" y="278" type="line"/>
      <point x="297" y="719" type="line"/>
      <point x="273" y="719" type="line"/>
    </contour>
  </outline>
</glyph>
<glyph name="underscore.sinh" format="2">
  <advance width="444"/>
  <unicode hex="005F"/>
  <outline>
    <contour>
      <point x="446" y="-115" type="line"/>
      <point x="446" y="-90" type="line"/>
      <point x="-2" y="-90" type="line"/>
      <point x="-2" y="-115" type="line"/>
    </contour>
  </outline>
</glyph>
<glyph name="braceleft.sinh" format="2">
  <advance width="345"/>
  <unicode hex="007B"/>
  <outline>
    <contour>
      <point x="300" y="-216" type="curve"/>
      <point x="300" y="-190" type="line"/>
      <point x="194" y="-190"/>
      <point x="162" y="-164"/>
      <point x="162" y="-77" type="curve" smooth="yes"/>
      <point x="162" y="168" type="line" smooth="yes"/>
      <point x="162" y="243"/>
      <point x="141" y="277"/>
      <point x="84" y="290" type="curve"/>
      <point x="84" y="292" type="line"/>
      <point x="142" y="303"/>
      <point x="162" y="349"/>
      <point x="162" y="417" type="curve" smooth="yes"/>
      <point x="162" y="657" type="line" smooth="yes"/>
      <point x="162" y="738"/>
      <point x="204" y="773"/>
      <point x="300" y="773" type="curve"/>
      <point x="300" y="799" type="line"/>
      <point x="192" y="799"/>
      <point x="136" y="750"/>
      <point x="136" y="663" type="curve" smooth="yes"/>
      <point x="136" y="421" type="line" smooth="yes"/>
      <point x="136" y="335"/>
      <point x="106" y="304"/>
      <point x="25" y="304" type="curve"/>
      <point x="25" y="278" type="line"/>
      <point x="106" y="278"/>
      <point x="136" y="249"/>
      <point x="136" y="164" type="curve" smooth="yes"/>
      <point x="136" y="-83" type="line" smooth="yes"/>
      <point x="136" y="-181"/>
      <point x="183" y="-216"/>
    </contour>
  </outline>
</glyph>
<glyph name="multiply.sinh" format="2">
  <advance width="572"/>
  <unicode hex="00D7"/>
  <outline>
    <contour>
      <point x="72" y="157" type="line"/>
      <point x="90" y="139" type="line"/>
      <point x="286" y="335" type="line"/>
      <point x="482" y="139" type="line"/>
      <point x="500" y="157" type="line"/>
      <point x="304" y="353" type="line"/>
      <point x="500" y="549" type="line"/>
      <point x="482" y="567" type="line"/>
      <point x="286" y="371" type="line"/>
      <point x="90" y="567" type="line"/>
      <point x="72" y="549" type="line"/>
      <point x="268" y="353" type="line"/>
    </contour>
  </outline>
</glyph>
<glyph name="divide.sinh" format="2">
  <advance width="572"/>
  <unicode hex="00F7"/>
  <outline>
    <contour>
      <point x="56" y="340" type="line"/>
      <point x="516" y="340" type="line"/>
      <point x="516" y="366" type="line"/>
      <point x="56" y="366" type="line"/>
    </contour>
    <contour>
      <point x="260" y="175" type="curve" smooth="yes"/>
      <point x="260" y="158"/>
      <point x="265" y="144"/>
      <point x="285" y="144" type="curve" smooth="yes"/>
      <point x="309" y="144"/>
      <point x="312" y="158"/>
      <point x="312" y="175" type="curve" smooth="yes"/>
      <point x="312" y="191"/>
      <point x="309" y="206"/>
      <point x="285" y="206" type="curve" smooth="yes"/>
      <point x="265" y="206"/>
      <point x="260" y="191"/>
    </contour>
    <contour>
      <point x="260" y="531" type="curve" smooth="yes"/>
      <point x="260" y="514"/>
      <point x="265" y="500"/>
      <point x="285" y="500" type="curve" smooth="yes"/>
      <point x="309" y="500"/>
      <point x="312" y="514"/>
      <point x="312" y="531" type="curve" smooth="yes"/>
      <point x="312" y="547"/>
      <point x="309" y="562"/>
      <point x="285" y="562" type="curve" smooth="yes"/>
      <point x="265" y="562"/>
      <point x="260" y="547"/>
    </contour>
  </outline>
</glyph>
<glyph name="danda.sinh" format="2">
  <advance width="292"/>
  <unicode hex="0964"/>
  <outline>
    <contour>
      <point x="158" y="662" type="line"/>
      <point x="158" y="-50" type="line"/>
      <point x="184" y="-50" type="line"/>
      <point x="184" y="662" type="line"/>
    </contour>
  </outline>
</glyph>
<glyph name="dbldanda.sinh" format="2">
  <advance width="480"/>
  <unicode hex="0965"/>
  <outline>
    <contour>
      <point x="158" y="662" type="line"/>
      <point x="158" y="-50" type="line"/>
      <point x="184" y="-50" type="line"/>
      <point x="184" y="662" type="line"/>
    </contour>
    <contour>
      <point x="346" y="662" type="line"/>
      <point x="346" y="-50" type="line"/>
      <point x="372" y="-50" type="line"/>
      <point x="372" y="662" type="line"/>
    </contour>
  </outline>
</glyph>
<glyph name="anusvarasinh" format="2">
  <advance width="462"/>
  <unicode hex="0D82"/>
  <outline>
    <contour>
      <point x="38" y="266" type="curve"/>
      <point x="38" y="155"/>
      <point x="113" y="74"/>
      <point x="230" y="74" type="curve" smooth="yes"/>
      <point x="349" y="74"/>
      <point x="424" y="155"/>
      <point x="424" y="266" type="curve" smooth="yes"/>
      <point x="424" y="377"/>
      <point x="349" y="458"/>
      <point x="231" y="458" type="curve" smooth="yes"/>
      <point x="113" y="458"/>
      <point x="38" y="377"/>
    </contour>
    <contour>
      <point x="65" y="266" type="curve"/>
      <point x="65" y="361"/>
      <point x="126" y="432"/>
      <point x="231" y="432" type="curve" smooth="yes"/>
      <point x="336" y="432"/>
      <point x="397" y="360"/>
      <point x="397" y="267" type="curve" smooth="yes"/>
      <point x="397" y="171"/>
      <point x="336" y="100"/>
      <point x="231" y="100" type="curve" smooth="yes"/>
      <point x="126" y="100"/>
      <point x="65" y="171"/>
    </contour>
  </outline>
</glyph>
<glyph name="visargasinh" format="2">
  <advance width="308"/>
  <unicode hex="0D83"/>
  <outline>
    <contour>
      <point x="276" y="430" type="curve" smooth="yes"/>
      <point x="276" y="498"/>
      <point x="230" y="544"/>
      <point x="153" y="544" type="curve" smooth="yes"/>
      <point x="81" y="544"/>
      <point x="32" y="496"/>
      <point x="32" y="427" type="curve" smooth="yes"/>
      <point x="32" y="364"/>
      <point x="71" y="312"/>
      <point x="155" y="312" type="curve" smooth="yes"/>
      <point x="227" y="312"/>
      <point x="276" y="360"/>
    </contour>
    <contour>
      <point x="249" y="431" type="curve" smooth="yes"/>
      <point x="249" y="370"/>
      <point x="210" y="338"/>
      <point x="152" y="338" type="curve" smooth="yes"/>
      <point x="86" y="338"/>
      <point x="59" y="383"/>
      <point x="59" y="425" type="curve" smooth="yes"/>
      <point x="59" y="485"/>
      <point x="97" y="518"/>
      <point x="154" y="518" type="curve" smooth="yes"/>
      <point x="218" y="518"/>
      <point x="249" y="479"/>
    </contour>
    <contour>
      <point x="276" y="118" type="curve" smooth="yes"/>
      <point x="276" y="186"/>
      <point x="230" y="232"/>
      <point x="153" y="232" type="curve" smooth="yes"/>
      <point x="81" y="232"/>
      <point x="32" y="184"/>
      <point x="32" y="115" type="curve" smooth="yes"/>
      <point x="32" y="52"/>
      <point x="71" y="0"/>
      <point x="155" y="0" type="curve" smooth="yes"/>
      <point x="227" y="0"/>
      <point x="276" y="48"/>
    </contour>
    <contour>
      <point x="249" y="119" type="curve" smooth="yes"/>
      <point x="249" y="58"/>
      <point x="210" y="26"/>
      <point x="152" y="26" type="curve" smooth="yes"/>
      <point x="86" y="26"/>
      <point x="59" y="71"/>
      <point x="59" y="113" type="curve" smooth="yes"/>
      <point x="59" y="173"/>
      <point x="97" y="206"/>
      <point x="154" y="206" type="curve" smooth="yes"/>
      <point x="218" y="206"/>
      <point x="249" y="167"/>
    </contour>
  </outline>
</glyph>
<glyph name="asinh" format="2">
  <advance width="656"/>
  <unicode hex="0D85"/>
  <outline>
    <contour>
      <point x="314" y="-11" type="curve" smooth="yes"/>
      <point x="417" y="-11"/>
      <point x="496" y="1"/>
      <point x="580" y="49" type="curve"/>
      <point x="568" y="72" type="line"/>
      <point x="533" y="54"/>
      <point x="500" y="39"/>
      <point x="465" y="30" type="curve"/>
      <point x="453" y="28" type="line"/>
      <point x="411" y="18"/>
      <point x="368" y="15"/>
      <point x="318" y="15" type="curve" smooth="yes"/>
      <point x="152" y="15"/>
      <point x="67" y="90"/>
      <point x="67" y="232" type="curve" smooth="yes"/>
      <point x="67" y="307"/>
      <point x="93" y="357"/>
      <point x="138" y="387" type="curve" smooth="yes"/>
      <point x="183" y="418"/>
      <point x="244" y="429"/>
      <point x="360" y="429" type="curve" smooth="yes"/>
      <point x="471" y="429" type="line"/>
      <point x="471" y="449" type="line" smooth="yes"/>
      <point x="471" y="540"/>
      <point x="426" y="612"/>
      <point x="319" y="612" type="curve" smooth="yes"/>
      <point x="235" y="612"/>
      <point x="189" y="568"/>
      <point x="189" y="500" type="curve" smooth="yes"/>
      <point x="189" y="492"/>
      <point x="189" y="481"/>
      <point x="191" y="470" type="curve"/>
      <point x="218" y="473" type="line"/>
      <point x="217" y="480"/>
      <point x="216" y="489"/>
      <point x="216" y="498" type="curve" smooth="yes"/>
      <point x="216" y="556"/>
      <point x="253" y="586"/>
      <point x="319" y="586" type="curve" smooth="yes"/>
      <point x="395" y="586"/>
      <point x="445" y="540"/>
      <point x="448" y="455" type="curve"/>
      <point x="343" y="455" type="line" smooth="yes"/>
      <point x="228" y="455"/>
      <point x="167" y="441"/>
      <point x="116" y="404" type="curve" smooth="yes"/>
      <point x="68" y="370"/>
      <point x="40" y="312"/>
      <point x="40" y="232" type="curve" smooth="yes"/>
      <point x="40" y="79"/>
      <point x="133" y="-11"/>
    </contour>
    <contour>
      <point x="448" y="-202" type="line"/>
      <point x="474" y="-202" type="line"/>
      <point x="474" y="399" type="line" smooth="yes"/>
      <point x="474" y="465"/>
      <point x="487" y="498"/>
      <point x="552" y="573" type="curve"/>
      <point x="562" y="579"/>
      <point x="568" y="585"/>
      <point x="579" y="596" type="curve"/>
      <point x="559" y="613" type="line"/>
      <point x="484" y="547"/>
      <point x="448" y="474"/>
      <point x="448" y="413" type="curve" smooth="yes"/>
    </contour>
    <contour>
      <point x="537" y="303" type="curve" smooth="yes"/>
      <point x="619" y="303"/>
      <point x="639" y="349"/>
      <point x="639" y="389" type="curve" smooth="yes"/>
      <point x="639" y="418"/>
      <point x="624" y="449"/>
      <point x="601" y="487" type="curve" smooth="yes"/>
      <point x="582" y="519"/>
      <point x="572" y="537"/>
      <point x="572" y="561" type="curve" smooth="yes"/>
      <point x="572" y="576"/>
      <point x="573" y="586"/>
      <point x="579" y="596" type="curve"/>
      <point x="547" y="570" type="line"/>
      <point x="547" y="533"/>
      <point x="555" y="510"/>
      <point x="578" y="473" type="curve" smooth="yes"/>
      <point x="604" y="431"/>
      <point x="612" y="411"/>
      <point x="612" y="390" type="curve" smooth="yes"/>
      <point x="612" y="355"/>
      <point x="597" y="329"/>
      <point x="534" y="329" type="curve" smooth="yes"/>
      <point x="506" y="329"/>
      <point x="480" y="334"/>
      <point x="458" y="347" type="curve"/>
      <point x="452" y="322" type="line"/>
      <point x="471" y="311"/>
      <point x="501" y="303"/>
    </contour>
  </outline>
</glyph>
<glyph name="isinh" format="2">
  <advance width="717"/>
  <unicode hex="0D89"/>
  <outline>
    <contour>
      <point x="257" y="88" type="curve" smooth="yes"/>
      <point x="366" y="88"/>
      <point x="461" y="143"/>
      <point x="461" y="274" type="curve" smooth="yes"/>
      <point x="461" y="376"/>
      <point x="402" y="424"/>
      <point x="335" y="424" type="curve" smooth="yes"/>
      <point x="259" y="424"/>
      <point x="225" y="375"/>
      <point x="225" y="325" type="curve" smooth="yes"/>
      <point x="225" y="265"/>
      <point x="262" y="227"/>
      <point x="327" y="227" type="curve" smooth="yes"/>
      <point x="383" y="227"/>
      <point x="413" y="246"/>
      <point x="451" y="281" type="curve"/>
      <point x="439" y="300" type="line"/>
      <point x="403" y="266"/>
      <point x="374" y="253"/>
      <point x="328" y="253" type="curve" smooth="yes"/>
      <point x="282" y="253"/>
      <point x="252" y="276"/>
      <point x="252" y="324" type="curve" smooth="yes"/>
      <point x="252" y="368"/>
      <point x="280" y="398"/>
      <point x="336" y="398" type="curve" smooth="yes"/>
      <point x="392" y="398"/>
      <point x="435" y="354"/>
      <point x="435" y="274" type="curve"/>
      <point x="435" y="270" type="line"/>
      <point x="433" y="150"/>
      <point x="341" y="114"/>
      <point x="254" y="114" type="curve" smooth="yes"/>
      <point x="149" y="114"/>
      <point x="65" y="178"/>
      <point x="65" y="322" type="curve" smooth="yes"/>
      <point x="65" y="498"/>
      <point x="203" y="586"/>
      <point x="361" y="586" type="curve" smooth="yes"/>
      <point x="566" y="586"/>
      <point x="650" y="458"/>
      <point x="650" y="300" type="curve" smooth="yes"/>
      <point x="650" y="139"/>
      <point x="572" y="26"/>
      <point x="375" y="26" type="curve"/>
      <point x="374" y="0" type="line"/>
      <point x="614" y="4"/>
      <point x="677" y="150"/>
      <point x="677" y="301" type="curve" smooth="yes"/>
      <point x="677" y="482"/>
      <point x="575" y="612"/>
      <point x="358" y="612" type="curve" smooth="yes"/>
      <point x="183" y="612"/>
      <point x="38" y="508"/>
      <point x="38" y="323" type="curve" smooth="yes"/>
      <point x="38" y="164"/>
      <point x="133" y="88"/>
    </contour>
    <contour>
      <point x="353" y="-208" type="curve" smooth="yes"/>
      <point x="490" y="-208"/>
      <point x="531" y="-131"/>
      <point x="531" y="-58" type="curve" smooth="yes"/>
      <point x="531" y="-19"/>
      <point x="525" y="13"/>
      <point x="510" y="45" type="curve"/>
      <point x="497" y="36" type="line"/>
      <point x="489" y="27" type="line"/>
      <point x="498" y="1"/>
      <point x="504" y="-27"/>
      <point x="504" y="-58" type="curve" smooth="yes"/>
      <point x="504" y="-122"/>
      <point x="470" y="-182"/>
      <point x="353" y="-182" type="curve" smooth="yes"/>
      <point x="230" y="-182"/>
      <point x="211" y="-108"/>
      <point x="211" y="-54" type="curve" smooth="yes"/>
      <point x="211" y="-37"/>
      <point x="213" y="-20"/>
      <point x="216" y="-3" type="curve"/>
      <point x="189" y="0" type="line"/>
      <point x="186" y="-15"/>
      <point x="184" y="-39"/>
      <point x="184" y="-53" type="curve" smooth="yes"/>
      <point x="184" y="-128"/>
      <point x="220" y="-208"/>
    </contour>
  </outline>
</glyph>
<glyph name="iisinh" format="2">
  <advance width="669"/>
  <unicode hex="0D8A"/>
  <outline>
    <contour>
      <point x="324" y="-11" type="curve" smooth="yes"/>
      <point x="541" y="-11"/>
      <point x="629" y="115"/>
      <point x="629" y="282" type="curve" smooth="yes"/>
      <point x="629" y="470"/>
      <point x="498" y="565"/>
      <point x="339" y="565" type="curve" smooth="yes"/>
      <point x="320" y="565"/>
      <point x="282" y="558"/>
      <point x="267" y="555" type="curve"/>
      <point x="217" y="523" type="line"/>
      <point x="249" y="532"/>
      <point x="291" y="539"/>
      <point x="328" y="539" type="curve" smooth="yes"/>
      <point x="493" y="539"/>
      <point x="602" y="447"/>
      <point x="602" y="281" type="curve" smooth="yes"/>
      <point x="602" y="129"/>
      <point x="522" y="15"/>
      <point x="326" y="15" type="curve" smooth="yes"/>
      <point x="148" y="15"/>
      <point x="68" y="113"/>
      <point x="68" y="275" type="curve" smooth="yes"/>
      <point x="68" y="389"/>
      <point x="131" y="486"/>
      <point x="299" y="549" type="curve"/>
      <point x="299" y="554" type="line"/>
      <point x="385" y="602"/>
      <point x="454" y="656"/>
      <point x="557" y="789" type="curve"/>
      <point x="535" y="805" type="line"/>
      <point x="432" y="673"/>
      <point x="356" y="611"/>
      <point x="274" y="570" type="curve"/>
      <point x="158" y="517"/>
      <point x="41" y="440"/>
      <point x="41" y="275" type="curve" smooth="yes"/>
      <point x="41" y="102"/>
      <point x="129" y="-11"/>
    </contour>
    <contour>
      <point x="383" y="724" type="curve" smooth="yes"/>
      <point x="383" y="773"/>
      <point x="349" y="805"/>
      <point x="301" y="805" type="curve" smooth="yes"/>
      <point x="253" y="805"/>
      <point x="219" y="773"/>
      <point x="219" y="724" type="curve" smooth="yes"/>
      <point x="219" y="675"/>
      <point x="253" y="643"/>
      <point x="301" y="643" type="curve" smooth="yes"/>
      <point x="349" y="643"/>
      <point x="383" y="675"/>
    </contour>
    <contour>
      <point x="358" y="724" type="curve" smooth="yes"/>
      <point x="358" y="692"/>
      <point x="337" y="667"/>
      <point x="301" y="667" type="curve" smooth="yes"/>
      <point x="265" y="667"/>
      <point x="244" y="692"/>
      <point x="244" y="724" type="curve" smooth="yes"/>
      <point x="244" y="756"/>
      <point x="265" y="781"/>
      <point x="301" y="781" type="curve" smooth="yes"/>
      <point x="337" y="781"/>
      <point x="358" y="756"/>
    </contour>
    <contour>
      <point x="651" y="624" type="curve" smooth="yes"/>
      <point x="651" y="673"/>
      <point x="617" y="705"/>
      <point x="569" y="705" type="curve" smooth="yes"/>
      <point x="521" y="705"/>
      <point x="487" y="673"/>
      <point x="487" y="624" type="curve" smooth="yes"/>
      <point x="487" y="575"/>
      <point x="521" y="543"/>
      <point x="569" y="543" type="curve" smooth="yes"/>
      <point x="617" y="543"/>
      <point x="651" y="575"/>
    </contour>
    <contour>
      <point x="626" y="624" type="curve" smooth="yes"/>
      <point x="626" y="592"/>
      <point x="605" y="567"/>
      <point x="569" y="567" type="curve" smooth="yes"/>
      <point x="533" y="567"/>
      <point x="512" y="592"/>
      <point x="512" y="624" type="curve" smooth="yes"/>
      <point x="512" y="656"/>
      <point x="533" y="681"/>
      <point x="569" y="681" type="curve" smooth="yes"/>
      <point x="605" y="681"/>
      <point x="626" y="656"/>
    </contour>
  </outline>
</glyph>
<glyph name="usinh" format="2">
  <advance width="649"/>
  <unicode hex="0D8B"/>
  <outline>
    <contour>
      <point x="354" y="-194" type="curve" smooth="yes"/>
      <point x="516" y="-194"/>
      <point x="648" y="-119"/>
      <point x="648" y="60" type="curve" smooth="yes"/>
      <point x="648" y="73"/>
      <point x="648" y="85"/>
      <point x="647" y="93" type="curve"/>
      <point x="620" y="92" type="line"/>
      <point x="621" y="83"/>
      <point x="621" y="67"/>
      <point x="621" y="59" type="curve" smooth="yes"/>
      <point x="621" y="-99"/>
      <point x="506" y="-168"/>
      <point x="352" y="-168" type="curve" smooth="yes"/>
      <point x="149" y="-168"/>
      <point x="62" y="-40"/>
      <point x="62" y="121" type="curve" smooth="yes"/>
      <point x="62" y="218"/>
      <point x="93" y="291"/>
      <point x="152" y="342" type="curve" smooth="yes"/>
      <point x="221" y="400"/>
      <point x="316" y="429"/>
      <point x="478" y="429" type="curve" smooth="yes"/>
      <point x="601" y="429" type="line"/>
      <point x="601" y="445" type="line" smooth="yes"/>
      <point x="601" y="545"/>
      <point x="548" y="612"/>
      <point x="441" y="612" type="curve" smooth="yes"/>
      <point x="351" y="612"/>
      <point x="305" y="568"/>
      <point x="305" y="500" type="curve" smooth="yes"/>
      <point x="305" y="492"/>
      <point x="305" y="480"/>
      <point x="307" y="469" type="curve"/>
      <point x="334" y="472" type="line"/>
      <point x="333" y="479"/>
      <point x="332" y="490"/>
      <point x="332" y="498" type="curve" smooth="yes"/>
      <point x="332" y="556"/>
      <point x="369" y="586"/>
      <point x="441" y="586" type="curve" smooth="yes"/>
      <point x="522" y="586"/>
      <point x="572" y="540"/>
      <point x="575" y="455" type="curve"/>
      <point x="460" y="455" type="line" smooth="yes"/>
      <point x="319" y="455"/>
      <point x="214" y="427"/>
      <point x="136" y="363" type="curve" smooth="yes"/>
      <point x="72" y="309"/>
      <point x="35" y="231"/>
      <point x="35" y="121" type="curve" smooth="yes"/>
      <point x="35" y="-51"/>
      <point x="129" y="-194"/>
    </contour>
  </outline>
</glyph>
<glyph name="lvocalicsinh" format="2">
  <advance width="951"/>
  <unicode hex="0D8F"/>
  <outline>
    <contour>
      <point x="475" y="-11" type="curve" smooth="yes"/>
      <point x="699" y="-11"/>
      <point x="806" y="96"/>
      <point x="806" y="251" type="curve" smooth="yes"/>
      <point x="806" y="385"/>
      <point x="728" y="455"/>
      <point x="548" y="455" type="curve" smooth="yes"/>
      <point x="513" y="455" type="line"/>
      <point x="519" y="452" type="line"/>
      <point x="522" y="539"/>
      <point x="572" y="586"/>
      <point x="642" y="586" type="curve" smooth="yes"/>
      <point x="707" y="586"/>
      <point x="744" y="557"/>
      <point x="744" y="495" type="curve" smooth="yes"/>
      <point x="744" y="479"/>
      <point x="741" y="462"/>
      <point x="739" y="452" type="curve"/>
      <point x="765" y="449" type="line"/>
      <point x="769" y="462"/>
      <point x="771" y="486"/>
      <point x="771" y="498" type="curve" smooth="yes"/>
      <point x="771" y="562"/>
      <point x="715" y="612"/>
      <point x="644" y="612" type="curve" smooth="yes"/>
      <point x="547" y="612"/>
      <point x="493" y="543"/>
      <point x="493" y="446" type="curve" smooth="yes"/>
      <point x="493" y="429" type="line"/>
      <point x="544" y="429" type="line" smooth="yes"/>
      <point x="638" y="429"/>
      <point x="688" y="414"/>
      <point x="724" y="386" type="curve" smooth="yes"/>
      <point x="762" y="356"/>
      <point x="779" y="311"/>
      <point x="779" y="253" type="curve" smooth="yes"/>
      <point x="779" y="118"/>
      <point x="692" y="15"/>
      <point x="475" y="15" type="curve" smooth="yes"/>
      <point x="259" y="15"/>
      <point x="172" y="116"/>
      <point x="172" y="253" type="curve" smooth="yes"/>
      <point x="172" y="311"/>
      <point x="189" y="356"/>
      <point x="227" y="386" type="curve" smooth="yes"/>
      <point x="263" y="414"/>
      <point x="313" y="429"/>
      <point x="407" y="429" type="curve" smooth="yes"/>
      <point x="458" y="429" type="line"/>
      <point x="458" y="446" type="line" smooth="yes"/>
      <point x="458" y="544"/>
      <point x="404" y="612"/>
      <point x="307" y="612" type="curve" smooth="yes"/>
      <point x="239" y="612"/>
      <point x="180" y="565"/>
      <point x="180" y="498" type="curve" smooth="yes"/>
      <point x="180" y="486"/>
      <point x="182" y="462"/>
      <point x="186" y="449" type="curve"/>
      <point x="212" y="452" type="line"/>
      <point x="210" y="462"/>
      <point x="207" y="478"/>
      <point x="207" y="495" type="curve" smooth="yes"/>
      <point x="207" y="557"/>
      <point x="244" y="586"/>
      <point x="309" y="586" type="curve" smooth="yes"/>
      <point x="379" y="586"/>
      <point x="429" y="540"/>
      <point x="432" y="452" type="curve"/>
      <point x="440" y="455" type="line"/>
      <point x="403" y="455" type="line" smooth="yes"/>
      <point x="223" y="455"/>
      <point x="145" y="385"/>
      <point x="145" y="251" type="curve" smooth="yes"/>
      <point x="145" y="95"/>
      <point x="251" y="-11"/>
    </contour>
    <contour>
      <point x="40" y="339" type="curve" smooth="yes"/>
      <point x="40" y="228"/>
      <point x="73" y="158"/>
      <point x="119" y="83" type="curve"/>
      <point x="143" y="96" type="line"/>
      <point x="96" y="168"/>
      <point x="67" y="240"/>
      <point x="67" y="339" type="curve" smooth="yes"/>
      <point x="67" y="453"/>
      <point x="124" y="539"/>
      <point x="218" y="578" type="curve" smooth="yes"/>
      <point x="237" y="586"/>
      <point x="282" y="588"/>
      <point x="307" y="588" type="curve" smooth="yes"/>
      <point x="319" y="588"/>
      <point x="352" y="585"/>
      <point x="365" y="583" type="curve"/>
      <point x="366" y="597" type="line"/>
      <point x="342" y="607"/>
      <point x="319" y="612"/>
      <point x="297" y="612" type="curve" smooth="yes"/>
      <point x="152" y="612"/>
      <point x="40" y="506"/>
    </contour>
    <contour>
      <point x="911" y="339" type="curve" smooth="yes"/>
      <point x="911" y="506"/>
      <point x="799" y="612"/>
      <point x="654" y="612" type="curve" smooth="yes"/>
      <point x="632" y="612"/>
      <point x="609" y="607"/>
      <point x="585" y="597" type="curve"/>
      <point x="586" y="583" type="line"/>
      <point x="599" y="585"/>
      <point x="632" y="588"/>
      <point x="644" y="588" type="curve" smooth="yes"/>
      <point x="669" y="588"/>
      <point x="714" y="586"/>
      <point x="733" y="578" type="curve" smooth="yes"/>
      <point x="827" y="539"/>
      <point x="884" y="453"/>
      <point x="884" y="339" type="curve" smooth="yes"/>
      <point x="884" y="240"/>
      <point x="855" y="168"/>
      <point x="808" y="96" type="curve"/>
      <point x="832" y="83" type="line"/>
      <point x="878" y="158"/>
      <point x="911" y="228"/>
    </contour>
  </outline>
</glyph>
<glyph name="esinh" format="2">
  <advance width="765"/>
  <unicode hex="0D91"/>
  <outline>
    <contour>
      <point x="341" y="-11" type="curve" smooth="yes"/>
      <point x="605" y="-11"/>
      <point x="724" y="186"/>
      <point x="724" y="404" type="curve" smooth="yes"/>
      <point x="724" y="530"/>
      <point x="693" y="738"/>
      <point x="393" y="836" type="curve"/>
      <point x="384" y="811" type="line"/>
      <point x="393" y="808"/>
      <point x="403" y="805"/>
      <point x="412" y="802" type="curve" smooth="yes"/>
      <point x="603" y="730"/>
      <point x="697" y="606"/>
      <point x="697" y="404" type="curve" smooth="yes"/>
      <point x="697" y="201"/>
      <point x="591" y="15"/>
      <point x="340" y="15" type="curve" smooth="yes"/>
      <point x="159" y="15"/>
      <point x="76" y="101"/>
      <point x="76" y="231" type="curve" smooth="yes"/>
      <point x="76" y="291"/>
      <point x="97" y="335"/>
      <point x="129" y="365" type="curve" smooth="yes"/>
      <point x="181" y="414"/>
      <point x="254" y="429"/>
      <point x="356" y="429" type="curve" smooth="yes"/>
      <point x="403" y="429" type="line"/>
      <point x="403" y="447" type="line" smooth="yes"/>
      <point x="403" y="544"/>
      <point x="349" y="612"/>
      <point x="252" y="612" type="curve" smooth="yes"/>
      <point x="175" y="612"/>
      <point x="125" y="572"/>
      <point x="125" y="498" type="curve" smooth="yes"/>
      <point x="125" y="493"/>
      <point x="125" y="485"/>
      <point x="126" y="476" type="curve"/>
      <point x="153" y="478" type="line"/>
      <point x="152" y="484"/>
      <point x="152" y="490"/>
      <point x="152" y="495" type="curve" smooth="yes"/>
      <point x="152" y="557"/>
      <point x="189" y="586"/>
      <point x="254" y="586" type="curve" smooth="yes"/>
      <point x="317" y="586"/>
      <point x="372" y="548"/>
      <point x="377" y="455" type="curve"/>
      <point x="30" y="455" type="line"/>
      <point x="30" y="429" type="line"/>
      <point x="119" y="429" type="line" smooth="yes"/>
      <point x="169" y="429"/>
      <point x="217" y="433"/>
      <point x="263" y="437" type="curve"/>
      <point x="277" y="439" type="line"/>
      <point x="143" y="433"/>
      <point x="49" y="369"/>
      <point x="49" y="230" type="curve" smooth="yes"/>
      <point x="49" y="80"/>
      <point x="150" y="-11"/>
    </contour>
    <contour>
      <point x="518" y="540" type="curve" smooth="yes"/>
      <point x="585" y="540"/>
      <point x="630" y="581"/>
      <point x="654" y="641" type="curve"/>
      <point x="634" y="657" type="line"/>
      <point x="603" y="586"/>
      <point x="564" y="566"/>
      <point x="518" y="566" type="curve" smooth="yes"/>
      <point x="461" y="566"/>
      <point x="445" y="603"/>
      <point x="444" y="672" type="curve" smooth="yes"/>
      <point x="442" y="776"/>
      <point x="439" y="800"/>
      <point x="400" y="828" type="curve"/>
      <point x="385" y="812" type="line"/>
      <point x="415" y="790"/>
      <point x="416" y="765"/>
      <point x="418" y="666" type="curve" smooth="yes"/>
      <point x="420" y="565"/>
      <point x="465" y="540"/>
    </contour>
  </outline>
</glyph>
<glyph name="eesinh" format="2">
  <advance width="765"/>
  <unicode hex="0D92"/>
  <outline>
    <contour>
      <point x="633" y="679" type="line"/>
      <point x="633" y="859" type="line"/>
      <point x="623" y="904" type="line"/>
      <point x="617" y="934"/>
      <point x="600" y="958"/>
      <point x="565" y="973" type="curve"/>
      <point x="554" y="948" type="line"/>
      <point x="575" y="939"/>
      <point x="590" y="922"/>
      <point x="597" y="909" type="curve" smooth="yes"/>
      <point x="606" y="893"/>
      <point x="607" y="876"/>
      <point x="607" y="840" type="curve" smooth="yes"/>
      <point x="607" y="788" type="line" smooth="yes"/>
      <point x="607" y="755"/>
      <point x="608" y="711"/>
      <point x="610" y="679" type="curve"/>
    </contour>
    <contour>
      <point x="674" y="806" type="curve" smooth="yes"/>
      <point x="737" y="806"/>
      <point x="765" y="839"/>
      <point x="765" y="891" type="curve" smooth="yes"/>
      <point x="765" y="949"/>
      <point x="728" y="973"/>
      <point x="690" y="973" type="curve" smooth="yes"/>
      <point x="646" y="973"/>
      <point x="622" y="941"/>
      <point x="617" y="914" type="curve"/>
      <point x="633" y="850" type="line"/>
      <point x="633" y="862" type="line" smooth="yes"/>
      <point x="633" y="911"/>
      <point x="645" y="948"/>
      <point x="688" y="948" type="curve" smooth="yes"/>
      <point x="720" y="948"/>
      <point x="739" y="930"/>
      <point x="739" y="890" type="curve" smooth="yes"/>
      <point x="739" y="847"/>
      <point x="712" y="831"/>
      <point x="671" y="831" type="curve" smooth="yes"/>
      <point x="641" y="831"/>
      <point x="629" y="837"/>
      <point x="615" y="843" type="curve"/>
      <point x="608" y="819" type="line"/>
      <point x="625" y="812"/>
      <point x="641" y="806"/>
    </contour>
    <component base="esinh"/>
  </outline>
</glyph>
<glyph name="osinh" format="2">
  <advance width="828"/>
  <unicode hex="0D94"/>
  <outline>
    <contour>
      <point x="564" y="-11" type="curve" smooth="yes"/>
      <point x="696" y="-11"/>
      <point x="784" y="84"/>
      <point x="784" y="350" type="curve" smooth="yes"/>
      <point x="784" y="705"/>
      <point x="629" y="836"/>
      <point x="386" y="836" type="curve" smooth="yes"/>
      <point x="256" y="836"/>
      <point x="173" y="802"/>
      <point x="85" y="760" type="curve"/>
      <point x="96" y="736" type="line"/>
      <point x="183" y="780"/>
      <point x="267" y="810"/>
      <point x="385" y="810" type="curve" smooth="yes"/>
      <point x="638" y="810"/>
      <point x="757" y="660"/>
      <point x="757" y="347" type="curve" smooth="yes"/>
      <point x="757" y="99"/>
      <point x="683" y="15"/>
      <point x="563" y="15" type="curve" smooth="yes"/>
      <point x="446" y="15"/>
      <point x="413" y="113"/>
      <point x="413" y="176" type="curve"/>
      <point x="387" y="176" type="line"/>
      <point x="387" y="110"/>
      <point x="355" y="15"/>
      <point x="241" y="15" type="curve" smooth="yes"/>
      <point x="133" y="15"/>
      <point x="71" y="108"/>
      <point x="71" y="274" type="curve" smooth="yes"/>
      <point x="71" y="443"/>
      <point x="146" y="550"/>
      <point x="214" y="550" type="curve" smooth="yes"/>
      <point x="251" y="550"/>
      <point x="255" y="526"/>
      <point x="255" y="497" type="curve" smooth="yes"/>
      <point x="255" y="476"/>
      <point x="247" y="436"/>
      <point x="247" y="393" type="curve" smooth="yes"/>
      <point x="247" y="322"/>
      <point x="286" y="254"/>
      <point x="403" y="254" type="curve" smooth="yes"/>
      <point x="506" y="254"/>
      <point x="579" y="311"/>
      <point x="579" y="426" type="curve" smooth="yes"/>
      <point x="579" y="528"/>
      <point x="520" y="576"/>
      <point x="453" y="576" type="curve" smooth="yes"/>
      <point x="377" y="576"/>
      <point x="343" y="527"/>
      <point x="343" y="477" type="curve" smooth="yes"/>
      <point x="343" y="417"/>
      <point x="380" y="379"/>
      <point x="445" y="379" type="curve" smooth="yes"/>
      <point x="501" y="379"/>
      <point x="530" y="399"/>
      <point x="569" y="433" type="curve"/>
      <point x="557" y="452" type="line"/>
      <point x="521" y="420"/>
      <point x="492" y="405"/>
      <point x="446" y="405" type="curve" smooth="yes"/>
      <point x="400" y="405"/>
      <point x="370" y="428"/>
      <point x="370" y="476" type="curve" smooth="yes"/>
      <point x="370" y="520"/>
      <point x="398" y="550"/>
      <point x="454" y="550" type="curve" smooth="yes"/>
      <point x="510" y="550"/>
      <point x="553" y="506"/>
      <point x="553" y="426" type="curve" smooth="yes"/>
      <point x="553" y="319"/>
      <point x="483" y="280"/>
      <point x="400" y="280" type="curve" smooth="yes"/>
      <point x="306" y="280"/>
      <point x="273" y="332"/>
      <point x="273" y="395" type="curve" smooth="yes"/>
      <point x="273" y="443"/>
      <point x="282" y="478"/>
      <point x="282" y="508" type="curve" smooth="yes"/>
      <point x="282" y="539"/>
      <point x="266" y="576"/>
      <point x="217" y="576" type="curve" smooth="yes"/>
      <point x="111" y="576"/>
      <point x="44" y="428"/>
      <point x="44" y="275" type="curve" smooth="yes"/>
      <point x="44" y="86"/>
      <point x="121" y="-11"/>
      <point x="240" y="-11" type="curve" smooth="yes"/>
      <point x="336" y="-11"/>
      <point x="383" y="47"/>
      <point x="400" y="109" type="curve"/>
      <point x="418" y="39"/>
      <point x="475" y="-11"/>
    </contour>
  </outline>
</glyph>
<glyph name="oosinh" format="2">
  <advance width="828"/>
  <unicode hex="0D95"/>
  <outline>
    <contour>
      <point x="569" y="-11" type="curve" smooth="yes"/>
      <point x="696" y="-11"/>
      <point x="784" y="75"/>
      <point x="784" y="324" type="curve" smooth="yes"/>
      <point x="784" y="637"/>
      <point x="629" y="756"/>
      <point x="374" y="756" type="curve" smooth="yes"/>
      <point x="254" y="756"/>
      <point x="176" y="739"/>
      <point x="87" y="708" type="curve"/>
      <point x="94" y="683" type="line"/>
      <point x="181" y="716"/>
      <point x="260" y="730"/>
      <point x="373" y="730" type="curve" smooth="yes"/>
      <point x="638" y="730"/>
      <point x="757" y="595"/>
      <point x="757" y="324" type="curve" smooth="yes"/>
      <point x="757" y="91"/>
      <point x="683" y="15"/>
      <point x="570" y="15" type="curve" smooth="yes"/>
      <point x="446" y="15"/>
      <point x="413" y="113"/>
      <point x="413" y="176" type="curve"/>
      <point x="387" y="176" type="line"/>
      <point x="387" y="110"/>
      <point x="355" y="15"/>
      <point x="241" y="15" type="curve" smooth="yes"/>
      <point x="133" y="15"/>
      <point x="71" y="108"/>
      <point x="71" y="274" type="curve" smooth="yes"/>
      <point x="71" y="443"/>
      <point x="146" y="550"/>
      <point x="214" y="550" type="curve" smooth="yes"/>
      <point x="251" y="550"/>
      <point x="255" y="526"/>
      <point x="255" y="497" type="curve" smooth="yes"/>
      <point x="255" y="476"/>
      <point x="247" y="436"/>
      <point x="247" y="393" type="curve" smooth="yes"/>
      <point x="247" y="322"/>
      <point x="286" y="254"/>
      <point x="403" y="254" type="curve" smooth="yes"/>
      <point x="506" y="254"/>
      <point x="579" y="311"/>
      <point x="579" y="426" type="curve" smooth="yes"/>
      <point x="579" y="528"/>
      <point x="520" y="576"/>
      <point x="453" y="576" type="curve" smooth="yes"/>
      <point x="377" y="576"/>
      <point x="343" y="527"/>
      <point x="343" y="477" type="curve" smooth="yes"/>
      <point x="343" y="417"/>
      <point x="380" y="379"/>
      <point x="445" y="379" type="curve" smooth="yes"/>
      <point x="501" y="379"/>
      <point x="530" y="399"/>
      <point x="569" y="433" type="curve"/>
      <point x="557" y="452" type="line"/>
      <point x="521" y="420"/>
      <point x="492" y="405"/>
      <point x="446" y="405" type="curve" smooth="yes"/>
      <point x="400" y="405"/>
      <point x="370" y="428"/>
      <point x="370" y="476" type="curve" smooth="yes"/>
      <point x="370" y="520"/>
      <point x="398" y="550"/>
      <point x="454" y="550" type="curve" smooth="yes"/>
      <point x="510" y="550"/>
      <point x="553" y="506"/>
      <point x="553" y="426" type="curve" smooth="yes"/>
      <point x="553" y="319"/>
      <point x="483" y="280"/>
      <point x="400" y="280" type="curve" smooth="yes"/>
      <point x="306" y="280"/>
      <point x="273" y="332"/>
      <point x="273" y="395" type="curve" smooth="yes"/>
      <point x="273" y="443"/>
      <point x="282" y="478"/>
      <point x="282" y="508" type="curve" smooth="yes"/>
      <point x="282" y="539"/>
      <point x="266" y="576"/>
      <point x="217" y="576" type="curve" smooth="yes"/>
      <point x="111" y="576"/>
      <point x="44" y="428"/>
      <point x="44" y="275" type="curve" smooth="yes"/>
      <point x="44" y="86"/>
      <point x="121" y="-11"/>
      <point x="240" y="-11" type="curve" smooth="yes"/>
      <point x="336" y="-11"/>
      <point x="383" y="47"/>
      <point x="400" y="109" type="curve"/>
      <point x="418" y="39"/>
      <point x="475" y="-11"/>
    </contour>
    <contour>
      <point x="410" y="957" type="curve" smooth="yes"/>
      <point x="157" y="957"/>
      <point x="122" y="859"/>
      <point x="122" y="795" type="curve" smooth="yes"/>
      <point x="122" y="759"/>
      <point x="130" y="732"/>
      <point x="139" y="710" type="curve"/>
      <point x="164" y="717" type="line"/>
      <point x="155" y="739"/>
      <point x="149" y="767"/>
      <point x="149" y="795" type="curve" smooth="yes"/>
      <point x="149" y="850"/>
      <point x="179" y="931"/>
      <point x="409" y="931" type="curve" smooth="yes"/>
      <point x="630" y="931"/>
      <point x="711" y="875"/>
      <point x="711" y="782" type="curve" smooth="yes"/>
      <point x="711" y="747"/>
      <point x="701" y="717"/>
      <point x="683" y="685" type="curve"/>
      <point x="708" y="674" type="line"/>
      <point x="726" y="709"/>
      <point x="738" y="743"/>
      <point x="738" y="782" type="curve" smooth="yes"/>
      <point x="738" y="867"/>
      <point x="682" y="957"/>
    </contour>
  </outline>
</glyph>
<glyph name="khasinh" format="2">
  <advance width="826"/>
  <unicode hex="0D9B"/>
  <outline>
    <contour>
      <point x="231" y="-11" type="curve" smooth="yes"/>
      <point x="318" y="-11"/>
      <point x="360" y="38"/>
      <point x="360" y="99" type="curve" smooth="yes"/>
      <point x="360" y="162"/>
      <point x="320" y="206"/>
      <point x="249" y="206" type="curve" smooth="yes"/>
      <point x="176" y="206"/>
      <point x="127" y="158"/>
      <point x="84" y="109" type="curve"/>
      <point x="97" y="83" type="line"/>
      <point x="140" y="137"/>
      <point x="186" y="180"/>
      <point x="247" y="180" type="curve" smooth="yes"/>
      <point x="309" y="180"/>
      <point x="333" y="144"/>
      <point x="333" y="99" type="curve" smooth="yes"/>
      <point x="333" y="58"/>
      <point x="310" y="15"/>
      <point x="232" y="15" type="curve" smooth="yes"/>
      <point x="162" y="15"/>
      <point x="121" y="54"/>
      <point x="97" y="105" type="curve" smooth="yes"/>
      <point x="77" y="148"/>
      <point x="70" y="200"/>
      <point x="70" y="243" type="curve" smooth="yes"/>
      <point x="70" y="424"/>
      <point x="186" y="521"/>
      <point x="315" y="521" type="curve" smooth="yes"/>
      <point x="469" y="521"/>
      <point x="513" y="413"/>
      <point x="513" y="317" type="curve" smooth="yes"/>
      <point x="513" y="208"/>
      <point x="464" y="101"/>
      <point x="366" y="8" type="curve"/>
      <point x="385" y="-11" type="line"/>
      <point x="483" y="92"/>
      <point x="539" y="186"/>
      <point x="539" y="319" type="curve" smooth="yes"/>
      <point x="539" y="424"/>
      <point x="486" y="547"/>
      <point x="317" y="547" type="curve" smooth="yes"/>
      <point x="173" y="547"/>
      <point x="43" y="442"/>
      <point x="43" y="242" type="curve" smooth="yes"/>
      <point x="43" y="122"/>
      <point x="95" y="-11"/>
    </contour>
    <contour>
      <point x="588" y="-11" type="curve" smooth="yes"/>
      <point x="690" y="-11"/>
      <point x="782" y="84"/>
      <point x="782" y="347" type="curve" smooth="yes"/>
      <point x="782" y="650"/>
      <point x="656" y="836"/>
      <point x="376" y="836" type="curve" smooth="yes"/>
      <point x="234" y="836"/>
      <point x="149" y="807"/>
      <point x="53" y="759" type="curve"/>
      <point x="65" y="736" type="line"/>
      <point x="160" y="783"/>
      <point x="247" y="810"/>
      <point x="377" y="810" type="curve" smooth="yes"/>
      <point x="652" y="810"/>
      <point x="755" y="617"/>
      <point x="755" y="347" type="curve" smooth="yes"/>
      <point x="755" y="98"/>
      <point x="673" y="15"/>
      <point x="587" y="15" type="curve" smooth="yes"/>
      <point x="530" y="15"/>
      <point x="500" y="48"/>
      <point x="499" y="116" type="curve"/>
      <point x="474" y="116" type="line"/>
      <point x="473" y="111" type="line"/>
      <point x="476" y="47"/>
      <point x="503" y="-11"/>
    </contour>
  </outline>
</glyph>
<glyph name="gasinh" format="2">
  <advance width="869"/>
  <unicode hex="0D9C"/>
  <outline>
    <contour>
      <point x="294" y="-11" type="curve" smooth="yes"/>
      <point x="453" y="-11"/>
      <point x="527" y="91"/>
      <point x="527" y="218" type="curve" smooth="yes"/>
      <point x="527" y="303"/>
      <point x="491" y="357"/>
      <point x="425" y="357" type="curve" smooth="yes"/>
      <point x="389" y="357"/>
      <point x="360" y="341"/>
      <point x="340" y="319" type="curve"/>
      <point x="350" y="312" type="line"/>
      <point x="385" y="514"/>
      <point x="477" y="586"/>
      <point x="595" y="586" type="curve" smooth="yes"/>
      <point x="720" y="586"/>
      <point x="801" y="483"/>
      <point x="801" y="307" type="curve" smooth="yes"/>
      <point x="801" y="135"/>
      <point x="721" y="22"/>
      <point x="542" y="22" type="curve" smooth="yes"/>
      <point x="526" y="22"/>
      <point x="507" y="23"/>
      <point x="495" y="25" type="curve"/>
      <point x="493" y="-1" type="line"/>
      <point x="507" y="-3"/>
      <point x="523" y="-4"/>
      <point x="545" y="-4" type="curve" smooth="yes"/>
      <point x="710" y="-4"/>
      <point x="828" y="91"/>
      <point x="828" y="308" type="curve" smooth="yes"/>
      <point x="828" y="484"/>
      <point x="746" y="612"/>
      <point x="596" y="612" type="curve" smooth="yes"/>
      <point x="468" y="612"/>
      <point x="359" y="537"/>
      <point x="323" y="305" type="curve"/>
      <point x="348" y="297" type="line"/>
      <point x="371" y="320"/>
      <point x="396" y="331"/>
      <point x="422" y="331" type="curve" smooth="yes"/>
      <point x="477" y="331"/>
      <point x="500" y="288"/>
      <point x="500" y="219" type="curve" smooth="yes"/>
      <point x="500" y="109"/>
      <point x="439" y="15"/>
      <point x="297" y="15" type="curve" smooth="yes"/>
      <point x="138" y="15"/>
      <point x="68" y="123"/>
      <point x="68" y="292" type="curve" smooth="yes"/>
      <point x="68" y="489"/>
      <point x="162" y="586"/>
      <point x="330" y="586" type="curve" smooth="yes"/>
      <point x="339" y="586"/>
      <point x="355" y="585"/>
      <point x="369" y="583" type="curve"/>
      <point x="371" y="609" type="line"/>
      <point x="358" y="611"/>
      <point x="340" y="612"/>
      <point x="330" y="612" type="curve" smooth="yes"/>
      <point x="147" y="612"/>
      <point x="41" y="502"/>
      <point x="41" y="295" type="curve" smooth="yes"/>
      <point x="41" y="101"/>
      <point x="127" y="-11"/>
    </contour>
  </outline>
</glyph>
<glyph name="ghasinh" format="2">
  <advance width="765"/>
  <unicode hex="0D9D"/>
  <outline>
    <contour>
      <point x="224" y="-11" type="curve" smooth="yes"/>
      <point x="278" y="-11"/>
      <point x="313" y="0"/>
      <point x="340" y="13" type="curve"/>
      <point x="328" y="37" type="line"/>
      <point x="297" y="23"/>
      <point x="271" y="15"/>
      <point x="223" y="15" type="curve" smooth="yes"/>
      <point x="136" y="15"/>
      <point x="70" y="71"/>
      <point x="70" y="203" type="curve" smooth="yes"/>
      <point x="70" y="273"/>
      <point x="87" y="315"/>
      <point x="119" y="350" type="curve" smooth="yes"/>
      <point x="170" y="406"/>
      <point x="252" y="429"/>
      <point x="351" y="429" type="curve" smooth="yes"/>
      <point x="368" y="429" type="line"/>
      <point x="368" y="446" type="line" smooth="yes"/>
      <point x="368" y="544"/>
      <point x="314" y="612"/>
      <point x="217" y="612" type="curve" smooth="yes"/>
      <point x="140" y="612"/>
      <point x="90" y="572"/>
      <point x="90" y="498" type="curve" smooth="yes"/>
      <point x="90" y="493"/>
      <point x="90" y="485"/>
      <point x="91" y="476" type="curve"/>
      <point x="118" y="478" type="line"/>
      <point x="117" y="484"/>
      <point x="117" y="490"/>
      <point x="117" y="496" type="curve" smooth="yes"/>
      <point x="117" y="557"/>
      <point x="154" y="586"/>
      <point x="219" y="586" type="curve" smooth="yes"/>
      <point x="289" y="586"/>
      <point x="337" y="541"/>
      <point x="342" y="455" type="curve"/>
      <point x="30" y="455" type="line"/>
      <point x="30" y="429" type="line"/>
      <point x="116" y="429" type="line" smooth="yes"/>
      <point x="167" y="429"/>
      <point x="212" y="432"/>
      <point x="258" y="436" type="curve"/>
      <point x="246" y="436" type="line"/>
      <point x="95" y="412"/>
      <point x="43" y="315"/>
      <point x="43" y="203" type="curve" smooth="yes"/>
      <point x="43" y="65"/>
      <point x="112" y="-11"/>
    </contour>
    <contour>
      <point x="544" y="-11" type="curve" smooth="yes"/>
      <point x="656" y="-11"/>
      <point x="724" y="70"/>
      <point x="724" y="216" type="curve" smooth="yes"/>
      <point x="724" y="376"/>
      <point x="612" y="455"/>
      <point x="451" y="455" type="curve" smooth="yes"/>
      <point x="412" y="455" type="line"/>
      <point x="429" y="452" type="line"/>
      <point x="432" y="539"/>
      <point x="482" y="586"/>
      <point x="552" y="586" type="curve" smooth="yes"/>
      <point x="617" y="586"/>
      <point x="654" y="557"/>
      <point x="654" y="495" type="curve" smooth="yes"/>
      <point x="654" y="479"/>
      <point x="651" y="462"/>
      <point x="649" y="452" type="curve"/>
      <point x="675" y="449" type="line"/>
      <point x="679" y="462"/>
      <point x="681" y="486"/>
      <point x="681" y="498" type="curve" smooth="yes"/>
      <point x="681" y="569"/>
      <point x="633" y="612"/>
      <point x="554" y="612" type="curve" smooth="yes"/>
      <point x="457" y="612"/>
      <point x="403" y="543"/>
      <point x="403" y="446" type="curve" smooth="yes"/>
      <point x="403" y="429" type="line"/>
      <point x="437" y="429" type="line" smooth="yes"/>
      <point x="523" y="429"/>
      <point x="588" y="412"/>
      <point x="632" y="374" type="curve" smooth="yes"/>
      <point x="673" y="339"/>
      <point x="697" y="287"/>
      <point x="697" y="216" type="curve" smooth="yes"/>
      <point x="697" y="86"/>
      <point x="643" y="15"/>
      <point x="543" y="15" type="curve" smooth="yes"/>
      <point x="495" y="15"/>
      <point x="462" y="26"/>
      <point x="435" y="37" type="curve"/>
      <point x="426" y="13" type="line"/>
      <point x="451" y="3"/>
      <point x="487" y="-11"/>
    </contour>
    <contour>
      <point x="383" y="204" type="curve" smooth="yes"/>
      <point x="462" y="204"/>
      <point x="490" y="168"/>
      <point x="490" y="124" type="curve" smooth="yes"/>
      <point x="490" y="78"/>
      <point x="459" y="53"/>
      <point x="423" y="42" type="curve"/>
      <point x="426" y="13" type="line"/>
      <point x="439" y="22" type="line"/>
      <point x="494" y="43"/>
      <point x="517" y="79"/>
      <point x="517" y="126" type="curve" smooth="yes"/>
      <point x="517" y="192"/>
      <point x="462" y="230"/>
      <point x="385" y="230" type="curve" smooth="yes"/>
      <point x="382" y="230" type="line" smooth="yes"/>
      <point x="302" y="230"/>
      <point x="249" y="192"/>
      <point x="249" y="125" type="curve" smooth="yes"/>
      <point x="249" y="79"/>
      <point x="272" y="43"/>
      <point x="325" y="23" type="curve"/>
      <point x="340" y="13" type="line"/>
      <point x="343" y="42" type="line"/>
      <point x="308" y="52"/>
      <point x="276" y="78"/>
      <point x="276" y="124" type="curve" smooth="yes"/>
      <point x="276" y="168"/>
      <point x="304" y="204"/>
    </contour>
  </outline>
</glyph>
<glyph name="ngasinh" format="2">
  <advance width="824"/>
  <unicode hex="0D9E"/>
  <outline>
    <contour>
      <point x="566" y="-11" type="curve" smooth="yes"/>
      <point x="693" y="-11"/>
      <point x="780" y="78"/>
      <point x="780" y="348" type="curve" smooth="yes"/>
      <point x="780" y="699"/>
      <point x="620" y="836"/>
      <point x="386" y="836" type="curve" smooth="yes"/>
      <point x="259" y="836"/>
      <point x="172" y="803"/>
      <point x="84" y="759" type="curve"/>
      <point x="95" y="735" type="line"/>
      <point x="180" y="779"/>
      <point x="259" y="810"/>
      <point x="384" y="810" type="curve" smooth="yes"/>
      <point x="629" y="810"/>
      <point x="753" y="656"/>
      <point x="753" y="347" type="curve" smooth="yes"/>
      <point x="753" y="99"/>
      <point x="681" y="15"/>
      <point x="565" y="15" type="curve" smooth="yes"/>
      <point x="451" y="15"/>
      <point x="419" y="117"/>
      <point x="419" y="171" type="curve" smooth="yes"/>
      <point x="419" y="204" type="line"/>
      <point x="393" y="204" type="line"/>
      <point x="393" y="170" type="line" smooth="yes"/>
      <point x="393" y="109"/>
      <point x="357" y="15"/>
      <point x="246" y="15" type="curve" smooth="yes"/>
      <point x="158" y="15"/>
      <point x="98" y="70"/>
      <point x="98" y="177" type="curve" smooth="yes"/>
      <point x="98" y="282"/>
      <point x="168" y="322"/>
      <point x="244" y="345" type="curve" smooth="yes"/>
      <point x="310" y="365" type="line" smooth="yes"/>
      <point x="410" y="395"/>
      <point x="441" y="428"/>
      <point x="441" y="489" type="curve" smooth="yes"/>
      <point x="441" y="579"/>
      <point x="350" y="612"/>
      <point x="234" y="612" type="curve" smooth="yes"/>
      <point x="78" y="612"/>
      <point x="25" y="557"/>
      <point x="25" y="486" type="curve" smooth="yes"/>
      <point x="25" y="433"/>
      <point x="53" y="386"/>
      <point x="122" y="386" type="curve" smooth="yes"/>
      <point x="180" y="386"/>
      <point x="223" y="419"/>
      <point x="223" y="486" type="curve" smooth="yes"/>
      <point x="223" y="536"/>
      <point x="196" y="577"/>
      <point x="174" y="596" type="curve"/>
      <point x="145" y="590" type="line"/>
      <point x="179" y="561"/>
      <point x="196" y="524"/>
      <point x="196" y="485" type="curve" smooth="yes"/>
      <point x="196" y="441"/>
      <point x="172" y="412"/>
      <point x="123" y="412" type="curve" smooth="yes"/>
      <point x="73" y="412"/>
      <point x="52" y="442"/>
      <point x="52" y="486" type="curve" smooth="yes"/>
      <point x="52" y="545"/>
      <point x="97" y="574"/>
      <point x="170" y="583" type="curve" smooth="yes"/>
      <point x="188" y="585"/>
      <point x="208" y="586"/>
      <point x="232" y="586" type="curve" smooth="yes"/>
      <point x="335" y="586"/>
      <point x="414" y="562"/>
      <point x="414" y="488" type="curve" smooth="yes"/>
      <point x="414" y="447"/>
      <point x="400" y="419"/>
      <point x="300" y="389" type="curve" smooth="yes"/>
      <point x="244" y="372" type="line" smooth="yes"/>
      <point x="181" y="352"/>
      <point x="141" y="330"/>
      <point x="115" y="301" type="curve" smooth="yes"/>
      <point x="86" y="267"/>
      <point x="71" y="232"/>
      <point x="71" y="179" type="curve" smooth="yes"/>
      <point x="71" y="63"/>
      <point x="136" y="-11"/>
      <point x="247" y="-11" type="curve" smooth="yes"/>
      <point x="337" y="-11"/>
      <point x="385" y="39"/>
      <point x="406" y="109" type="curve"/>
      <point x="424" y="39"/>
      <point x="479" y="-11"/>
    </contour>
  </outline>
</glyph>
<glyph name="casinh" format="2">
  <advance width="765"/>
  <unicode hex="0DA0"/>
  <outline>
    <contour>
      <point x="335" y="-11" type="curve" smooth="yes"/>
      <point x="604" y="-11"/>
      <point x="724" y="188"/>
      <point x="724" y="419" type="curve" smooth="yes"/>
      <point x="724" y="716"/>
      <point x="537" y="836"/>
      <point x="346" y="836" type="curve" smooth="yes"/>
      <point x="228" y="836"/>
      <point x="134" y="804"/>
      <point x="48" y="757" type="curve"/>
      <point x="60" y="733" type="line"/>
      <point x="143" y="779"/>
      <point x="232" y="810"/>
      <point x="346" y="810" type="curve" smooth="yes"/>
      <point x="518" y="810"/>
      <point x="697" y="704"/>
      <point x="697" y="418" type="curve" smooth="yes"/>
      <point x="697" y="206"/>
      <point x="589" y="15"/>
      <point x="333" y="15" type="curve" smooth="yes"/>
      <point x="159" y="15"/>
      <point x="76" y="101"/>
      <point x="76" y="231" type="curve" smooth="yes"/>
      <point x="76" y="291"/>
      <point x="97" y="335"/>
      <point x="129" y="365" type="curve" smooth="yes"/>
      <point x="181" y="414"/>
      <point x="254" y="429"/>
      <point x="356" y="429" type="curve" smooth="yes"/>
      <point x="449" y="429" type="line"/>
      <point x="449" y="447" type="line" smooth="yes"/>
      <point x="449" y="544"/>
      <point x="395" y="612"/>
      <point x="298" y="612" type="curve" smooth="yes"/>
      <point x="221" y="612"/>
      <point x="171" y="572"/>
      <point x="171" y="498" type="curve" smooth="yes"/>
      <point x="171" y="493"/>
      <point x="171" y="485"/>
      <point x="172" y="476" type="curve"/>
      <point x="199" y="478" type="line"/>
      <point x="198" y="484"/>
      <point x="198" y="490"/>
      <point x="198" y="495" type="curve" smooth="yes"/>
      <point x="198" y="557"/>
      <point x="235" y="586"/>
      <point x="300" y="586" type="curve" smooth="yes"/>
      <point x="363" y="586"/>
      <point x="418" y="548"/>
      <point x="423" y="455" type="curve"/>
      <point x="30" y="455" type="line"/>
      <point x="30" y="429" type="line"/>
      <point x="119" y="429" type="line" smooth="yes"/>
      <point x="169" y="429"/>
      <point x="217" y="433"/>
      <point x="263" y="437" type="curve"/>
      <point x="277" y="439" type="line"/>
      <point x="143" y="433"/>
      <point x="49" y="369"/>
      <point x="49" y="230" type="curve" smooth="yes"/>
      <point x="49" y="80"/>
      <point x="150" y="-11"/>
    </contour>
  </outline>
</glyph>
<glyph name="chasinh" format="2">
  <advance width="748"/>
  <unicode hex="0DA1"/>
  <outline>
    <contour>
      <point x="374" y="-11" type="curve" smooth="yes"/>
      <point x="600" y="-11"/>
      <point x="707" y="96"/>
      <point x="707" y="251" type="curve" smooth="yes"/>
      <point x="707" y="372"/>
      <point x="643" y="455"/>
      <point x="452" y="455" type="curve" smooth="yes"/>
      <point x="407" y="455" type="line"/>
      <point x="415" y="443" type="line"/>
      <point x="415" y="527"/>
      <point x="465" y="586"/>
      <point x="535" y="586" type="curve" smooth="yes"/>
      <point x="612" y="586"/>
      <point x="634" y="529"/>
      <point x="634" y="464" type="curve" smooth="yes"/>
      <point x="634" y="383"/>
      <point x="606" y="296"/>
      <point x="513" y="296" type="curve" smooth="yes"/>
      <point x="462" y="296"/>
      <point x="415" y="315"/>
      <point x="415" y="430" type="curve"/>
      <point x="402" y="448" type="line"/>
      <point x="425" y="529" type="line"/>
      <point x="478" y="648"/>
      <point x="587" y="740"/>
      <point x="711" y="785" type="curve"/>
      <point x="699" y="810" type="line"/>
      <point x="514" y="740"/>
      <point x="389" y="587"/>
      <point x="389" y="435" type="curve" smooth="yes"/>
      <point x="389" y="296"/>
      <point x="450" y="270"/>
      <point x="513" y="270" type="curve" smooth="yes"/>
      <point x="588" y="270"/>
      <point x="629" y="314"/>
      <point x="648" y="376" type="curve"/>
      <point x="652" y="385" type="line"/>
      <point x="658" y="409"/>
      <point x="661" y="437"/>
      <point x="661" y="464" type="curve" smooth="yes"/>
      <point x="661" y="537"/>
      <point x="633" y="612"/>
      <point x="537" y="612" type="curve" smooth="yes"/>
      <point x="480" y="612"/>
      <point x="400" y="565"/>
      <point x="400" y="455" type="curve" smooth="yes"/>
      <point x="400" y="429" type="line"/>
      <point x="444" y="429" type="line" smooth="yes"/>
      <point x="539" y="429"/>
      <point x="589" y="415"/>
      <point x="631" y="382" type="curve"/>
      <point x="639" y="375" type="line"/>
      <point x="672" y="340"/>
      <point x="680" y="294"/>
      <point x="680" y="253" type="curve" smooth="yes"/>
      <point x="680" y="118"/>
      <point x="593" y="15"/>
      <point x="374" y="15" type="curve" smooth="yes"/>
      <point x="156" y="15"/>
      <point x="68" y="116"/>
      <point x="68" y="253" type="curve" smooth="yes"/>
      <point x="68" y="311"/>
      <point x="85" y="356"/>
      <point x="123" y="386" type="curve" smooth="yes"/>
      <point x="159" y="414"/>
      <point x="209" y="429"/>
      <point x="303" y="429" type="curve" smooth="yes"/>
      <point x="354" y="429" type="line"/>
      <point x="354" y="446" type="line" smooth="yes"/>
      <point x="354" y="544"/>
      <point x="300" y="612"/>
      <point x="203" y="612" type="curve" smooth="yes"/>
      <point x="126" y="612"/>
      <point x="76" y="572"/>
      <point x="76" y="498" type="curve" smooth="yes"/>
      <point x="76" y="486"/>
      <point x="78" y="462"/>
      <point x="82" y="449" type="curve"/>
      <point x="108" y="452" type="line"/>
      <point x="106" y="462"/>
      <point x="103" y="478"/>
      <point x="103" y="495" type="curve" smooth="yes"/>
      <point x="103" y="557"/>
      <point x="140" y="586"/>
      <point x="205" y="586" type="curve" smooth="yes"/>
      <point x="275" y="586"/>
      <point x="325" y="540"/>
      <point x="328" y="452" type="curve"/>
      <point x="336" y="455" type="line"/>
      <point x="299" y="455" type="line" smooth="yes"/>
      <point x="119" y="455"/>
      <point x="41" y="385"/>
      <point x="41" y="251" type="curve" smooth="yes"/>
      <point x="41" y="95"/>
      <point x="149" y="-11"/>
    </contour>
  </outline>
</glyph>
<glyph name="jasinh" format="2">
  <advance width="743"/>
  <unicode hex="0DA2"/>
  <outline>
    <contour>
      <point x="371" y="-11" type="curve" smooth="yes"/>
      <point x="596" y="-11"/>
      <point x="702" y="96"/>
      <point x="702" y="251" type="curve" smooth="yes"/>
      <point x="702" y="385"/>
      <point x="624" y="455"/>
      <point x="444" y="455" type="curve" smooth="yes"/>
      <point x="409" y="455" type="line"/>
      <point x="415" y="452" type="line"/>
      <point x="418" y="536"/>
      <point x="465" y="586"/>
      <point x="551" y="586" type="curve" smooth="yes"/>
      <point x="614" y="586"/>
      <point x="641" y="553"/>
      <point x="641" y="509" type="curve" smooth="yes"/>
      <point x="641" y="458"/>
      <point x="610" y="445"/>
      <point x="582" y="445" type="curve" smooth="yes"/>
      <point x="540" y="445"/>
      <point x="510" y="462"/>
      <point x="510" y="533" type="curve" smooth="yes"/>
      <point x="510" y="555"/>
      <point x="513" y="574"/>
      <point x="518" y="593" type="curve"/>
      <point x="519" y="603" type="line"/>
      <point x="545" y="685"/>
      <point x="615" y="743"/>
      <point x="703" y="785" type="curve"/>
      <point x="691" y="810" type="line"/>
      <point x="573" y="749"/>
      <point x="483" y="665"/>
      <point x="483" y="535" type="curve" smooth="yes"/>
      <point x="483" y="533" type="line" smooth="yes"/>
      <point x="483" y="466"/>
      <point x="517" y="423"/>
      <point x="581" y="423" type="curve" smooth="yes"/>
      <point x="650" y="423"/>
      <point x="668" y="465"/>
      <point x="668" y="512" type="curve" smooth="yes"/>
      <point x="668" y="566"/>
      <point x="628" y="612"/>
      <point x="551" y="612" type="curve" smooth="yes"/>
      <point x="537" y="612"/>
      <point x="523" y="610"/>
      <point x="509" y="607" type="curve" smooth="yes"/>
      <point x="501" y="606" type="line"/>
      <point x="442" y="591"/>
      <point x="389" y="546"/>
      <point x="389" y="446" type="curve" smooth="yes"/>
      <point x="389" y="429" type="line"/>
      <point x="440" y="429" type="line" smooth="yes"/>
      <point x="534" y="429"/>
      <point x="584" y="414"/>
      <point x="620" y="386" type="curve" smooth="yes"/>
      <point x="658" y="356"/>
      <point x="675" y="311"/>
      <point x="675" y="253" type="curve" smooth="yes"/>
      <point x="675" y="118"/>
      <point x="588" y="15"/>
      <point x="371" y="15" type="curve" smooth="yes"/>
      <point x="155" y="15"/>
      <point x="68" y="116"/>
      <point x="68" y="253" type="curve" smooth="yes"/>
      <point x="68" y="311"/>
      <point x="85" y="356"/>
      <point x="123" y="386" type="curve" smooth="yes"/>
      <point x="159" y="414"/>
      <point x="209" y="429"/>
      <point x="303" y="429" type="curve" smooth="yes"/>
      <point x="354" y="429" type="line"/>
      <point x="354" y="446" type="line" smooth="yes"/>
      <point x="354" y="544"/>
      <point x="300" y="612"/>
      <point x="203" y="612" type="curve" smooth="yes"/>
      <point x="126" y="612"/>
      <point x="76" y="572"/>
      <point x="76" y="498" type="curve" smooth="yes"/>
      <point x="76" y="486"/>
      <point x="78" y="462"/>
      <point x="82" y="449" type="curve"/>
      <point x="108" y="452" type="line"/>
      <point x="106" y="462"/>
      <point x="103" y="478"/>
      <point x="103" y="495" type="curve" smooth="yes"/>
      <point x="103" y="557"/>
      <point x="140" y="586"/>
      <point x="205" y="586" type="curve" smooth="yes"/>
      <point x="275" y="586"/>
      <point x="325" y="540"/>
      <point x="328" y="452" type="curve"/>
      <point x="336" y="455" type="line"/>
      <point x="299" y="455" type="line" smooth="yes"/>
      <point x="119" y="455"/>
      <point x="41" y="385"/>
      <point x="41" y="251" type="curve" smooth="yes"/>
      <point x="41" y="95"/>
      <point x="147" y="-11"/>
    </contour>
  </outline>
</glyph>
<glyph name="nyasinh" format="2">
  <advance width="1216"/>
  <unicode hex="0DA4"/>
  <outline>
    <contour>
      <point x="622" y="-11" type="curve" smooth="yes"/>
      <point x="734" y="-11"/>
      <point x="775" y="74"/>
      <point x="775" y="193" type="curve" smooth="yes"/>
      <point x="775" y="353"/>
      <point x="683" y="448"/>
      <point x="514" y="448" type="curve" smooth="yes"/>
      <point x="442" y="448"/>
      <point x="388" y="431"/>
      <point x="355" y="413" type="curve"/>
      <point x="314" y="376" type="line"/>
      <point x="391" y="410"/>
      <point x="433" y="422"/>
      <point x="513" y="422" type="curve" smooth="yes"/>
      <point x="668" y="422"/>
      <point x="752" y="338"/>
      <point x="752" y="193" type="curve" smooth="yes"/>
      <point x="752" y="106"/>
      <point x="728" y="15"/>
      <point x="619" y="15" type="curve" smooth="yes"/>
      <point x="545" y="15"/>
      <point x="492" y="66"/>
      <point x="492" y="166" type="curve" smooth="yes"/>
      <point x="492" y="204" type="line"/>
      <point x="466" y="204" type="line"/>
      <point x="466" y="166" type="line" smooth="yes"/>
      <point x="466" y="84"/>
      <point x="430" y="15"/>
      <point x="341" y="15" type="curve" smooth="yes"/>
      <point x="237" y="15"/>
      <point x="221" y="101"/>
      <point x="221" y="170" type="curve" smooth="yes"/>
      <point x="221" y="181"/>
      <point x="222" y="191"/>
      <point x="224" y="204" type="curve"/>
      <point x="198" y="204" type="line"/>
      <point x="196" y="196"/>
      <point x="194" y="181"/>
      <point x="194" y="170" type="curve" smooth="yes"/>
      <point x="194" y="21"/>
      <point x="273" y="-11"/>
      <point x="341" y="-11" type="curve" smooth="yes"/>
      <point x="406" y="-11"/>
      <point x="455" y="19"/>
      <point x="479" y="98" type="curve"/>
      <point x="496" y="41"/>
      <point x="536" y="-11"/>
    </contour>
    <contour>
      <point x="729" y="586" type="curve" smooth="yes"/>
      <point x="808" y="586"/>
      <point x="872" y="566"/>
      <point x="924" y="533" type="curve"/>
      <point x="934" y="557" type="line"/>
      <point x="884" y="587"/>
      <point x="824" y="612"/>
      <point x="732" y="612" type="curve" smooth="yes"/>
      <point x="594" y="612"/>
      <point x="503" y="571"/>
      <point x="396" y="476" type="curve" smooth="yes"/>
      <point x="390" y="471" type="line" smooth="yes"/>
      <point x="314" y="395"/>
      <point x="227" y="283"/>
      <point x="148" y="171" type="curve"/>
      <point x="172" y="156" type="line"/>
      <point x="197" y="193" type="line"/>
      <point x="204" y="202" type="line"/>
      <point x="255" y="274"/>
      <point x="307" y="343"/>
      <point x="359" y="401" type="curve"/>
      <point x="370" y="415" type="line"/>
      <point x="494" y="544"/>
      <point x="597" y="586"/>
    </contour>
    <contour>
      <point x="284" y="591" type="curve" smooth="yes"/>
      <point x="225" y="591"/>
      <point x="176" y="540"/>
      <point x="176" y="473" type="curve" smooth="yes"/>
      <point x="176" y="455"/>
      <point x="180" y="421"/>
      <point x="188" y="395" type="curve"/>
      <point x="214" y="400" type="line"/>
      <point x="208" y="421"/>
      <point x="203" y="445"/>
      <point x="203" y="473" type="curve" smooth="yes"/>
      <point x="203" y="538"/>
      <point x="238" y="565"/>
      <point x="284" y="565" type="curve" smooth="yes"/>
      <point x="341" y="565"/>
      <point x="365" y="522"/>
      <point x="383" y="458" type="curve"/>
      <point x="405" y="470" type="line"/>
      <point x="387" y="533"/>
      <point x="358" y="591"/>
    </contour>
    <contour>
      <point x="40" y="320" type="curve" smooth="yes"/>
      <point x="40" y="216"/>
      <point x="74" y="147"/>
      <point x="121" y="72" type="curve"/>
      <point x="146" y="87" type="line"/>
      <point x="103" y="144"/>
      <point x="67" y="218"/>
      <point x="67" y="320" type="curve" smooth="yes"/>
      <point x="67" y="459"/>
      <point x="147" y="554"/>
      <point x="252" y="569" type="curve"/>
      <point x="271" y="590" type="line"/>
      <point x="121" y="587"/>
      <point x="40" y="463"/>
    </contour>
    <contour>
      <point x="1014" y="-11" type="curve" smooth="yes"/>
      <point x="1087" y="-11"/>
      <point x="1143" y="2"/>
      <point x="1206" y="38" type="curve"/>
      <point x="1194" y="61" type="line"/>
      <point x="1132" y="28"/>
      <point x="1089" y="15"/>
      <point x="1016" y="15" type="curve" smooth="yes"/>
      <point x="862" y="15"/>
      <point x="777" y="90"/>
      <point x="777" y="232" type="curve" smooth="yes"/>
      <point x="777" y="307"/>
      <point x="803" y="357"/>
      <point x="848" y="387" type="curve" smooth="yes"/>
      <point x="893" y="418"/>
      <point x="954" y="429"/>
      <point x="1070" y="429" type="curve" smooth="yes"/>
      <point x="1184" y="429" type="line"/>
      <point x="1184" y="445" type="line" smooth="yes"/>
      <point x="1184" y="545"/>
      <point x="1131" y="612"/>
      <point x="1029" y="612" type="curve" smooth="yes"/>
      <point x="945" y="612"/>
      <point x="899" y="562"/>
      <point x="899" y="500" type="curve" smooth="yes"/>
      <point x="899" y="492"/>
      <point x="899" y="481"/>
      <point x="901" y="470" type="curve"/>
      <point x="928" y="473" type="line"/>
      <point x="927" y="480"/>
      <point x="926" y="489"/>
      <point x="926" y="498" type="curve" smooth="yes"/>
      <point x="926" y="556"/>
      <point x="963" y="586"/>
      <point x="1029" y="586" type="curve" smooth="yes"/>
      <point x="1105" y="586"/>
      <point x="1155" y="540"/>
      <point x="1158" y="455" type="curve"/>
      <point x="1053" y="455" type="line" smooth="yes"/>
      <point x="938" y="455"/>
      <point x="877" y="441"/>
      <point x="826" y="404" type="curve" smooth="yes"/>
      <point x="777" y="369"/>
      <point x="755" y="318"/>
      <point x="755" y="232" type="curve" smooth="yes"/>
      <point x="755" y="76"/>
      <point x="843" y="-11"/>
    </contour>
    <contour>
      <point x="1160" y="-271" type="curve" smooth="yes"/>
      <point x="1179" y="-271"/>
      <point x="1214" y="-268"/>
      <point x="1234" y="-257" type="curve"/>
      <point x="1228" y="-233" type="line"/>
      <point x="1210" y="-240"/>
      <point x="1184" y="-245"/>
      <point x="1160" y="-245" type="curve" smooth="yes"/>
      <point x="1071" y="-245"/>
      <point x="1043" y="-197"/>
      <point x="1043" y="-142" type="curve" smooth="yes"/>
      <point x="1043" y="-80"/>
      <point x="1085" y="-27"/>
      <point x="1143" y="13" type="curve"/>
      <point x="1124" y="19" type="line"/>
      <point x="1107" y="15" type="line"/>
      <point x="1057" y="-23"/>
      <point x="1016" y="-75"/>
      <point x="1016" y="-142" type="curve" smooth="yes"/>
      <point x="1016" y="-209"/>
      <point x="1055" y="-271"/>
    </contour>
  </outline>
</glyph>
<glyph name="tthasinh" format="2">
  <advance width="790"/>
  <unicode hex="0DA8"/>
  <outline>
    <contour>
      <point x="535" y="-11" type="curve" smooth="yes"/>
      <point x="663" y="-11"/>
      <point x="747" y="70"/>
      <point x="747" y="307" type="curve" smooth="yes"/>
      <point x="747" y="566"/>
      <point x="623" y="721"/>
      <point x="372" y="836" type="curve"/>
      <point x="360" y="812" type="line"/>
      <point x="368" y="808"/>
      <point x="375" y="808"/>
      <point x="383" y="804" type="curve" smooth="yes"/>
      <point x="616" y="692"/>
      <point x="720" y="538"/>
      <point x="720" y="307" type="curve" smooth="yes"/>
      <point x="720" y="87"/>
      <point x="648" y="15"/>
      <point x="534" y="15" type="curve" smooth="yes"/>
      <point x="416" y="15"/>
      <point x="384" y="117"/>
      <point x="384" y="171" type="curve" smooth="yes"/>
      <point x="384" y="204" type="line"/>
      <point x="358" y="204" type="line"/>
      <point x="358" y="170" type="line" smooth="yes"/>
      <point x="358" y="112"/>
      <point x="324" y="15"/>
      <point x="222" y="15" type="curve" smooth="yes"/>
      <point x="128" y="15"/>
      <point x="68" y="85"/>
      <point x="68" y="221" type="curve" smooth="yes"/>
      <point x="68" y="375"/>
      <point x="164" y="460"/>
      <point x="304" y="460" type="curve" smooth="yes"/>
      <point x="332" y="460"/>
      <point x="361" y="458"/>
      <point x="383" y="455" type="curve"/>
      <point x="386" y="481" type="line"/>
      <point x="359" y="485"/>
      <point x="332" y="486"/>
      <point x="304" y="486" type="curve" smooth="yes"/>
      <point x="133" y="486"/>
      <point x="41" y="373"/>
      <point x="41" y="223" type="curve" smooth="yes"/>
      <point x="41" y="65"/>
      <point x="117" y="-11"/>
      <point x="216" y="-11" type="curve" smooth="yes"/>
      <point x="306" y="-11"/>
      <point x="355" y="43"/>
      <point x="371" y="109" type="curve"/>
      <point x="389" y="39"/>
      <point x="444" y="-11"/>
    </contour>
    <contour>
      <point x="493" y="540" type="curve" smooth="yes"/>
      <point x="560" y="540"/>
      <point x="605" y="581"/>
      <point x="629" y="641" type="curve"/>
      <point x="609" y="657" type="line"/>
      <point x="578" y="586"/>
      <point x="539" y="566"/>
      <point x="493" y="566" type="curve" smooth="yes"/>
      <point x="436" y="566"/>
      <point x="420" y="603"/>
      <point x="419" y="672" type="curve" smooth="yes"/>
      <point x="417" y="776"/>
      <point x="414" y="800"/>
      <point x="375" y="828" type="curve"/>
      <point x="360" y="812" type="line"/>
      <point x="390" y="790"/>
      <point x="391" y="765"/>
      <point x="393" y="666" type="curve" smooth="yes"/>
      <point x="395" y="565"/>
      <point x="440" y="540"/>
    </contour>
  </outline>
</glyph>
<glyph name="ddasinh" format="2">
  <advance width="801"/>
  <unicode hex="0DA9"/>
  <outline>
    <contour>
      <point x="543" y="-11" type="curve" smooth="yes"/>
      <point x="670" y="-11"/>
      <point x="757" y="80"/>
      <point x="757" y="348" type="curve" smooth="yes"/>
      <point x="757" y="701"/>
      <point x="597" y="836"/>
      <point x="360" y="836" type="curve" smooth="yes"/>
      <point x="232" y="836"/>
      <point x="145" y="803"/>
      <point x="56" y="759" type="curve"/>
      <point x="67" y="735" type="line"/>
      <point x="153" y="779"/>
      <point x="232" y="810"/>
      <point x="358" y="810" type="curve" smooth="yes"/>
      <point x="606" y="810"/>
      <point x="730" y="655"/>
      <point x="730" y="347" type="curve" smooth="yes"/>
      <point x="730" y="99"/>
      <point x="658" y="15"/>
      <point x="542" y="15" type="curve" smooth="yes"/>
      <point x="428" y="15"/>
      <point x="396" y="117"/>
      <point x="396" y="171" type="curve" smooth="yes"/>
      <point x="396" y="204" type="line"/>
      <point x="370" y="204" type="line"/>
      <point x="370" y="170" type="line" smooth="yes"/>
      <point x="370" y="109"/>
      <point x="334" y="15"/>
      <point x="223" y="15" type="curve" smooth="yes"/>
      <point x="136" y="15"/>
      <point x="70" y="71"/>
      <point x="70" y="203" type="curve" smooth="yes"/>
      <point x="70" y="266"/>
      <point x="89" y="313"/>
      <point x="121" y="348" type="curve" smooth="yes"/>
      <point x="172" y="404"/>
      <point x="259" y="429"/>
      <point x="358" y="429" type="curve" smooth="yes"/>
      <point x="383" y="429" type="line"/>
      <point x="383" y="446" type="line" smooth="yes"/>
      <point x="383" y="544"/>
      <point x="329" y="612"/>
      <point x="232" y="612" type="curve" smooth="yes"/>
      <point x="155" y="612"/>
      <point x="105" y="572"/>
      <point x="105" y="498" type="curve" smooth="yes"/>
      <point x="105" y="493"/>
      <point x="105" y="485"/>
      <point x="106" y="476" type="curve"/>
      <point x="133" y="478" type="line"/>
      <point x="132" y="484"/>
      <point x="132" y="490"/>
      <point x="132" y="495" type="curve" smooth="yes"/>
      <point x="132" y="557"/>
      <point x="169" y="586"/>
      <point x="234" y="586" type="curve" smooth="yes"/>
      <point x="304" y="586"/>
      <point x="352" y="541"/>
      <point x="357" y="455" type="curve"/>
      <point x="30" y="455" type="line"/>
      <point x="30" y="429" type="line"/>
      <point x="121" y="429" type="line" smooth="yes"/>
      <point x="172" y="429"/>
      <point x="215" y="432"/>
      <point x="261" y="436" type="curve"/>
      <point x="255" y="436" type="line"/>
      <point x="100" y="412"/>
      <point x="43" y="315"/>
      <point x="43" y="203" type="curve" smooth="yes"/>
      <point x="43" y="65"/>
      <point x="112" y="-11"/>
      <point x="224" y="-11" type="curve" smooth="yes"/>
      <point x="314" y="-11"/>
      <point x="362" y="39"/>
      <point x="383" y="109" type="curve"/>
      <point x="401" y="39"/>
      <point x="456" y="-11"/>
    </contour>
  </outline>
</glyph>
<glyph name="ddhasinh" format="2">
  <advance width="802"/>
  <unicode hex="0DAA"/>
  <outline>
    <contour>
      <point x="547" y="-11" type="curve" smooth="yes"/>
      <point x="675" y="-11"/>
      <point x="759" y="70"/>
      <point x="759" y="307" type="curve" smooth="yes"/>
      <point x="759" y="565"/>
      <point x="635" y="721"/>
      <point x="384" y="836" type="curve"/>
      <point x="372" y="812" type="line"/>
      <point x="380" y="808"/>
      <point x="387" y="808"/>
      <point x="395" y="804" type="curve" smooth="yes"/>
      <point x="628" y="692"/>
      <point x="732" y="538"/>
      <point x="732" y="307" type="curve" smooth="yes"/>
      <point x="732" y="87"/>
      <point x="660" y="15"/>
      <point x="546" y="15" type="curve" smooth="yes"/>
      <point x="428" y="15"/>
      <point x="396" y="117"/>
      <point x="396" y="171" type="curve" smooth="yes"/>
      <point x="396" y="204" type="line"/>
      <point x="370" y="204" type="line"/>
      <point x="370" y="170" type="line" smooth="yes"/>
      <point x="370" y="109"/>
      <point x="334" y="15"/>
      <point x="223" y="15" type="curve" smooth="yes"/>
      <point x="136" y="15"/>
      <point x="70" y="71"/>
      <point x="70" y="203" type="curve" smooth="yes"/>
      <point x="70" y="266"/>
      <point x="89" y="313"/>
      <point x="121" y="348" type="curve" smooth="yes"/>
      <point x="172" y="404"/>
      <point x="259" y="429"/>
      <point x="358" y="429" type="curve" smooth="yes"/>
      <point x="383" y="429" type="line"/>
      <point x="383" y="446" type="line" smooth="yes"/>
      <point x="383" y="544"/>
      <point x="329" y="612"/>
      <point x="232" y="612" type="curve" smooth="yes"/>
      <point x="155" y="612"/>
      <point x="105" y="572"/>
      <point x="105" y="498" type="curve" smooth="yes"/>
      <point x="105" y="493"/>
      <point x="105" y="485"/>
      <point x="106" y="476" type="curve"/>
      <point x="133" y="478" type="line"/>
      <point x="132" y="484"/>
      <point x="132" y="490"/>
      <point x="132" y="495" type="curve" smooth="yes"/>
      <point x="132" y="557"/>
      <point x="169" y="586"/>
      <point x="234" y="586" type="curve" smooth="yes"/>
      <point x="304" y="586"/>
      <point x="352" y="541"/>
      <point x="357" y="455" type="curve"/>
      <point x="30" y="455" type="line"/>
      <point x="30" y="429" type="line"/>
      <point x="121" y="429" type="line" smooth="yes"/>
      <point x="172" y="429"/>
      <point x="215" y="432"/>
      <point x="261" y="436" type="curve"/>
      <point x="255" y="436" type="line"/>
      <point x="100" y="412"/>
      <point x="43" y="315"/>
      <point x="43" y="203" type="curve" smooth="yes"/>
      <point x="43" y="65"/>
      <point x="112" y="-11"/>
      <point x="224" y="-11" type="curve" smooth="yes"/>
      <point x="314" y="-11"/>
      <point x="362" y="39"/>
      <point x="383" y="109" type="curve"/>
      <point x="401" y="39"/>
      <point x="456" y="-11"/>
    </contour>
    <contour>
      <point x="505" y="540" type="curve" smooth="yes"/>
      <point x="572" y="540"/>
      <point x="617" y="581"/>
      <point x="641" y="641" type="curve"/>
      <point x="621" y="657" type="line"/>
      <point x="590" y="586"/>
      <point x="551" y="566"/>
      <point x="505" y="566" type="curve" smooth="yes"/>
      <point x="448" y="566"/>
      <point x="432" y="603"/>
      <point x="431" y="672" type="curve" smooth="yes"/>
      <point x="429" y="776"/>
      <point x="426" y="800"/>
      <point x="387" y="828" type="curve"/>
      <point x="372" y="812" type="line"/>
      <point x="402" y="790"/>
      <point x="403" y="765"/>
      <point x="405" y="666" type="curve" smooth="yes"/>
      <point x="407" y="565"/>
      <point x="452" y="540"/>
    </contour>
  </outline>
</glyph>
<glyph name="nnasinh" format="2">
  <advance width="1155"/>
  <unicode hex="0DAB"/>
  <outline>
    <contour>
      <point x="744" y="805" type="curve"/>
      <point x="726" y="825" type="line"/>
      <point x="646" y="755"/>
      <point x="561" y="675"/>
      <point x="471" y="592" type="curve" smooth="yes"/>
      <point x="460" y="583" type="line" smooth="yes"/>
      <point x="299" y="435"/>
      <point x="135" y="279"/>
      <point x="4" y="144" type="curve"/>
      <point x="24" y="125" type="line"/>
      <point x="65" y="168"/>
      <point x="110" y="214"/>
      <point x="156" y="260" type="curve" smooth="yes"/>
      <point x="162" y="266" type="line" smooth="yes"/>
      <point x="350" y="449"/>
      <point x="570" y="652"/>
    </contour>
    <contour>
      <point x="370" y="-11" type="curve" smooth="yes"/>
      <point x="566" y="-11"/>
      <point x="685" y="111"/>
      <point x="685" y="300" type="curve" smooth="yes"/>
      <point x="685" y="456"/>
      <point x="609" y="551"/>
      <point x="493" y="592" type="curve" smooth="yes"/>
      <point x="482" y="596" type="line" smooth="yes"/>
      <point x="447" y="607"/>
      <point x="409" y="612"/>
      <point x="370" y="612" type="curve" smooth="yes"/>
      <point x="215" y="612"/>
      <point x="102" y="528"/>
      <point x="102" y="395" type="curve" smooth="yes"/>
      <point x="102" y="272"/>
      <point x="183" y="176"/>
      <point x="353" y="176" type="curve" smooth="yes"/>
      <point x="440" y="176"/>
      <point x="490" y="214"/>
      <point x="490" y="283" type="curve" smooth="yes"/>
      <point x="490" y="338"/>
      <point x="457" y="378"/>
      <point x="396" y="378" type="curve" smooth="yes"/>
      <point x="334" y="378"/>
      <point x="297" y="342"/>
      <point x="297" y="283" type="curve" smooth="yes"/>
      <point x="297" y="248"/>
      <point x="309" y="219"/>
      <point x="328" y="194" type="curve"/>
      <point x="356" y="196" type="line"/>
      <point x="338" y="217"/>
      <point x="324" y="247"/>
      <point x="324" y="280" type="curve" smooth="yes"/>
      <point x="324" y="321"/>
      <point x="342" y="352"/>
      <point x="397" y="352" type="curve" smooth="yes"/>
      <point x="449" y="352"/>
      <point x="463" y="314"/>
      <point x="463" y="283" type="curve" smooth="yes"/>
      <point x="463" y="236"/>
      <point x="434" y="202"/>
      <point x="358" y="202" type="curve" smooth="yes"/>
      <point x="351" y="202"/>
      <point x="345" y="202"/>
      <point x="339" y="202" type="curve" smooth="yes"/>
      <point x="330" y="202" type="line" smooth="yes"/>
      <point x="246" y="207"/>
      <point x="193" y="237"/>
      <point x="162" y="280" type="curve"/>
      <point x="157" y="287" type="line"/>
      <point x="136" y="319"/>
      <point x="128" y="358"/>
      <point x="128" y="395" type="curve" smooth="yes"/>
      <point x="128" y="516"/>
      <point x="236" y="586"/>
      <point x="369" y="586" type="curve" smooth="yes"/>
      <point x="507" y="586"/>
      <point x="658" y="513"/>
      <point x="658" y="301" type="curve" smooth="yes"/>
      <point x="658" y="119"/>
      <point x="546" y="15"/>
      <point x="369" y="15" type="curve" smooth="yes"/>
      <point x="226" y="15"/>
      <point x="140" y="83"/>
      <point x="65" y="182" type="curve"/>
      <point x="45" y="163" type="line"/>
      <point x="125" y="62"/>
      <point x="216" y="-11"/>
    </contour>
    <contour>
      <point x="954" y="-11" type="curve" smooth="yes"/>
      <point x="1059" y="-11"/>
      <point x="1111" y="66"/>
      <point x="1111" y="275" type="curve" smooth="yes"/>
      <point x="1111" y="447"/>
      <point x="1065" y="556"/>
      <point x="965" y="556" type="curve" smooth="yes"/>
      <point x="906" y="556"/>
      <point x="855" y="516"/>
      <point x="840" y="441" type="curve"/>
      <point x="824" y="503"/>
      <point x="792" y="529"/>
      <point x="740" y="529" type="curve" smooth="yes"/>
      <point x="694" y="529"/>
      <point x="656" y="502"/>
      <point x="626" y="453" type="curve"/>
      <point x="642" y="435" type="line"/>
      <point x="673" y="488"/>
      <point x="704" y="505"/>
      <point x="740" y="505" type="curve" smooth="yes"/>
      <point x="819" y="505"/>
      <point x="828" y="419"/>
      <point x="828" y="370" type="curve" smooth="yes"/>
      <point x="828" y="350" type="line"/>
      <point x="854" y="350" type="line"/>
      <point x="854" y="371" type="line" smooth="yes"/>
      <point x="854" y="419"/>
      <point x="869" y="530"/>
      <point x="962" y="530" type="curve" smooth="yes"/>
      <point x="1055" y="530"/>
      <point x="1084" y="414"/>
      <point x="1084" y="276" type="curve" smooth="yes"/>
      <point x="1084" y="93"/>
      <point x="1047" y="15"/>
      <point x="957" y="15" type="curve" smooth="yes"/>
      <point x="886" y="15"/>
      <point x="855" y="61"/>
      <point x="830" y="125" type="curve"/>
      <point x="806" y="114" type="line"/>
      <point x="833" y="47"/>
      <point x="870" y="-11"/>
    </contour>
  </outline>
</glyph>
<glyph name="nnddasinh" format="2">
  <advance width="909"/>
  <unicode hex="0DAC"/>
  <outline>
    <contour>
      <point x="651" y="-11" type="curve" smooth="yes"/>
      <point x="778" y="-11"/>
      <point x="865" y="80"/>
      <point x="865" y="348" type="curve" smooth="yes"/>
      <point x="865" y="701"/>
      <point x="705" y="836"/>
      <point x="468" y="836" type="curve" smooth="yes"/>
      <point x="340" y="836"/>
      <point x="253" y="803"/>
      <point x="164" y="759" type="curve"/>
      <point x="175" y="735" type="line"/>
      <point x="261" y="779"/>
      <point x="340" y="810"/>
      <point x="466" y="810" type="curve" smooth="yes"/>
      <point x="714" y="810"/>
      <point x="838" y="655"/>
      <point x="838" y="347" type="curve" smooth="yes"/>
      <point x="838" y="99"/>
      <point x="766" y="15"/>
      <point x="650" y="15" type="curve" smooth="yes"/>
      <point x="536" y="15"/>
      <point x="504" y="117"/>
      <point x="504" y="171" type="curve" smooth="yes"/>
      <point x="504" y="204" type="line"/>
      <point x="478" y="204" type="line"/>
      <point x="478" y="170" type="line" smooth="yes"/>
      <point x="478" y="109"/>
      <point x="442" y="15"/>
      <point x="331" y="15" type="curve" smooth="yes"/>
      <point x="244" y="15"/>
      <point x="178" y="71"/>
      <point x="178" y="203" type="curve" smooth="yes"/>
      <point x="178" y="266"/>
      <point x="197" y="313"/>
      <point x="229" y="348" type="curve" smooth="yes"/>
      <point x="280" y="404"/>
      <point x="367" y="429"/>
      <point x="466" y="429" type="curve" smooth="yes"/>
      <point x="491" y="429" type="line"/>
      <point x="491" y="446" type="line" smooth="yes"/>
      <point x="491" y="544"/>
      <point x="437" y="612"/>
      <point x="340" y="612" type="curve" smooth="yes"/>
      <point x="263" y="612"/>
      <point x="213" y="566"/>
      <point x="213" y="498" type="curve" smooth="yes"/>
      <point x="213" y="493"/>
      <point x="213" y="485"/>
      <point x="214" y="476" type="curve"/>
      <point x="241" y="478" type="line"/>
      <point x="240" y="484"/>
      <point x="240" y="490"/>
      <point x="240" y="495" type="curve" smooth="yes"/>
      <point x="240" y="557"/>
      <point x="277" y="586"/>
      <point x="342" y="586" type="curve" smooth="yes"/>
      <point x="412" y="586"/>
      <point x="460" y="541"/>
      <point x="465" y="455" type="curve"/>
      <point x="138" y="455" type="line"/>
      <point x="138" y="429" type="line"/>
      <point x="229" y="429" type="line" smooth="yes"/>
      <point x="280" y="429"/>
      <point x="323" y="432"/>
      <point x="369" y="436" type="curve"/>
      <point x="363" y="436" type="line"/>
      <point x="208" y="412"/>
      <point x="151" y="315"/>
      <point x="151" y="203" type="curve" smooth="yes"/>
      <point x="151" y="65"/>
      <point x="220" y="-11"/>
      <point x="332" y="-11" type="curve" smooth="yes"/>
      <point x="422" y="-11"/>
      <point x="470" y="39"/>
      <point x="491" y="109" type="curve"/>
      <point x="509" y="39"/>
      <point x="564" y="-11"/>
    </contour>
    <contour>
      <point x="40" y="328" type="curve" smooth="yes"/>
      <point x="40" y="231"/>
      <point x="70" y="153"/>
      <point x="108" y="83" type="curve"/>
      <point x="132" y="96" type="line"/>
      <point x="92" y="165"/>
      <point x="67" y="239"/>
      <point x="67" y="327" type="curve" smooth="yes"/>
      <point x="67" y="493"/>
      <point x="170" y="587"/>
      <point x="323" y="587" type="curve" smooth="yes"/>
      <point x="351" y="587"/>
      <point x="363" y="587"/>
      <point x="376" y="586" type="curve"/>
      <point x="393" y="604" type="line"/>
      <point x="373" y="609"/>
      <point x="354" y="612"/>
      <point x="326" y="612" type="curve" smooth="yes"/>
      <point x="161" y="612"/>
      <point x="40" y="512"/>
    </contour>
  </outline>
</glyph>
<glyph name="thasinh" format="2">
  <advance width="744"/>
  <unicode hex="0DAE"/>
  <outline>
    <contour>
      <point x="330" y="-11" type="curve" smooth="yes"/>
      <point x="600" y="-11"/>
      <point x="703" y="192"/>
      <point x="703" y="406" type="curve" smooth="yes"/>
      <point x="703" y="530"/>
      <point x="672" y="738"/>
      <point x="372" y="836" type="curve"/>
      <point x="363" y="811" type="line"/>
      <point x="372" y="808"/>
      <point x="382" y="805"/>
      <point x="391" y="802" type="curve" smooth="yes"/>
      <point x="582" y="730"/>
      <point x="676" y="606"/>
      <point x="676" y="408" type="curve" smooth="yes"/>
      <point x="676" y="207"/>
      <point x="586" y="15"/>
      <point x="328" y="15" type="curve" smooth="yes"/>
      <point x="164" y="15"/>
      <point x="68" y="96"/>
      <point x="68" y="242" type="curve" smooth="yes"/>
      <point x="68" y="399"/>
      <point x="181" y="460"/>
      <point x="290" y="460" type="curve" smooth="yes"/>
      <point x="322" y="460"/>
      <point x="362" y="458"/>
      <point x="390" y="453" type="curve"/>
      <point x="394" y="478" type="line"/>
      <point x="369" y="483"/>
      <point x="337" y="486"/>
      <point x="291" y="486" type="curve" smooth="yes"/>
      <point x="167" y="486"/>
      <point x="41" y="415"/>
      <point x="41" y="240" type="curve" smooth="yes"/>
      <point x="41" y="88"/>
      <point x="140" y="-11"/>
    </contour>
    <contour>
      <point x="497" y="540" type="curve" smooth="yes"/>
      <point x="564" y="540"/>
      <point x="609" y="581"/>
      <point x="633" y="641" type="curve"/>
      <point x="613" y="657" type="line"/>
      <point x="582" y="586"/>
      <point x="543" y="566"/>
      <point x="497" y="566" type="curve" smooth="yes"/>
      <point x="440" y="566"/>
      <point x="424" y="603"/>
      <point x="423" y="672" type="curve" smooth="yes"/>
      <point x="421" y="776"/>
      <point x="418" y="800"/>
      <point x="379" y="828" type="curve"/>
      <point x="364" y="812" type="line"/>
      <point x="394" y="790"/>
      <point x="395" y="765"/>
      <point x="397" y="666" type="curve" smooth="yes"/>
      <point x="399" y="565"/>
      <point x="444" y="540"/>
    </contour>
  </outline>
</glyph>
<glyph name="dasinh" format="2">
  <advance width="529"/>
  <unicode hex="0DAF"/>
  <outline>
    <contour>
      <point x="317" y="-11" type="curve" smooth="yes"/>
      <point x="394" y="-11"/>
      <point x="453" y="2"/>
      <point x="519" y="38" type="curve"/>
      <point x="507" y="61" type="line"/>
      <point x="442" y="28"/>
      <point x="396" y="15"/>
      <point x="319" y="15" type="curve" smooth="yes"/>
      <point x="157" y="15"/>
      <point x="67" y="90"/>
      <point x="67" y="232" type="curve" smooth="yes"/>
      <point x="67" y="307"/>
      <point x="94" y="357"/>
      <point x="142" y="387" type="curve" smooth="yes"/>
      <point x="190" y="418"/>
      <point x="252" y="429"/>
      <point x="368" y="429" type="curve" smooth="yes"/>
      <point x="497" y="429" type="line"/>
      <point x="497" y="445" type="line" smooth="yes"/>
      <point x="497" y="545"/>
      <point x="444" y="612"/>
      <point x="342" y="612" type="curve" smooth="yes"/>
      <point x="258" y="612"/>
      <point x="212" y="568"/>
      <point x="212" y="500" type="curve" smooth="yes"/>
      <point x="212" y="492"/>
      <point x="212" y="481"/>
      <point x="214" y="470" type="curve"/>
      <point x="241" y="473" type="line"/>
      <point x="240" y="480"/>
      <point x="239" y="489"/>
      <point x="239" y="498" type="curve" smooth="yes"/>
      <point x="239" y="556"/>
      <point x="276" y="586"/>
      <point x="342" y="586" type="curve" smooth="yes"/>
      <point x="418" y="586"/>
      <point x="468" y="540"/>
      <point x="471" y="455" type="curve"/>
      <point x="353" y="455" type="line" smooth="yes"/>
      <point x="236" y="455"/>
      <point x="174" y="441"/>
      <point x="120" y="404" type="curve" smooth="yes"/>
      <point x="70" y="370"/>
      <point x="40" y="314"/>
      <point x="40" y="232" type="curve" smooth="yes"/>
      <point x="40" y="79"/>
      <point x="139" y="-11"/>
    </contour>
    <contour>
      <point x="473" y="-271" type="curve" smooth="yes"/>
      <point x="492" y="-271"/>
      <point x="527" y="-268"/>
      <point x="547" y="-257" type="curve"/>
      <point x="541" y="-233" type="line"/>
      <point x="523" y="-240"/>
      <point x="497" y="-245"/>
      <point x="473" y="-245" type="curve" smooth="yes"/>
      <point x="384" y="-245"/>
      <point x="356" y="-197"/>
      <point x="356" y="-142" type="curve" smooth="yes"/>
      <point x="356" y="-80"/>
      <point x="398" y="-27"/>
      <point x="456" y="13" type="curve"/>
      <point x="437" y="19" type="line"/>
      <point x="420" y="15" type="line"/>
      <point x="370" y="-23"/>
      <point x="329" y="-75"/>
      <point x="329" y="-142" type="curve" smooth="yes"/>
      <point x="329" y="-209"/>
      <point x="368" y="-271"/>
    </contour>
  </outline>
</glyph>
<glyph name="dhasinh" format="2">
  <advance width="789"/>
  <unicode hex="0DB0"/>
  <outline>
    <contour>
      <point x="531" y="-11" type="curve" smooth="yes"/>
      <point x="659" y="-11"/>
      <point x="745" y="80"/>
      <point x="745" y="337" type="curve" smooth="yes"/>
      <point x="745" y="705"/>
      <point x="592" y="836"/>
      <point x="353" y="836" type="curve" smooth="yes"/>
      <point x="225" y="836"/>
      <point x="143" y="802"/>
      <point x="56" y="760" type="curve"/>
      <point x="67" y="736" type="line"/>
      <point x="153" y="780"/>
      <point x="235" y="810"/>
      <point x="352" y="810" type="curve" smooth="yes"/>
      <point x="601" y="810"/>
      <point x="718" y="660"/>
      <point x="718" y="337" type="curve" smooth="yes"/>
      <point x="718" y="99"/>
      <point x="646" y="15"/>
      <point x="530" y="15" type="curve" smooth="yes"/>
      <point x="416" y="15"/>
      <point x="384" y="117"/>
      <point x="384" y="171" type="curve" smooth="yes"/>
      <point x="384" y="204" type="line"/>
      <point x="358" y="204" type="line"/>
      <point x="358" y="170" type="line" smooth="yes"/>
      <point x="358" y="112"/>
      <point x="324" y="15"/>
      <point x="222" y="15" type="curve" smooth="yes"/>
      <point x="128" y="15"/>
      <point x="68" y="85"/>
      <point x="68" y="221" type="curve" smooth="yes"/>
      <point x="68" y="375"/>
      <point x="164" y="460"/>
      <point x="304" y="460" type="curve" smooth="yes"/>
      <point x="332" y="460"/>
      <point x="361" y="458"/>
      <point x="383" y="455" type="curve"/>
      <point x="386" y="481" type="line"/>
      <point x="359" y="485"/>
      <point x="332" y="486"/>
      <point x="304" y="486" type="curve" smooth="yes"/>
      <point x="133" y="486"/>
      <point x="41" y="373"/>
      <point x="41" y="223" type="curve" smooth="yes"/>
      <point x="41" y="65"/>
      <point x="117" y="-11"/>
      <point x="216" y="-11" type="curve" smooth="yes"/>
      <point x="306" y="-11"/>
      <point x="355" y="43"/>
      <point x="371" y="109" type="curve"/>
      <point x="389" y="39"/>
      <point x="444" y="-11"/>
    </contour>
  </outline>
</glyph>
<glyph name="nasinh" format="2">
  <advance width="900"/>
  <unicode hex="0DB1"/>
  <outline>
    <contour>
      <point x="350" y="-11" type="curve" smooth="yes"/>
      <point x="534" y="-11"/>
      <point x="606" y="99"/>
      <point x="606" y="231" type="curve" smooth="yes"/>
      <point x="606" y="395"/>
      <point x="500" y="448"/>
      <point x="395" y="448" type="curve" smooth="yes"/>
      <point x="354" y="448"/>
      <point x="324" y="442"/>
      <point x="304" y="438" type="curve"/>
      <point x="303" y="414" type="line"/>
      <point x="326" y="418"/>
      <point x="357" y="422"/>
      <point x="396" y="422" type="curve" smooth="yes"/>
      <point x="490" y="422"/>
      <point x="579" y="376"/>
      <point x="579" y="231" type="curve" smooth="yes"/>
      <point x="579" y="110"/>
      <point x="516" y="15"/>
      <point x="350" y="15" type="curve" smooth="yes"/>
      <point x="172" y="15"/>
      <point x="82" y="128"/>
      <point x="57" y="307" type="curve"/>
      <point x="30" y="303" type="line"/>
      <point x="65" y="82"/>
      <point x="180" y="-11"/>
    </contour>
    <contour>
      <point x="633" y="-3" type="curve" smooth="yes"/>
      <point x="778" y="-3"/>
      <point x="859" y="92"/>
      <point x="859" y="281" type="curve" smooth="yes"/>
      <point x="859" y="493"/>
      <point x="745" y="612"/>
      <point x="573" y="612" type="curve" smooth="yes"/>
      <point x="428" y="612"/>
      <point x="343" y="526"/>
      <point x="298" y="446" type="curve"/>
      <point x="292" y="435" type="line"/>
      <point x="251" y="281"/>
      <point x="175" y="257"/>
      <point x="99" y="257" type="curve" smooth="yes"/>
      <point x="83" y="257"/>
      <point x="65" y="258"/>
      <point x="47" y="263" type="curve"/>
      <point x="47" y="240" type="line"/>
      <point x="62" y="234"/>
      <point x="85" y="231"/>
      <point x="98" y="231" type="curve" smooth="yes"/>
      <point x="192" y="231"/>
      <point x="273" y="268"/>
      <point x="316" y="425" type="curve"/>
      <point x="318" y="434" type="line"/>
      <point x="369" y="508"/>
      <point x="437" y="586"/>
      <point x="573" y="586" type="curve" smooth="yes"/>
      <point x="723" y="586"/>
      <point x="832" y="483"/>
      <point x="832" y="283" type="curve" smooth="yes"/>
      <point x="832" y="118"/>
      <point x="772" y="23"/>
      <point x="633" y="23" type="curve" smooth="yes"/>
      <point x="617" y="23"/>
      <point x="596" y="24"/>
      <point x="579" y="28" type="curve"/>
      <point x="576" y="2" type="line"/>
      <point x="595" y="-1"/>
      <point x="612" y="-3"/>
    </contour>
    <contour>
      <point x="185" y="591" type="curve" smooth="yes"/>
      <point x="121" y="591"/>
      <point x="77" y="548"/>
      <point x="77" y="473" type="curve" smooth="yes"/>
      <point x="77" y="455"/>
      <point x="81" y="421"/>
      <point x="89" y="395" type="curve"/>
      <point x="115" y="400" type="line"/>
      <point x="109" y="421"/>
      <point x="104" y="445"/>
      <point x="104" y="473" type="curve" smooth="yes"/>
      <point x="104" y="538"/>
      <point x="139" y="565"/>
      <point x="185" y="565" type="curve" smooth="yes"/>
      <point x="242" y="565"/>
      <point x="275" y="525"/>
      <point x="298" y="393" type="curve"/>
      <point x="313" y="428" type="line"/>
      <point x="296" y="540"/>
      <point x="254" y="591"/>
    </contour>
  </outline>
</glyph>
<glyph name="ndasinh" format="2">
  <advance width="607"/>
  <unicode hex="0DB3"/>
  <outline>
    <contour>
      <point x="405" y="-11" type="curve" smooth="yes"/>
      <point x="478" y="-11"/>
      <point x="534" y="2"/>
      <point x="597" y="38" type="curve"/>
      <point x="585" y="61" type="line"/>
      <point x="523" y="28"/>
      <point x="480" y="15"/>
      <point x="407" y="15" type="curve" smooth="yes"/>
      <point x="253" y="15"/>
      <point x="168" y="90"/>
      <point x="168" y="232" type="curve" smooth="yes"/>
      <point x="168" y="307"/>
      <point x="194" y="357"/>
      <point x="239" y="387" type="curve" smooth="yes"/>
      <point x="284" y="418"/>
      <point x="345" y="429"/>
      <point x="461" y="429" type="curve" smooth="yes"/>
      <point x="575" y="429" type="line"/>
      <point x="575" y="445" type="line" smooth="yes"/>
      <point x="575" y="545"/>
      <point x="522" y="612"/>
      <point x="420" y="612" type="curve" smooth="yes"/>
      <point x="336" y="612"/>
      <point x="290" y="562"/>
      <point x="290" y="500" type="curve" smooth="yes"/>
      <point x="290" y="492"/>
      <point x="290" y="481"/>
      <point x="292" y="470" type="curve"/>
      <point x="319" y="473" type="line"/>
      <point x="318" y="480"/>
      <point x="317" y="489"/>
      <point x="317" y="498" type="curve" smooth="yes"/>
      <point x="317" y="556"/>
      <point x="354" y="586"/>
      <point x="420" y="586" type="curve" smooth="yes"/>
      <point x="496" y="586"/>
      <point x="546" y="540"/>
      <point x="549" y="455" type="curve"/>
      <point x="444" y="455" type="line" smooth="yes"/>
      <point x="329" y="455"/>
      <point x="268" y="441"/>
      <point x="217" y="404" type="curve" smooth="yes"/>
      <point x="169" y="370"/>
      <point x="141" y="312"/>
      <point x="141" y="232" type="curve" smooth="yes"/>
      <point x="141" y="79"/>
      <point x="234" y="-11"/>
    </contour>
    <contour>
      <point x="551" y="-271" type="curve" smooth="yes"/>
      <point x="570" y="-271"/>
      <point x="605" y="-268"/>
      <point x="625" y="-257" type="curve"/>
      <point x="619" y="-233" type="line"/>
      <point x="601" y="-240"/>
      <point x="575" y="-245"/>
      <point x="551" y="-245" type="curve" smooth="yes"/>
      <point x="462" y="-245"/>
      <point x="434" y="-197"/>
      <point x="434" y="-142" type="curve" smooth="yes"/>
      <point x="434" y="-80"/>
      <point x="476" y="-27"/>
      <point x="534" y="13" type="curve"/>
      <point x="515" y="19" type="line"/>
      <point x="498" y="15" type="line"/>
      <point x="448" y="-23"/>
      <point x="407" y="-75"/>
      <point x="407" y="-142" type="curve" smooth="yes"/>
      <point x="407" y="-209"/>
      <point x="446" y="-271"/>
    </contour>
    <contour>
      <point x="40" y="328" type="curve" smooth="yes"/>
      <point x="40" y="231"/>
      <point x="70" y="153"/>
      <point x="108" y="83" type="curve"/>
      <point x="132" y="96" type="line"/>
      <point x="92" y="165"/>
      <point x="67" y="239"/>
      <point x="67" y="327" type="curve" smooth="yes"/>
      <point x="67" y="493"/>
      <point x="170" y="587"/>
      <point x="335" y="587" type="curve" smooth="yes"/>
      <point x="347" y="587"/>
      <point x="362" y="585"/>
      <point x="375" y="583" type="curve"/>
      <point x="413" y="601" type="line"/>
      <point x="380" y="609"/>
      <point x="355" y="612"/>
      <point x="329" y="612" type="curve" smooth="yes"/>
      <point x="163" y="612"/>
      <point x="40" y="512"/>
    </contour>
  </outline>
</glyph>
<glyph name="pasinh" format="2">
  <advance width="743"/>
  <unicode hex="0DB4"/>
  <outline>
    <contour>
      <point x="371" y="-11" type="curve" smooth="yes"/>
      <point x="595" y="-11"/>
      <point x="702" y="96"/>
      <point x="702" y="251" type="curve" smooth="yes"/>
      <point x="702" y="385"/>
      <point x="624" y="455"/>
      <point x="444" y="455" type="curve" smooth="yes"/>
      <point x="409" y="455" type="line"/>
      <point x="415" y="452" type="line"/>
      <point x="418" y="539"/>
      <point x="468" y="586"/>
      <point x="538" y="586" type="curve" smooth="yes"/>
      <point x="603" y="586"/>
      <point x="640" y="557"/>
      <point x="640" y="495" type="curve" smooth="yes"/>
      <point x="640" y="479"/>
      <point x="637" y="462"/>
      <point x="635" y="452" type="curve"/>
      <point x="661" y="449" type="line"/>
      <point x="665" y="462"/>
      <point x="667" y="486"/>
      <point x="667" y="498" type="curve" smooth="yes"/>
      <point x="667" y="569"/>
      <point x="619" y="612"/>
      <point x="540" y="612" type="curve" smooth="yes"/>
      <point x="443" y="612"/>
      <point x="389" y="543"/>
      <point x="389" y="446" type="curve" smooth="yes"/>
      <point x="389" y="429" type="line"/>
      <point x="440" y="429" type="line" smooth="yes"/>
      <point x="534" y="429"/>
      <point x="584" y="414"/>
      <point x="620" y="386" type="curve" smooth="yes"/>
      <point x="658" y="356"/>
      <point x="675" y="311"/>
      <point x="675" y="253" type="curve" smooth="yes"/>
      <point x="675" y="118"/>
      <point x="588" y="15"/>
      <point x="371" y="15" type="curve" smooth="yes"/>
      <point x="155" y="15"/>
      <point x="68" y="116"/>
      <point x="68" y="253" type="curve" smooth="yes"/>
      <point x="68" y="311"/>
      <point x="85" y="356"/>
      <point x="123" y="386" type="curve" smooth="yes"/>
      <point x="159" y="414"/>
      <point x="209" y="429"/>
      <point x="303" y="429" type="curve" smooth="yes"/>
      <point x="354" y="429" type="line"/>
      <point x="354" y="446" type="line" smooth="yes"/>
      <point x="354" y="544"/>
      <point x="300" y="612"/>
      <point x="203" y="612" type="curve" smooth="yes"/>
      <point x="126" y="612"/>
      <point x="76" y="572"/>
      <point x="76" y="498" type="curve" smooth="yes"/>
      <point x="76" y="486"/>
      <point x="78" y="462"/>
      <point x="82" y="449" type="curve"/>
      <point x="108" y="452" type="line"/>
      <point x="106" y="462"/>
      <point x="103" y="478"/>
      <point x="103" y="495" type="curve" smooth="yes"/>
      <point x="103" y="557"/>
      <point x="140" y="586"/>
      <point x="205" y="586" type="curve" smooth="yes"/>
      <point x="275" y="586"/>
      <point x="325" y="540"/>
      <point x="328" y="452" type="curve"/>
      <point x="336" y="455" type="line"/>
      <point x="299" y="455" type="line" smooth="yes"/>
      <point x="119" y="455"/>
      <point x="41" y="385"/>
      <point x="41" y="251" type="curve" smooth="yes"/>
      <point x="41" y="95"/>
      <point x="147" y="-11"/>
    </contour>
  </outline>
</glyph>
<glyph name="phasinh" format="2">
  <advance width="765"/>
  <unicode hex="0DB5"/>
  <outline>
    <contour>
      <point x="341" y="-11" type="curve" smooth="yes"/>
      <point x="605" y="-11"/>
      <point x="724" y="186"/>
      <point x="724" y="404" type="curve" smooth="yes"/>
      <point x="724" y="530"/>
      <point x="693" y="738"/>
      <point x="393" y="836" type="curve"/>
      <point x="384" y="811" type="line"/>
      <point x="393" y="808"/>
      <point x="403" y="805"/>
      <point x="412" y="802" type="curve" smooth="yes"/>
      <point x="603" y="730"/>
      <point x="697" y="606"/>
      <point x="697" y="404" type="curve" smooth="yes"/>
      <point x="697" y="201"/>
      <point x="591" y="15"/>
      <point x="340" y="15" type="curve" smooth="yes"/>
      <point x="173" y="15"/>
      <point x="68" y="88"/>
      <point x="68" y="244" type="curve" smooth="yes"/>
      <point x="68" y="304"/>
      <point x="87" y="343"/>
      <point x="119" y="372" type="curve" smooth="yes"/>
      <point x="161" y="410"/>
      <point x="212" y="429"/>
      <point x="329" y="429" type="curve" smooth="yes"/>
      <point x="403" y="429" type="line"/>
      <point x="403" y="447" type="line" smooth="yes"/>
      <point x="403" y="544"/>
      <point x="349" y="612"/>
      <point x="252" y="612" type="curve" smooth="yes"/>
      <point x="175" y="612"/>
      <point x="125" y="572"/>
      <point x="125" y="498" type="curve" smooth="yes"/>
      <point x="125" y="486"/>
      <point x="127" y="470"/>
      <point x="129" y="461" type="curve"/>
      <point x="155" y="464" type="line"/>
      <point x="153" y="474"/>
      <point x="152" y="483"/>
      <point x="152" y="496" type="curve" smooth="yes"/>
      <point x="152" y="557"/>
      <point x="190" y="586"/>
      <point x="254" y="586" type="curve" smooth="yes"/>
      <point x="317" y="586"/>
      <point x="372" y="548"/>
      <point x="377" y="455" type="curve"/>
      <point x="329" y="455" type="line" smooth="yes"/>
      <point x="212" y="455"/>
      <point x="146" y="433"/>
      <point x="99" y="389" type="curve" smooth="yes"/>
      <point x="62" y="354"/>
      <point x="41" y="307"/>
      <point x="41" y="244" type="curve" smooth="yes"/>
      <point x="41" y="74"/>
      <point x="157" y="-11"/>
    </contour>
    <contour>
      <point x="518" y="540" type="curve" smooth="yes"/>
      <point x="585" y="540"/>
      <point x="630" y="581"/>
      <point x="654" y="641" type="curve"/>
      <point x="634" y="657" type="line"/>
      <point x="603" y="586"/>
      <point x="564" y="566"/>
      <point x="518" y="566" type="curve" smooth="yes"/>
      <point x="461" y="566"/>
      <point x="445" y="603"/>
      <point x="444" y="672" type="curve" smooth="yes"/>
      <point x="442" y="776"/>
      <point x="439" y="800"/>
      <point x="400" y="828" type="curve"/>
      <point x="385" y="812" type="line"/>
      <point x="415" y="790"/>
      <point x="416" y="765"/>
      <point x="418" y="666" type="curve" smooth="yes"/>
      <point x="420" y="565"/>
      <point x="465" y="540"/>
    </contour>
  </outline>
</glyph>
<glyph name="basinh" format="2">
  <advance width="816"/>
  <unicode hex="0DB6"/>
  <outline>
    <contour>
      <point x="538" y="-11" type="curve" smooth="yes"/>
      <point x="672" y="-11"/>
      <point x="774" y="140"/>
      <point x="774" y="378" type="curve" smooth="yes"/>
      <point x="774" y="667"/>
      <point x="628" y="836"/>
      <point x="375" y="836" type="curve" smooth="yes"/>
      <point x="234" y="836"/>
      <point x="149" y="807"/>
      <point x="53" y="759" type="curve"/>
      <point x="65" y="736" type="line"/>
      <point x="160" y="783"/>
      <point x="247" y="810"/>
      <point x="372" y="810" type="curve" smooth="yes"/>
      <point x="606" y="810"/>
      <point x="747" y="652"/>
      <point x="747" y="378" type="curve" smooth="yes"/>
      <point x="747" y="151"/>
      <point x="653" y="15"/>
      <point x="539" y="15" type="curve" smooth="yes"/>
      <point x="482" y="15"/>
      <point x="452" y="40"/>
      <point x="452" y="100" type="curve" smooth="yes"/>
      <point x="452" y="142"/>
      <point x="468" y="182"/>
      <point x="484" y="222" type="curve" smooth="yes"/>
      <point x="501" y="266"/>
      <point x="519" y="311"/>
      <point x="519" y="363" type="curve" smooth="yes"/>
      <point x="519" y="451"/>
      <point x="475" y="547"/>
      <point x="317" y="547" type="curve" smooth="yes"/>
      <point x="173" y="547"/>
      <point x="43" y="442"/>
      <point x="43" y="242" type="curve" smooth="yes"/>
      <point x="43" y="122"/>
      <point x="95" y="-11"/>
      <point x="231" y="-11" type="curve" smooth="yes"/>
      <point x="318" y="-11"/>
      <point x="360" y="38"/>
      <point x="360" y="99" type="curve" smooth="yes"/>
      <point x="360" y="162"/>
      <point x="320" y="206"/>
      <point x="249" y="206" type="curve" smooth="yes"/>
      <point x="176" y="206"/>
      <point x="127" y="158"/>
      <point x="84" y="109" type="curve"/>
      <point x="97" y="83" type="line"/>
      <point x="140" y="137"/>
      <point x="186" y="180"/>
      <point x="247" y="180" type="curve" smooth="yes"/>
      <point x="309" y="180"/>
      <point x="333" y="144"/>
      <point x="333" y="99" type="curve" smooth="yes"/>
      <point x="333" y="58"/>
      <point x="310" y="15"/>
      <point x="232" y="15" type="curve" smooth="yes"/>
      <point x="162" y="15"/>
      <point x="121" y="54"/>
      <point x="97" y="105" type="curve" smooth="yes"/>
      <point x="77" y="148"/>
      <point x="70" y="200"/>
      <point x="70" y="243" type="curve" smooth="yes"/>
      <point x="70" y="424"/>
      <point x="186" y="521"/>
      <point x="315" y="521" type="curve" smooth="yes"/>
      <point x="419" y="521"/>
      <point x="492" y="476"/>
      <point x="492" y="363" type="curve" smooth="yes"/>
      <point x="492" y="320"/>
      <point x="480" y="283"/>
      <point x="460" y="232" type="curve" smooth="yes"/>
      <point x="438" y="176"/>
      <point x="425" y="139"/>
      <point x="425" y="100" type="curve" smooth="yes"/>
      <point x="425" y="67"/>
      <point x="437" y="-11"/>
    </contour>
  </outline>
</glyph>
<glyph name="mbasinh" format="2">
  <advance width="838"/>
  <unicode hex="0DB9"/>
  <outline>
    <contour>
      <point x="271" y="-11" type="curve" smooth="yes"/>
      <point x="304" y="-11"/>
      <point x="335" y="-6"/>
      <point x="356" y="3" type="curve"/>
      <point x="347" y="26" type="line"/>
      <point x="323" y="17"/>
      <point x="299" y="15"/>
      <point x="269" y="15" type="curve" smooth="yes"/>
      <point x="150" y="15"/>
      <point x="71" y="101"/>
      <point x="71" y="290" type="curve" smooth="yes"/>
      <point x="71" y="453"/>
      <point x="144" y="550"/>
      <point x="211" y="550" type="curve" smooth="yes"/>
      <point x="248" y="550"/>
      <point x="252" y="526"/>
      <point x="252" y="497" type="curve" smooth="yes"/>
      <point x="252" y="476"/>
      <point x="244" y="436"/>
      <point x="244" y="393" type="curve" smooth="yes"/>
      <point x="244" y="322"/>
      <point x="283" y="254"/>
      <point x="400" y="254" type="curve" smooth="yes"/>
      <point x="503" y="254"/>
      <point x="576" y="311"/>
      <point x="576" y="426" type="curve" smooth="yes"/>
      <point x="576" y="528"/>
      <point x="517" y="576"/>
      <point x="450" y="576" type="curve" smooth="yes"/>
      <point x="374" y="576"/>
      <point x="340" y="527"/>
      <point x="340" y="477" type="curve" smooth="yes"/>
      <point x="340" y="417"/>
      <point x="377" y="379"/>
      <point x="442" y="379" type="curve" smooth="yes"/>
      <point x="498" y="379"/>
      <point x="527" y="399"/>
      <point x="566" y="433" type="curve"/>
      <point x="554" y="452" type="line"/>
      <point x="518" y="420"/>
      <point x="489" y="405"/>
      <point x="443" y="405" type="curve" smooth="yes"/>
      <point x="397" y="405"/>
      <point x="367" y="428"/>
      <point x="367" y="476" type="curve" smooth="yes"/>
      <point x="367" y="520"/>
      <point x="395" y="550"/>
      <point x="451" y="550" type="curve" smooth="yes"/>
      <point x="507" y="550"/>
      <point x="550" y="506"/>
      <point x="550" y="426" type="curve" smooth="yes"/>
      <point x="550" y="319"/>
      <point x="480" y="280"/>
      <point x="397" y="280" type="curve" smooth="yes"/>
      <point x="303" y="280"/>
      <point x="270" y="332"/>
      <point x="270" y="395" type="curve" smooth="yes"/>
      <point x="270" y="443"/>
      <point x="279" y="478"/>
      <point x="279" y="508" type="curve" smooth="yes"/>
      <point x="279" y="539"/>
      <point x="263" y="576"/>
      <point x="214" y="576" type="curve" smooth="yes"/>
      <point x="125" y="576"/>
      <point x="44" y="468"/>
      <point x="44" y="290" type="curve" smooth="yes"/>
      <point x="44" y="82"/>
      <point x="138" y="-11"/>
    </contour>
    <contour>
      <point x="530" y="-11" type="curve" smooth="yes"/>
      <point x="700" y="-11"/>
      <point x="794" y="103"/>
      <point x="794" y="365" type="curve" smooth="yes"/>
      <point x="794" y="673"/>
      <point x="649" y="836"/>
      <point x="397" y="836" type="curve" smooth="yes"/>
      <point x="257" y="836"/>
      <point x="161" y="794"/>
      <point x="70" y="750" type="curve"/>
      <point x="81" y="726" type="line"/>
      <point x="168" y="770"/>
      <point x="270" y="810"/>
      <point x="398" y="810" type="curve" smooth="yes"/>
      <point x="635" y="810"/>
      <point x="767" y="657"/>
      <point x="767" y="365" type="curve" smooth="yes"/>
      <point x="767" y="126"/>
      <point x="689" y="15"/>
      <point x="531" y="15" type="curve" smooth="yes"/>
      <point x="502" y="15"/>
      <point x="474" y="19"/>
      <point x="450" y="28" type="curve"/>
      <point x="442" y="3" type="line"/>
      <point x="472" y="-8"/>
      <point x="511" y="-11"/>
    </contour>
    <contour>
      <point x="400" y="194" type="curve" smooth="yes"/>
      <point x="478" y="194"/>
      <point x="506" y="158"/>
      <point x="506" y="114" type="curve" smooth="yes"/>
      <point x="506" y="68"/>
      <point x="474" y="42"/>
      <point x="440" y="32" type="curve"/>
      <point x="442" y="3" type="line"/>
      <point x="455" y="12" type="line"/>
      <point x="510" y="33"/>
      <point x="533" y="69"/>
      <point x="533" y="116" type="curve" smooth="yes"/>
      <point x="533" y="182"/>
      <point x="478" y="220"/>
      <point x="401" y="220" type="curve" smooth="yes"/>
      <point x="398" y="220" type="line" smooth="yes"/>
      <point x="318" y="220"/>
      <point x="265" y="182"/>
      <point x="265" y="115" type="curve" smooth="yes"/>
      <point x="265" y="69"/>
      <point x="288" y="33"/>
      <point x="341" y="13" type="curve"/>
      <point x="356" y="3" type="line"/>
      <point x="358" y="32" type="line"/>
      <point x="324" y="42"/>
      <point x="292" y="68"/>
      <point x="292" y="114" type="curve" smooth="yes"/>
      <point x="292" y="158"/>
      <point x="321" y="194"/>
    </contour>
  </outline>
</glyph>
<glyph name="yasinh" format="2">
  <advance width="753"/>
  <unicode hex="0DBA"/>
  <outline>
    <contour>
      <point x="532" y="-11" type="curve" smooth="yes"/>
      <point x="644" y="-11"/>
      <point x="712" y="70"/>
      <point x="712" y="216" type="curve" smooth="yes"/>
      <point x="712" y="376"/>
      <point x="600" y="455"/>
      <point x="439" y="455" type="curve" smooth="yes"/>
      <point x="398" y="455" type="line"/>
      <point x="415" y="452" type="line"/>
      <point x="418" y="539"/>
      <point x="468" y="586"/>
      <point x="538" y="586" type="curve" smooth="yes"/>
      <point x="603" y="586"/>
      <point x="640" y="557"/>
      <point x="640" y="495" type="curve" smooth="yes"/>
      <point x="640" y="479"/>
      <point x="637" y="462"/>
      <point x="635" y="452" type="curve"/>
      <point x="661" y="449" type="line"/>
      <point x="665" y="462"/>
      <point x="667" y="486"/>
      <point x="667" y="498" type="curve" smooth="yes"/>
      <point x="667" y="569"/>
      <point x="619" y="612"/>
      <point x="539" y="612" type="curve" smooth="yes"/>
      <point x="443" y="612"/>
      <point x="389" y="543"/>
      <point x="389" y="446" type="curve" smooth="yes"/>
      <point x="389" y="429" type="line"/>
      <point x="425" y="429" type="line" smooth="yes"/>
      <point x="511" y="429"/>
      <point x="576" y="412"/>
      <point x="620" y="374" type="curve" smooth="yes"/>
      <point x="661" y="339"/>
      <point x="685" y="287"/>
      <point x="685" y="216" type="curve" smooth="yes"/>
      <point x="685" y="86"/>
      <point x="631" y="15"/>
      <point x="531" y="15" type="curve" smooth="yes"/>
      <point x="420" y="15"/>
      <point x="384" y="112"/>
      <point x="384" y="171" type="curve" smooth="yes"/>
      <point x="384" y="204" type="line"/>
      <point x="358" y="204" type="line"/>
      <point x="358" y="170" type="line" smooth="yes"/>
      <point x="358" y="112"/>
      <point x="324" y="15"/>
      <point x="222" y="15" type="curve" smooth="yes"/>
      <point x="128" y="15"/>
      <point x="68" y="85"/>
      <point x="68" y="221" type="curve" smooth="yes"/>
      <point x="68" y="375"/>
      <point x="164" y="460"/>
      <point x="294" y="460" type="curve" smooth="yes"/>
      <point x="307" y="460"/>
      <point x="323" y="459"/>
      <point x="332" y="458" type="curve"/>
      <point x="334" y="484" type="line"/>
      <point x="321" y="485"/>
      <point x="307" y="486"/>
      <point x="297" y="486" type="curve" smooth="yes"/>
      <point x="133" y="486"/>
      <point x="41" y="373"/>
      <point x="41" y="223" type="curve" smooth="yes"/>
      <point x="41" y="65"/>
      <point x="117" y="-11"/>
      <point x="216" y="-11" type="curve" smooth="yes"/>
      <point x="306" y="-11"/>
      <point x="355" y="43"/>
      <point x="371" y="109" type="curve"/>
      <point x="392" y="43"/>
      <point x="440" y="-11"/>
    </contour>
  </outline>
</glyph>
<glyph name="lasinh" format="2">
  <advance width="792"/>
  <unicode hex="0DBD"/>
  <outline>
    <contour>
      <point x="415" y="-188" type="curve" smooth="yes"/>
      <point x="614" y="-188"/>
      <point x="757" y="-95"/>
      <point x="757" y="125" type="curve" smooth="yes"/>
      <point x="757" y="140"/>
      <point x="756" y="158"/>
      <point x="754" y="173" type="curve"/>
      <point x="727" y="171" type="line"/>
      <point x="729" y="158"/>
      <point x="730" y="141"/>
      <point x="730" y="126" type="curve" smooth="yes"/>
      <point x="730" y="-80"/>
      <point x="598" y="-162"/>
      <point x="417" y="-162" type="curve" smooth="yes"/>
      <point x="205" y="-162"/>
      <point x="68" y="-42"/>
      <point x="68" y="193" type="curve" smooth="yes"/>
      <point x="68" y="437"/>
      <point x="216" y="586"/>
      <point x="464" y="586" type="curve" smooth="yes"/>
      <point x="665" y="586"/>
      <point x="721" y="491"/>
      <point x="721" y="392" type="curve" smooth="yes"/>
      <point x="721" y="303"/>
      <point x="676" y="246"/>
      <point x="561" y="246" type="curve" smooth="yes"/>
      <point x="449" y="246"/>
      <point x="437" y="298"/>
      <point x="437" y="344" type="curve" smooth="yes"/>
      <point x="437" y="369"/>
      <point x="446" y="399"/>
      <point x="467" y="425" type="curve"/>
      <point x="441" y="408" type="line"/>
      <point x="607" y="408" type="line"/>
      <point x="607" y="434" type="line"/>
      <point x="243" y="434" type="line"/>
      <point x="243" y="408" type="line"/>
      <point x="436" y="408" type="line"/>
      <point x="445" y="416" type="line"/>
      <point x="436" y="422" type="line"/>
      <point x="418" y="400"/>
      <point x="410" y="369"/>
      <point x="410" y="344" type="curve" smooth="yes"/>
      <point x="410" y="280"/>
      <point x="437" y="220"/>
      <point x="560" y="220" type="curve" smooth="yes"/>
      <point x="691" y="220"/>
      <point x="748" y="288"/>
      <point x="748" y="393" type="curve" smooth="yes"/>
      <point x="748" y="505"/>
      <point x="680" y="612"/>
      <point x="463" y="612" type="curve" smooth="yes"/>
      <point x="201" y="612"/>
      <point x="41" y="451"/>
      <point x="41" y="193" type="curve" smooth="yes"/>
      <point x="41" y="-55"/>
      <point x="188" y="-188"/>
    </contour>
  </outline>
</glyph>
<glyph name="vasinh" format="2">
  <advance width="765"/>
  <unicode hex="0DC0"/>
  <outline>
    <contour>
      <point x="335" y="-11" type="curve" smooth="yes"/>
      <point x="604" y="-11"/>
      <point x="724" y="188"/>
      <point x="724" y="419" type="curve" smooth="yes"/>
      <point x="724" y="716"/>
      <point x="537" y="836"/>
      <point x="346" y="836" type="curve" smooth="yes"/>
      <point x="228" y="836"/>
      <point x="134" y="804"/>
      <point x="48" y="757" type="curve"/>
      <point x="60" y="733" type="line"/>
      <point x="143" y="779"/>
      <point x="232" y="810"/>
      <point x="346" y="810" type="curve" smooth="yes"/>
      <point x="518" y="810"/>
      <point x="697" y="704"/>
      <point x="697" y="418" type="curve" smooth="yes"/>
      <point x="697" y="206"/>
      <point x="589" y="15"/>
      <point x="333" y="15" type="curve" smooth="yes"/>
      <point x="173" y="15"/>
      <point x="68" y="88"/>
      <point x="68" y="244" type="curve" smooth="yes"/>
      <point x="68" y="304"/>
      <point x="87" y="343"/>
      <point x="119" y="372" type="curve" smooth="yes"/>
      <point x="161" y="410"/>
      <point x="212" y="429"/>
      <point x="329" y="429" type="curve" smooth="yes"/>
      <point x="449" y="429" type="line"/>
      <point x="449" y="447" type="line" smooth="yes"/>
      <point x="449" y="544"/>
      <point x="395" y="612"/>
      <point x="298" y="612" type="curve" smooth="yes"/>
      <point x="221" y="612"/>
      <point x="171" y="572"/>
      <point x="171" y="498" type="curve" smooth="yes"/>
      <point x="171" y="486"/>
      <point x="173" y="470"/>
      <point x="175" y="461" type="curve"/>
      <point x="201" y="464" type="line"/>
      <point x="199" y="474"/>
      <point x="198" y="483"/>
      <point x="198" y="496" type="curve" smooth="yes"/>
      <point x="198" y="557"/>
      <point x="236" y="586"/>
      <point x="300" y="586" type="curve" smooth="yes"/>
      <point x="363" y="586"/>
      <point x="418" y="548"/>
      <point x="423" y="455" type="curve"/>
      <point x="329" y="455" type="line" smooth="yes"/>
      <point x="212" y="455"/>
      <point x="146" y="433"/>
      <point x="99" y="389" type="curve" smooth="yes"/>
      <point x="62" y="354"/>
      <point x="41" y="307"/>
      <point x="41" y="244" type="curve" smooth="yes"/>
      <point x="41" y="74"/>
      <point x="157" y="-11"/>
    </contour>
  </outline>
</glyph>
<glyph name="ssasinh" format="2">
  <advance width="743"/>
  <unicode hex="0DC2"/>
  <outline>
    <contour>
      <point x="371" y="-11" type="curve" smooth="yes"/>
      <point x="595" y="-11"/>
      <point x="702" y="96"/>
      <point x="702" y="251" type="curve" smooth="yes"/>
      <point x="702" y="385"/>
      <point x="624" y="455"/>
      <point x="444" y="455" type="curve" smooth="yes"/>
      <point x="409" y="455" type="line"/>
      <point x="415" y="452" type="line"/>
      <point x="418" y="539"/>
      <point x="467" y="586"/>
      <point x="542" y="586" type="curve" smooth="yes"/>
      <point x="600" y="586"/>
      <point x="640" y="556"/>
      <point x="640" y="485" type="curve" smooth="yes"/>
      <point x="640" y="453"/>
      <point x="633" y="426"/>
      <point x="621" y="405" type="curve"/>
      <point x="617" y="397" type="line"/>
      <point x="572" y="331"/>
      <point x="474" y="321"/>
      <point x="408" y="321" type="curve" smooth="yes"/>
      <point x="334" y="321" type="line" smooth="yes"/>
      <point x="285" y="321"/>
      <point x="248" y="314"/>
      <point x="223" y="292" type="curve" smooth="yes"/>
      <point x="207" y="278"/>
      <point x="197" y="257"/>
      <point x="197" y="229" type="curve" smooth="yes"/>
      <point x="197" y="163"/>
      <point x="251" y="125"/>
      <point x="362" y="125" type="curve" smooth="yes"/>
      <point x="502" y="125"/>
      <point x="536" y="179"/>
      <point x="536" y="234" type="curve" smooth="yes"/>
      <point x="536" y="267"/>
      <point x="522" y="293"/>
      <point x="503" y="314" type="curve"/>
      <point x="478" y="304" type="line"/>
      <point x="497" y="287"/>
      <point x="509" y="261"/>
      <point x="509" y="235" type="curve" smooth="yes"/>
      <point x="509" y="181"/>
      <point x="469" y="151"/>
      <point x="363" y="151" type="curve" smooth="yes"/>
      <point x="271" y="151"/>
      <point x="224" y="175"/>
      <point x="224" y="230" type="curve" smooth="yes"/>
      <point x="224" y="269"/>
      <point x="252" y="295"/>
      <point x="325" y="295" type="curve" smooth="yes"/>
      <point x="409" y="295" type="line" smooth="yes"/>
      <point x="513" y="295"/>
      <point x="596" y="319"/>
      <point x="639" y="385" type="curve" smooth="yes"/>
      <point x="657" y="412"/>
      <point x="667" y="445"/>
      <point x="667" y="485" type="curve" smooth="yes"/>
      <point x="667" y="561"/>
      <point x="627" y="612"/>
      <point x="542" y="612" type="curve" smooth="yes"/>
      <point x="442" y="612"/>
      <point x="389" y="543"/>
      <point x="389" y="446" type="curve" smooth="yes"/>
      <point x="389" y="429" type="line"/>
      <point x="440" y="429" type="line" smooth="yes"/>
      <point x="534" y="429"/>
      <point x="584" y="414"/>
      <point x="620" y="386" type="curve" smooth="yes"/>
      <point x="658" y="356"/>
      <point x="675" y="311"/>
      <point x="675" y="253" type="curve" smooth="yes"/>
      <point x="675" y="118"/>
      <point x="588" y="15"/>
      <point x="371" y="15" type="curve" smooth="yes"/>
      <point x="155" y="15"/>
      <point x="68" y="116"/>
      <point x="68" y="253" type="curve" smooth="yes"/>
      <point x="68" y="311"/>
      <point x="85" y="356"/>
      <point x="123" y="386" type="curve" smooth="yes"/>
      <point x="159" y="414"/>
      <point x="209" y="429"/>
      <point x="303" y="429" type="curve" smooth="yes"/>
      <point x="354" y="429" type="line"/>
      <point x="354" y="446" type="line" smooth="yes"/>
      <point x="354" y="544"/>
      <point x="300" y="612"/>
      <point x="203" y="612" type="curve" smooth="yes"/>
      <point x="126" y="612"/>
      <point x="76" y="572"/>
      <point x="76" y="498" type="curve" smooth="yes"/>
      <point x="76" y="486"/>
      <point x="78" y="462"/>
      <point x="82" y="449" type="curve"/>
      <point x="108" y="452" type="line"/>
      <point x="106" y="462"/>
      <point x="103" y="478"/>
      <point x="103" y="495" type="curve" smooth="yes"/>
      <point x="103" y="557"/>
      <point x="140" y="586"/>
      <point x="205" y="586" type="curve" smooth="yes"/>
      <point x="275" y="586"/>
      <point x="325" y="540"/>
      <point x="328" y="452" type="curve"/>
      <point x="336" y="455" type="line"/>
      <point x="299" y="455" type="line" smooth="yes"/>
      <point x="119" y="455"/>
      <point x="41" y="385"/>
      <point x="41" y="251" type="curve" smooth="yes"/>
      <point x="41" y="95"/>
      <point x="147" y="-11"/>
    </contour>
  </outline>
</glyph>
<glyph name="sasinh" format="2">
  <advance width="765"/>
  <unicode hex="0DC3"/>
  <outline>
    <contour>
      <point x="544" y="-11" type="curve" smooth="yes"/>
      <point x="656" y="-11"/>
      <point x="724" y="70"/>
      <point x="724" y="216" type="curve" smooth="yes"/>
      <point x="724" y="376"/>
      <point x="612" y="455"/>
      <point x="451" y="455" type="curve" smooth="yes"/>
      <point x="412" y="455" type="line"/>
      <point x="429" y="452" type="line"/>
      <point x="432" y="539"/>
      <point x="482" y="586"/>
      <point x="552" y="586" type="curve" smooth="yes"/>
      <point x="617" y="586"/>
      <point x="654" y="557"/>
      <point x="654" y="495" type="curve" smooth="yes"/>
      <point x="654" y="479"/>
      <point x="651" y="462"/>
      <point x="649" y="452" type="curve"/>
      <point x="675" y="449" type="line"/>
      <point x="679" y="462"/>
      <point x="681" y="486"/>
      <point x="681" y="498" type="curve" smooth="yes"/>
      <point x="681" y="569"/>
      <point x="633" y="612"/>
      <point x="554" y="612" type="curve" smooth="yes"/>
      <point x="457" y="612"/>
      <point x="403" y="543"/>
      <point x="403" y="446" type="curve" smooth="yes"/>
      <point x="403" y="429" type="line"/>
      <point x="437" y="429" type="line" smooth="yes"/>
      <point x="523" y="429"/>
      <point x="588" y="412"/>
      <point x="632" y="374" type="curve" smooth="yes"/>
      <point x="673" y="339"/>
      <point x="697" y="287"/>
      <point x="697" y="216" type="curve" smooth="yes"/>
      <point x="697" y="86"/>
      <point x="643" y="15"/>
      <point x="543" y="15" type="curve" smooth="yes"/>
      <point x="432" y="15"/>
      <point x="396" y="112"/>
      <point x="396" y="171" type="curve" smooth="yes"/>
      <point x="396" y="204" type="line"/>
      <point x="370" y="204" type="line"/>
      <point x="370" y="170" type="line" smooth="yes"/>
      <point x="370" y="109"/>
      <point x="334" y="15"/>
      <point x="223" y="15" type="curve" smooth="yes"/>
      <point x="136" y="15"/>
      <point x="70" y="71"/>
      <point x="70" y="203" type="curve" smooth="yes"/>
      <point x="70" y="273"/>
      <point x="87" y="315"/>
      <point x="119" y="350" type="curve" smooth="yes"/>
      <point x="170" y="406"/>
      <point x="252" y="429"/>
      <point x="351" y="429" type="curve" smooth="yes"/>
      <point x="368" y="429" type="line"/>
      <point x="368" y="446" type="line" smooth="yes"/>
      <point x="368" y="544"/>
      <point x="314" y="612"/>
      <point x="217" y="612" type="curve" smooth="yes"/>
      <point x="140" y="612"/>
      <point x="90" y="572"/>
      <point x="90" y="498" type="curve" smooth="yes"/>
      <point x="90" y="493"/>
      <point x="90" y="485"/>
      <point x="91" y="476" type="curve"/>
      <point x="118" y="478" type="line"/>
      <point x="117" y="484"/>
      <point x="117" y="490"/>
      <point x="117" y="496" type="curve" smooth="yes"/>
      <point x="117" y="557"/>
      <point x="154" y="586"/>
      <point x="219" y="586" type="curve" smooth="yes"/>
      <point x="289" y="586"/>
      <point x="337" y="541"/>
      <point x="342" y="455" type="curve"/>
      <point x="30" y="455" type="line"/>
      <point x="30" y="429" type="line"/>
      <point x="116" y="429" type="line" smooth="yes"/>
      <point x="167" y="429"/>
      <point x="212" y="432"/>
      <point x="258" y="436" type="curve"/>
      <point x="246" y="436" type="line"/>
      <point x="95" y="412"/>
      <point x="43" y="315"/>
      <point x="43" y="203" type="curve" smooth="yes"/>
      <point x="43" y="65"/>
      <point x="112" y="-11"/>
      <point x="224" y="-11" type="curve" smooth="yes"/>
      <point x="314" y="-11"/>
      <point x="362" y="39"/>
      <point x="383" y="109" type="curve"/>
      <point x="404" y="43"/>
      <point x="452" y="-11"/>
    </contour>
  </outline>
</glyph>
<glyph name="hasinh" format="2">
  <advance width="905"/>
  <unicode hex="0DC4"/>
  <outline>
    <contour>
      <point x="303" y="-11" type="curve" smooth="yes"/>
      <point x="485" y="-11"/>
      <point x="563" y="94"/>
      <point x="563" y="216" type="curve" smooth="yes"/>
      <point x="563" y="304"/>
      <point x="528" y="357"/>
      <point x="460" y="357" type="curve" smooth="yes"/>
      <point x="425" y="357"/>
      <point x="396" y="341"/>
      <point x="376" y="319" type="curve"/>
      <point x="386" y="312" type="line"/>
      <point x="421" y="514"/>
      <point x="513" y="586"/>
      <point x="631" y="586" type="curve" smooth="yes"/>
      <point x="756" y="586"/>
      <point x="837" y="483"/>
      <point x="837" y="307" type="curve" smooth="yes"/>
      <point x="837" y="135"/>
      <point x="757" y="22"/>
      <point x="578" y="22" type="curve" smooth="yes"/>
      <point x="562" y="22"/>
      <point x="543" y="23"/>
      <point x="531" y="25" type="curve"/>
      <point x="529" y="-1" type="line"/>
      <point x="543" y="-3"/>
      <point x="559" y="-4"/>
      <point x="581" y="-4" type="curve" smooth="yes"/>
      <point x="746" y="-4"/>
      <point x="864" y="91"/>
      <point x="864" y="308" type="curve" smooth="yes"/>
      <point x="864" y="484"/>
      <point x="782" y="612"/>
      <point x="632" y="612" type="curve" smooth="yes"/>
      <point x="504" y="612"/>
      <point x="395" y="537"/>
      <point x="359" y="305" type="curve"/>
      <point x="384" y="297" type="line"/>
      <point x="407" y="320"/>
      <point x="432" y="331"/>
      <point x="458" y="331" type="curve" smooth="yes"/>
      <point x="513" y="331"/>
      <point x="536" y="290"/>
      <point x="536" y="217" type="curve" smooth="yes"/>
      <point x="536" y="101"/>
      <point x="461" y="15"/>
      <point x="304" y="15" type="curve" smooth="yes"/>
      <point x="165" y="15"/>
      <point x="68" y="92"/>
      <point x="68" y="253" type="curve" smooth="yes"/>
      <point x="68" y="311"/>
      <point x="85" y="356"/>
      <point x="123" y="386" type="curve" smooth="yes"/>
      <point x="159" y="414"/>
      <point x="209" y="429"/>
      <point x="303" y="429" type="curve" smooth="yes"/>
      <point x="354" y="429" type="line"/>
      <point x="354" y="446" type="line" smooth="yes"/>
      <point x="354" y="544"/>
      <point x="300" y="612"/>
      <point x="203" y="612" type="curve" smooth="yes"/>
      <point x="126" y="612"/>
      <point x="76" y="572"/>
      <point x="76" y="498" type="curve" smooth="yes"/>
      <point x="76" y="486"/>
      <point x="78" y="462"/>
      <point x="82" y="449" type="curve"/>
      <point x="108" y="452" type="line"/>
      <point x="106" y="462"/>
      <point x="103" y="478"/>
      <point x="103" y="495" type="curve" smooth="yes"/>
      <point x="103" y="557"/>
      <point x="140" y="586"/>
      <point x="205" y="586" type="curve" smooth="yes"/>
      <point x="275" y="586"/>
      <point x="325" y="540"/>
      <point x="328" y="452" type="curve"/>
      <point x="336" y="455" type="line"/>
      <point x="299" y="455" type="line" smooth="yes"/>
      <point x="119" y="455"/>
      <point x="41" y="385"/>
      <point x="41" y="251" type="curve" smooth="yes"/>
      <point x="41" y="80"/>
      <point x="148" y="-11"/>
    </contour>
  </outline>
</glyph>
<glyph name="llasinh" format="2">
  <advance width="702"/>
  <unicode hex="0DC5"/>
  <outline>
    <contour>
      <point x="373" y="-194" type="curve" smooth="yes"/>
      <point x="545" y="-194"/>
      <point x="686" y="-119"/>
      <point x="686" y="60" type="curve" smooth="yes"/>
      <point x="686" y="73"/>
      <point x="686" y="85"/>
      <point x="685" y="93" type="curve"/>
      <point x="658" y="92" type="line"/>
      <point x="659" y="83"/>
      <point x="659" y="67"/>
      <point x="659" y="59" type="curve" smooth="yes"/>
      <point x="659" y="-99"/>
      <point x="536" y="-168"/>
      <point x="371" y="-168" type="curve" smooth="yes"/>
      <point x="153" y="-168"/>
      <point x="60" y="-40"/>
      <point x="60" y="121" type="curve" smooth="yes"/>
      <point x="60" y="218"/>
      <point x="93" y="292"/>
      <point x="157" y="343" type="curve"/>
      <point x="169" y="351" type="line"/>
      <point x="242" y="404"/>
      <point x="342" y="429"/>
      <point x="522" y="429" type="curve" smooth="yes"/>
      <point x="652" y="429" type="line"/>
      <point x="652" y="450" type="line" smooth="yes"/>
      <point x="652" y="555"/>
      <point x="597" y="612"/>
      <point x="516" y="612" type="curve" smooth="yes"/>
      <point x="458" y="612"/>
      <point x="419" y="580"/>
      <point x="398" y="535" type="curve"/>
      <point x="378" y="586"/>
      <point x="339" y="612"/>
      <point x="293" y="612" type="curve" smooth="yes"/>
      <point x="197" y="612"/>
      <point x="148" y="527"/>
      <point x="148" y="413" type="curve" smooth="yes"/>
      <point x="148" y="393"/>
      <point x="149" y="374"/>
      <point x="151" y="356" type="curve" smooth="yes"/>
      <point x="165" y="221"/>
      <point x="235" y="128"/>
      <point x="403" y="128" type="curve" smooth="yes"/>
      <point x="553" y="128"/>
      <point x="638" y="194"/>
      <point x="653" y="315" type="curve"/>
      <point x="626" y="316" type="line"/>
      <point x="612" y="210"/>
      <point x="541" y="154"/>
      <point x="403" y="154" type="curve" smooth="yes"/>
      <point x="234" y="154"/>
      <point x="175" y="253"/>
      <point x="175" y="415" type="curve" smooth="yes"/>
      <point x="175" y="505"/>
      <point x="210" y="586"/>
      <point x="292" y="586" type="curve" smooth="yes"/>
      <point x="340" y="586"/>
      <point x="374" y="554"/>
      <point x="385" y="487" type="curve"/>
      <point x="411" y="487" type="line"/>
      <point x="423" y="554"/>
      <point x="462" y="586"/>
      <point x="516" y="586" type="curve" smooth="yes"/>
      <point x="588" y="586"/>
      <point x="624" y="532"/>
      <point x="626" y="455" type="curve"/>
      <point x="514" y="455" type="line" smooth="yes"/>
      <point x="345" y="455"/>
      <point x="242" y="431"/>
      <point x="164" y="378" type="curve"/>
      <point x="154" y="372" type="line"/>
      <point x="64" y="310"/>
      <point x="33" y="217"/>
      <point x="33" y="121" type="curve" smooth="yes"/>
      <point x="33" y="-51"/>
      <point x="133" y="-194"/>
    </contour>
  </outline>
</glyph>
<glyph name="fasinh" format="2">
  <advance width="806"/>
  <unicode hex="0DC6"/>
  <outline>
    <contour>
      <point x="526" y="-11" type="curve" smooth="yes"/>
      <point x="702" y="-11"/>
      <point x="763" y="113"/>
      <point x="763" y="310" type="curve" smooth="yes"/>
      <point x="763" y="486"/>
      <point x="699" y="612"/>
      <point x="562" y="612" type="curve" smooth="yes"/>
      <point x="477" y="612"/>
      <point x="426" y="563"/>
      <point x="403" y="484" type="curve"/>
      <point x="380" y="563"/>
      <point x="329" y="612"/>
      <point x="244" y="612" type="curve" smooth="yes"/>
      <point x="107" y="612"/>
      <point x="43" y="486"/>
      <point x="43" y="310" type="curve" smooth="yes"/>
      <point x="43" y="113"/>
      <point x="104" y="-11"/>
      <point x="280" y="-11" type="curve" smooth="yes"/>
      <point x="294" y="-11"/>
      <point x="308" y="-11"/>
      <point x="322" y="-9" type="curve"/>
      <point x="321" y="17" type="line"/>
      <point x="308" y="16"/>
      <point x="291" y="15"/>
      <point x="282" y="15" type="curve" smooth="yes"/>
      <point x="109" y="15"/>
      <point x="70" y="142"/>
      <point x="70" y="309" type="curve" smooth="yes"/>
      <point x="70" y="465"/>
      <point x="121" y="586"/>
      <point x="243" y="586" type="curve" smooth="yes"/>
      <point x="294" y="586"/>
      <point x="325" y="571"/>
      <point x="353" y="536" type="curve" smooth="yes"/>
      <point x="375" y="509"/>
      <point x="390" y="461"/>
      <point x="390" y="399" type="curve" smooth="yes"/>
      <point x="390" y="378" type="line"/>
      <point x="416" y="378" type="line"/>
      <point x="416" y="399" type="line" smooth="yes"/>
      <point x="416" y="465"/>
      <point x="431" y="509"/>
      <point x="453" y="536" type="curve" smooth="yes"/>
      <point x="481" y="571"/>
      <point x="512" y="586"/>
      <point x="563" y="586" type="curve" smooth="yes"/>
      <point x="685" y="586"/>
      <point x="736" y="465"/>
      <point x="736" y="309" type="curve" smooth="yes"/>
      <point x="736" y="142"/>
      <point x="697" y="15"/>
      <point x="524" y="15" type="curve" smooth="yes"/>
      <point x="511" y="15"/>
      <point x="497" y="15"/>
      <point x="484" y="18" type="curve"/>
      <point x="482" y="-8" type="line"/>
      <point x="500" y="-10"/>
      <point x="504" y="-11"/>
    </contour>
  </outline>
</glyph>
<glyph name="viramasinh" format="2">
  <unicode hex="0DCA"/>
  <outline>
    <contour>
      <point x="-158" y="529" type="line"/>
      <point x="-132" y="527" type="line"/>
      <point x="-132" y="859" type="line"/>
      <point x="-142" y="904" type="line"/>
      <point x="-148" y="934"/>
      <point x="-165" y="958"/>
      <point x="-200" y="973" type="curve"/>
      <point x="-211" y="948" type="line"/>
      <point x="-190" y="939"/>
      <point x="-175" y="922"/>
      <point x="-168" y="909" type="curve" smooth="yes"/>
      <point x="-159" y="893"/>
      <point x="-158" y="876"/>
      <point x="-158" y="840" type="curve" smooth="yes"/>
    </contour>
    <contour>
      <point x="-91" y="806" type="curve" smooth="yes"/>
      <point x="-28" y="806"/>
      <point x="0" y="839"/>
      <point x="0" y="891" type="curve" smooth="yes"/>
      <point x="0" y="949"/>
      <point x="-37" y="973"/>
      <point x="-75" y="973" type="curve" smooth="yes"/>
      <point x="-119" y="973"/>
      <point x="-143" y="941"/>
      <point x="-148" y="914" type="curve"/>
      <point x="-132" y="850" type="line"/>
      <point x="-132" y="862" type="line" smooth="yes"/>
      <point x="-132" y="911"/>
      <point x="-120" y="948"/>
      <point x="-77" y="948" type="curve" smooth="yes"/>
      <point x="-45" y="948"/>
      <point x="-26" y="930"/>
      <point x="-26" y="890" type="curve" smooth="yes"/>
      <point x="-26" y="847"/>
      <point x="-53" y="831"/>
      <point x="-94" y="831" type="curve" smooth="yes"/>
      <point x="-124" y="831"/>
      <point x="-136" y="837"/>
      <point x="-150" y="843" type="curve"/>
      <point x="-157" y="819" type="line"/>
      <point x="-140" y="812"/>
      <point x="-124" y="806"/>
    </contour>
  </outline>
</glyph>
<glyph name="aavowelsignsinh" format="2">
  <advance width="310"/>
  <unicode hex="0DCF"/>
  <outline>
    <contour>
      <point x="78" y="-11" type="curve" smooth="yes"/>
      <point x="176" y="-11"/>
      <point x="265" y="42"/>
      <point x="265" y="273" type="curve" smooth="yes"/>
      <point x="265" y="508"/>
      <point x="170" y="555"/>
      <point x="78" y="555" type="curve" smooth="yes"/>
      <point x="58" y="555"/>
      <point x="28" y="551"/>
      <point x="8" y="544" type="curve"/>
      <point x="13" y="519" type="line"/>
      <point x="30" y="524"/>
      <point x="55" y="529"/>
      <point x="77" y="529" type="curve" smooth="yes"/>
      <point x="161" y="529"/>
      <point x="238" y="486"/>
      <point x="238" y="274" type="curve" smooth="yes"/>
      <point x="238" y="57"/>
      <point x="161" y="15"/>
      <point x="77" y="15" type="curve" smooth="yes"/>
      <point x="57" y="15"/>
      <point x="29" y="19"/>
      <point x="13" y="24" type="curve"/>
      <point x="8" y="-1" type="line"/>
      <point x="30" y="-8"/>
      <point x="52" y="-11"/>
    </contour>
  </outline>
</glyph>
<glyph name="aevowelsignsinh" format="2">
  <advance width="275"/>
  <unicode hex="0DD0"/>
  <outline>
    <contour>
      <point x="196" y="-165" type="curve" smooth="yes"/>
      <point x="226" y="-165"/>
      <point x="257" y="-159"/>
      <point x="292" y="-147" type="curve"/>
      <point x="284" y="-122" type="line"/>
      <point x="256" y="-133"/>
      <point x="225" y="-139"/>
      <point x="196" y="-139" type="curve" smooth="yes"/>
      <point x="128" y="-139"/>
      <point x="65" y="-116"/>
      <point x="65" y="11" type="curve" smooth="yes"/>
      <point x="65" y="110"/>
      <point x="110" y="208"/>
      <point x="258" y="373" type="curve"/>
      <point x="249" y="402" type="line"/>
      <point x="11" y="402" type="line"/>
      <point x="11" y="376" type="line"/>
      <point x="191" y="376" type="line" smooth="yes"/>
      <point x="215" y="376"/>
      <point x="230" y="377"/>
      <point x="246" y="380" type="curve"/>
      <point x="233" y="381" type="line"/>
      <point x="65" y="200"/>
      <point x="38" y="95"/>
      <point x="38" y="11" type="curve" smooth="yes"/>
      <point x="38" y="-112"/>
      <point x="92" y="-165"/>
    </contour>
  </outline>
</glyph>
<glyph name="aaevowelsignsinh" format="2">
  <advance width="280"/>
  <unicode hex="0DD1"/>
  <outline>
    <contour>
      <point x="196" y="-165" type="curve" smooth="yes"/>
      <point x="226" y="-165"/>
      <point x="257" y="-159"/>
      <point x="292" y="-147" type="curve"/>
      <point x="284" y="-122" type="line"/>
      <point x="256" y="-133"/>
      <point x="225" y="-139"/>
      <point x="196" y="-139" type="curve" smooth="yes"/>
      <point x="128" y="-139"/>
      <point x="63" y="-117"/>
      <point x="63" y="-9" type="curve" smooth="yes"/>
      <point x="63" y="64"/>
      <point x="99" y="120"/>
      <point x="254" y="211" type="curve"/>
      <point x="244" y="241" type="line"/>
      <point x="166" y="235" type="line" smooth="yes"/>
      <point x="126" y="232"/>
      <point x="79" y="228"/>
      <point x="56" y="222" type="curve"/>
      <point x="58" y="221" type="line"/>
      <point x="124" y="269"/>
      <point x="206" y="328"/>
      <point x="259" y="371" type="curve"/>
      <point x="248" y="402" type="line"/>
      <point x="11" y="402" type="line"/>
      <point x="11" y="376" type="line"/>
      <point x="189" y="376" type="line" smooth="yes"/>
      <point x="213" y="376"/>
      <point x="230" y="377"/>
      <point x="246" y="380" type="curve"/>
      <point x="239" y="383" type="line"/>
      <point x="179" y="342"/>
      <point x="94" y="279"/>
      <point x="37" y="230" type="curve"/>
      <point x="49" y="201" type="line"/>
      <point x="126" y="208" type="line" smooth="yes"/>
      <point x="174" y="212"/>
      <point x="207" y="215"/>
      <point x="240" y="221" type="curve"/>
      <point x="232" y="222" type="line"/>
      <point x="99" y="149"/>
      <point x="36" y="87"/>
      <point x="36" y="-9" type="curve" smooth="yes"/>
      <point x="36" y="-121"/>
      <point x="97" y="-165"/>
    </contour>
  </outline>
</glyph>
<glyph name="ivowelsignsinh" format="2">
  <unicode hex="0DD2"/>
  <outline>
    <contour>
      <point x="-311" y="860" type="curve" smooth="yes"/>
      <point x="-509" y="860"/>
      <point x="-570" y="792"/>
      <point x="-570" y="696" type="curve" smooth="yes"/>
      <point x="-570" y="669"/>
      <point x="-563" y="640"/>
      <point x="-556" y="624" type="curve"/>
      <point x="-529" y="628" type="line"/>
      <point x="-537" y="646"/>
      <point x="-543" y="669"/>
      <point x="-543" y="696" type="curve" smooth="yes"/>
      <point x="-543" y="782"/>
      <point x="-487" y="834"/>
      <point x="-311" y="834" type="curve" smooth="yes"/>
      <point x="-134" y="834"/>
      <point x="-78" y="782"/>
      <point x="-78" y="696" type="curve" smooth="yes"/>
      <point x="-78" y="669"/>
      <point x="-84" y="648"/>
      <point x="-92" y="628" type="curve"/>
      <point x="-65" y="624" type="line"/>
      <point x="-57" y="645"/>
      <point x="-51" y="671"/>
      <point x="-51" y="696" type="curve" smooth="yes"/>
      <point x="-51" y="793"/>
      <point x="-112" y="860"/>
    </contour>
  </outline>
</glyph>
<glyph name="iivowelsignsinh" format="2">
  <unicode hex="0DD3"/>
  <outline>
    <contour>
      <point x="-311" y="860" type="curve" smooth="yes"/>
      <point x="-509" y="860"/>
      <point x="-570" y="792"/>
      <point x="-570" y="696" type="curve" smooth="yes"/>
      <point x="-570" y="669"/>
      <point x="-563" y="640"/>
      <point x="-556" y="624" type="curve"/>
      <point x="-529" y="628" type="line"/>
      <point x="-537" y="646"/>
      <point x="-543" y="669"/>
      <point x="-543" y="696" type="curve" smooth="yes"/>
      <point x="-543" y="782"/>
      <point x="-487" y="834"/>
      <point x="-311" y="834" type="curve" smooth="yes"/>
      <point x="-247" y="834"/>
      <point x="-203" y="831"/>
      <point x="-152" y="812" type="curve" smooth="yes"/>
      <point x="-103" y="794"/>
      <point x="-65" y="760"/>
      <point x="-65" y="703" type="curve" smooth="yes"/>
      <point x="-65" y="655"/>
      <point x="-90" y="631"/>
      <point x="-136" y="631" type="curve" smooth="yes"/>
      <point x="-177" y="631"/>
      <point x="-211" y="651"/>
      <point x="-211" y="701" type="curve" smooth="yes"/>
      <point x="-211" y="756"/>
      <point x="-174" y="789"/>
      <point x="-123" y="814" type="curve"/>
      <point x="-145" y="828" type="line"/>
      <point x="-202" y="797"/>
      <point x="-238" y="759"/>
      <point x="-238" y="701" type="curve" smooth="yes"/>
      <point x="-238" y="637"/>
      <point x="-197" y="605"/>
      <point x="-135" y="605" type="curve" smooth="yes"/>
      <point x="-73" y="605"/>
      <point x="-38" y="640"/>
      <point x="-38" y="703" type="curve" smooth="yes"/>
      <point x="-38" y="800"/>
      <point x="-127" y="860"/>
    </contour>
  </outline>
</glyph>
<glyph name="uvowelsignsinh" format="2">
  <unicode hex="0DD4"/>
  <outline>
    <contour>
      <point x="-630" y="-155" type="curve" smooth="yes"/>
      <point x="-630" y="-183"/>
      <point x="-621" y="-203"/>
      <point x="-607" y="-218" type="curve" smooth="yes"/>
      <point x="-578" y="-248"/>
      <point x="-535" y="-257"/>
      <point x="-457" y="-257" type="curve" smooth="yes"/>
      <point x="-29" y="-257" type="line"/>
      <point x="-29" y="72" type="line"/>
      <point x="-55" y="72" type="line"/>
      <point x="-55" y="-231" type="line"/>
      <point x="-438" y="-231" type="line" smooth="yes"/>
      <point x="-524" y="-231"/>
      <point x="-564" y="-225"/>
      <point x="-588" y="-199" type="curve" smooth="yes"/>
      <point x="-597" y="-189"/>
      <point x="-603" y="-175"/>
      <point x="-603" y="-156" type="curve" smooth="yes"/>
      <point x="-603" y="-125"/>
      <point x="-590" y="-103"/>
      <point x="-554" y="-71" type="curve"/>
      <point x="-573" y="-53" type="line"/>
      <point x="-609" y="-86"/>
      <point x="-630" y="-115"/>
    </contour>
  </outline>
</glyph>
<glyph name="uuvowelsignsinh" format="2">
  <unicode hex="0DD6"/>
  <outline>
    <contour>
      <point x="-630" y="-158" type="curve" smooth="yes"/>
      <point x="-630" y="-233"/>
      <point x="-578" y="-257"/>
      <point x="-527" y="-257" type="curve" smooth="yes"/>
      <point x="-475" y="-257"/>
      <point x="-427" y="-237"/>
      <point x="-359" y="-205" type="curve" smooth="yes"/>
      <point x="-312" y="-183"/>
      <point x="-281" y="-173"/>
      <point x="-241" y="-173" type="curve" smooth="yes"/>
      <point x="-188" y="-173"/>
      <point x="-142" y="-191"/>
      <point x="-48" y="-257" type="curve"/>
      <point x="-29" y="-257" type="line"/>
      <point x="-29" y="72" type="line"/>
      <point x="-55" y="72" type="line"/>
      <point x="-55" y="-164" type="line"/>
      <point x="-56" y="-184"/>
      <point x="-55" y="-202"/>
      <point x="-54" y="-229" type="curve"/>
      <point x="-43" y="-230" type="line"/>
      <point x="-143" y="-158"/>
      <point x="-197" y="-147"/>
      <point x="-246" y="-147" type="curve" smooth="yes"/>
      <point x="-294" y="-147"/>
      <point x="-323" y="-159"/>
      <point x="-375" y="-184" type="curve" smooth="yes"/>
      <point x="-447" y="-218"/>
      <point x="-481" y="-231"/>
      <point x="-529" y="-231" type="curve" smooth="yes"/>
      <point x="-566" y="-231"/>
      <point x="-603" y="-214"/>
      <point x="-603" y="-159" type="curve" smooth="yes"/>
      <point x="-603" y="-124"/>
      <point x="-590" y="-103"/>
      <point x="-554" y="-71" type="curve"/>
      <point x="-573" y="-53" type="line"/>
      <point x="-609" y="-86"/>
      <point x="-630" y="-115"/>
    </contour>
  </outline>
</glyph>
<glyph name="rvocalicvowelsignsinh" format="2">
  <advance width="400"/>
  <unicode hex="0DD8"/>
  <outline>
    <contour>
      <point x="161" y="-11" type="curve" smooth="yes"/>
      <point x="213" y="-11"/>
      <point x="244" y="5"/>
      <point x="280" y="30" type="curve"/>
      <point x="325" y="0" type="line"/>
      <point x="339" y="20" type="line"/>
      <point x="290" y="53" type="line"/>
      <point x="266" y="53" type="line"/>
      <point x="233" y="27"/>
      <point x="208" y="15"/>
      <point x="161" y="15" type="curve" smooth="yes"/>
      <point x="104" y="15"/>
      <point x="50" y="48"/>
      <point x="50" y="144" type="curve" smooth="yes"/>
      <point x="50" y="197"/>
      <point x="67" y="234"/>
      <point x="99" y="259" type="curve" smooth="yes"/>
      <point x="136" y="287"/>
      <point x="187" y="299"/>
      <point x="279" y="299" type="curve" smooth="yes"/>
      <point x="334" y="299" type="line"/>
      <point x="340" y="325" type="line"/>
      <point x="295" y="325" type="line" smooth="yes"/>
      <point x="195" y="325"/>
      <point x="118" y="317"/>
      <point x="65" y="263" type="curve" smooth="yes"/>
      <point x="39" y="237"/>
      <point x="23" y="200"/>
      <point x="23" y="147" type="curve" smooth="yes"/>
      <point x="23" y="48"/>
      <point x="75" y="-11"/>
    </contour>
    <contour>
      <point x="325" y="0" type="line"/>
      <point x="346" y="0" type="line"/>
      <point x="346" y="311" type="line" smooth="yes"/>
      <point x="346" y="431"/>
      <point x="321" y="486"/>
      <point x="270" y="523" type="curve" smooth="yes"/>
      <point x="240" y="545"/>
      <point x="199" y="555"/>
      <point x="157" y="555" type="curve" smooth="yes"/>
      <point x="108" y="555"/>
      <point x="72" y="547"/>
      <point x="30" y="533" type="curve"/>
      <point x="38" y="508" type="line"/>
      <point x="67" y="519"/>
      <point x="106" y="529"/>
      <point x="157" y="529" type="curve" smooth="yes"/>
      <point x="203" y="529"/>
      <point x="237" y="517"/>
      <point x="262" y="495" type="curve" smooth="yes"/>
      <point x="304" y="459"/>
      <point x="321" y="409"/>
      <point x="321" y="310" type="curve" smooth="yes"/>
      <point x="321" y="25" type="line"/>
    </contour>
  </outline>
</glyph>
<glyph name="evowelsignsinh" format="2">
  <advance width="576"/>
  <unicode hex="0DD9"/>
  <outline>
    <contour>
      <point x="314" y="-11" type="curve" smooth="yes"/>
      <point x="478" y="-11"/>
      <point x="547" y="68"/>
      <point x="547" y="191" type="curve" smooth="yes"/>
      <point x="547" y="287"/>
      <point x="490" y="370"/>
      <point x="352" y="370" type="curve" smooth="yes"/>
      <point x="277" y="370"/>
      <point x="224" y="332"/>
      <point x="224" y="262" type="curve" smooth="yes"/>
      <point x="224" y="197"/>
      <point x="272" y="168"/>
      <point x="315" y="168" type="curve" smooth="yes"/>
      <point x="369" y="168"/>
      <point x="415" y="196"/>
      <point x="415" y="263" type="curve" smooth="yes"/>
      <point x="415" y="306"/>
      <point x="398" y="334"/>
      <point x="385" y="352" type="curve"/>
      <point x="356" y="350" type="line"/>
      <point x="373" y="329"/>
      <point x="388" y="299"/>
      <point x="388" y="266" type="curve" smooth="yes"/>
      <point x="388" y="217"/>
      <point x="362" y="194"/>
      <point x="316" y="194" type="curve" smooth="yes"/>
      <point x="270" y="194"/>
      <point x="251" y="227"/>
      <point x="251" y="263" type="curve" smooth="yes"/>
      <point x="251" y="310"/>
      <point x="282" y="344"/>
      <point x="352" y="344" type="curve" smooth="yes"/>
      <point x="362" y="344"/>
      <point x="372" y="345"/>
      <point x="381" y="344" type="curve"/>
      <point x="463" y="335"/>
      <point x="520" y="286"/>
      <point x="520" y="191" type="curve" smooth="yes"/>
      <point x="520" y="82"/>
      <point x="462" y="15"/>
      <point x="315" y="15" type="curve" smooth="yes"/>
      <point x="109" y="15"/>
      <point x="66" y="164"/>
      <point x="66" y="263" type="curve" smooth="yes"/>
      <point x="66" y="429"/>
      <point x="182" y="530"/>
      <point x="335" y="530" type="curve" smooth="yes"/>
      <point x="420" y="530"/>
      <point x="474" y="517"/>
      <point x="538" y="491" type="curve"/>
      <point x="548" y="516" type="line"/>
      <point x="484" y="540"/>
      <point x="427" y="556"/>
      <point x="335" y="556" type="curve" smooth="yes"/>
      <point x="164" y="556"/>
      <point x="39" y="441"/>
      <point x="39" y="263" type="curve" smooth="yes"/>
      <point x="39" y="139"/>
      <point x="102" y="-11"/>
    </contour>
  </outline>
</glyph>
<glyph name="lvocalicvowelsignsinh" format="2">
  <advance width="480"/>
  <unicode hex="0DDF"/>
  <outline>
    <contour>
      <point x="248" y="-11" type="curve" smooth="yes"/>
      <point x="341" y="-11"/>
      <point x="435" y="36"/>
      <point x="435" y="281" type="curve" smooth="yes"/>
      <point x="435" y="504"/>
      <point x="354" y="555"/>
      <point x="281" y="555" type="curve" smooth="yes"/>
      <point x="216" y="555"/>
      <point x="176" y="515"/>
      <point x="144" y="458" type="curve"/>
      <point x="167" y="438" type="line"/>
      <point x="170" y="454" type="line"/>
      <point x="200" y="501"/>
      <point x="231" y="529"/>
      <point x="281" y="529" type="curve" smooth="yes"/>
      <point x="342" y="529"/>
      <point x="408" y="482"/>
      <point x="408" y="280" type="curve" smooth="yes"/>
      <point x="408" y="46"/>
      <point x="321" y="15"/>
      <point x="247" y="15" type="curve" smooth="yes"/>
      <point x="210" y="15"/>
      <point x="183" y="22"/>
      <point x="156" y="33" type="curve"/>
      <point x="151" y="8" type="line"/>
      <point x="175" y="-3"/>
      <point x="211" y="-11"/>
    </contour>
    <contour>
      <point x="163" y="275" type="curve" smooth="yes"/>
      <point x="234" y="275"/>
      <point x="287" y="309"/>
      <point x="287" y="384" type="curve" smooth="yes"/>
      <point x="287" y="443"/>
      <point x="251" y="470"/>
      <point x="212" y="470" type="curve" smooth="yes"/>
      <point x="194" y="470"/>
      <point x="174" y="467"/>
      <point x="158" y="457" type="curve"/>
      <point x="167" y="438" type="line"/>
      <point x="178" y="443"/>
      <point x="190" y="446"/>
      <point x="207" y="446" type="curve" smooth="yes"/>
      <point x="238" y="446"/>
      <point x="260" y="426"/>
      <point x="260" y="383" type="curve" smooth="yes"/>
      <point x="260" y="321"/>
      <point x="213" y="301"/>
      <point x="162" y="301" type="curve" smooth="yes"/>
      <point x="80" y="301"/>
      <point x="55" y="359"/>
      <point x="55" y="419" type="curve" smooth="yes"/>
      <point x="55" y="465"/>
      <point x="69" y="503"/>
      <point x="91" y="545" type="curve"/>
      <point x="66" y="555" type="line"/>
      <point x="51" y="526"/>
      <point x="28" y="477"/>
      <point x="28" y="419" type="curve" smooth="yes"/>
      <point x="28" y="336"/>
      <point x="72" y="275"/>
    </contour>
  </outline>
</glyph>
<glyph name="uni0DE6" format="2">
  <advance width="258"/>
  <unicode hex="0DE6"/>
  <outline>
    <contour>
      <point x="79" y="0" type="line"/>
      <point x="105" y="0" type="line"/>
      <point x="105" y="497" type="line"/>
      <point x="95" y="542" type="line" smooth="yes"/>
      <point x="89" y="572"/>
      <point x="72" y="596"/>
      <point x="37" y="611" type="curve"/>
      <point x="26" y="586" type="line"/>
      <point x="47" y="577"/>
      <point x="62" y="560"/>
      <point x="69" y="547" type="curve" smooth="yes"/>
      <point x="78" y="531"/>
      <point x="79" y="514"/>
      <point x="79" y="478" type="curve" smooth="yes"/>
    </contour>
    <contour>
      <point x="146" y="444" type="curve" smooth="yes"/>
      <point x="209" y="444"/>
      <point x="237" y="477"/>
      <point x="237" y="529" type="curve" smooth="yes"/>
      <point x="237" y="587"/>
      <point x="200" y="611"/>
      <point x="162" y="611" type="curve" smooth="yes"/>
      <point x="118" y="611"/>
      <point x="94" y="579"/>
      <point x="89" y="552" type="curve"/>
      <point x="105" y="488" type="line"/>
      <point x="105" y="500" type="line" smooth="yes"/>
      <point x="105" y="549"/>
      <point x="117" y="586"/>
      <point x="160" y="586" type="curve" smooth="yes"/>
      <point x="192" y="586"/>
      <point x="211" y="568"/>
      <point x="211" y="528" type="curve" smooth="yes"/>
      <point x="211" y="485"/>
      <point x="184" y="469"/>
      <point x="143" y="469" type="curve" smooth="yes"/>
      <point x="113" y="469"/>
      <point x="101" y="475"/>
      <point x="87" y="481" type="curve"/>
      <point x="80" y="457" type="line"/>
      <point x="97" y="450"/>
      <point x="113" y="444"/>
    </contour>
  </outline>
</glyph>
<glyph name="uni0DE7" format="2">
  <advance width="799"/>
  <unicode hex="0DE7"/>
  <outline>
    <contour>
      <point x="310" y="-11" type="curve" smooth="yes"/>
      <point x="482" y="-11"/>
      <point x="565" y="86"/>
      <point x="565" y="208" type="curve" smooth="yes"/>
      <point x="565" y="330"/>
      <point x="489" y="409"/>
      <point x="363" y="409" type="curve" smooth="yes"/>
      <point x="282" y="409"/>
      <point x="224" y="368"/>
      <point x="224" y="295" type="curve" smooth="yes"/>
      <point x="224" y="229"/>
      <point x="266" y="192"/>
      <point x="317" y="192" type="curve" smooth="yes"/>
      <point x="376" y="192"/>
      <point x="420" y="227"/>
      <point x="420" y="297" type="curve" smooth="yes"/>
      <point x="420" y="340"/>
      <point x="403" y="372"/>
      <point x="389" y="391" type="curve"/>
      <point x="360" y="389" type="line"/>
      <point x="378" y="366"/>
      <point x="393" y="333"/>
      <point x="393" y="297" type="curve" smooth="yes"/>
      <point x="393" y="243"/>
      <point x="365" y="218"/>
      <point x="318" y="218" type="curve" smooth="yes"/>
      <point x="276" y="218"/>
      <point x="251" y="249"/>
      <point x="251" y="296" type="curve" smooth="yes"/>
      <point x="251" y="346"/>
      <point x="290" y="383"/>
      <point x="357" y="383" type="curve" smooth="yes"/>
      <point x="367" y="383"/>
      <point x="378" y="383"/>
      <point x="386" y="383" type="curve"/>
      <point x="476" y="373"/>
      <point x="538" y="316"/>
      <point x="538" y="207" type="curve" smooth="yes"/>
      <point x="538" y="99"/>
      <point x="465" y="15"/>
      <point x="311" y="15" type="curve" smooth="yes"/>
      <point x="153" y="15"/>
      <point x="66" y="125"/>
      <point x="66" y="296" type="curve" smooth="yes"/>
      <point x="66" y="474"/>
      <point x="180" y="586"/>
      <point x="358" y="586" type="curve" smooth="yes"/>
      <point x="618" y="586"/>
      <point x="736" y="357"/>
      <point x="737" y="-1" type="curve"/>
      <point x="765" y="1" type="line"/>
      <point x="761" y="378"/>
      <point x="633" y="612"/>
      <point x="358" y="612" type="curve" smooth="yes"/>
      <point x="162" y="612"/>
      <point x="39" y="486"/>
      <point x="39" y="295" type="curve" smooth="yes"/>
      <point x="39" y="112"/>
      <point x="137" y="-11"/>
    </contour>
  </outline>
</glyph>
<glyph name="uni0DEA" format="2">
  <advance width="743"/>
  <unicode hex="0DEA"/>
  <outline>
    <contour>
      <point x="371" y="-11" type="curve" smooth="yes"/>
      <point x="596" y="-11"/>
      <point x="702" y="92"/>
      <point x="702" y="241" type="curve" smooth="yes"/>
      <point x="702" y="335"/>
      <point x="661" y="396"/>
      <point x="570" y="423" type="curve" smooth="yes"/>
      <point x="535" y="433"/>
      <point x="494" y="438"/>
      <point x="444" y="438" type="curve" smooth="yes"/>
      <point x="409" y="438" type="line"/>
      <point x="415" y="429" type="line"/>
      <point x="415" y="432" type="line" smooth="yes"/>
      <point x="415" y="527"/>
      <point x="465" y="586"/>
      <point x="551" y="586" type="curve" smooth="yes"/>
      <point x="614" y="586"/>
      <point x="641" y="553"/>
      <point x="641" y="509" type="curve" smooth="yes"/>
      <point x="641" y="458"/>
      <point x="610" y="445"/>
      <point x="582" y="445" type="curve" smooth="yes"/>
      <point x="540" y="445"/>
      <point x="510" y="463"/>
      <point x="510" y="533" type="curve" smooth="yes"/>
      <point x="510" y="555"/>
      <point x="513" y="574"/>
      <point x="518" y="593" type="curve"/>
      <point x="519" y="603" type="line"/>
      <point x="545" y="685"/>
      <point x="615" y="743"/>
      <point x="703" y="785" type="curve"/>
      <point x="691" y="810" type="line"/>
      <point x="573" y="749"/>
      <point x="483" y="665"/>
      <point x="483" y="535" type="curve" smooth="yes"/>
      <point x="483" y="530" type="line" smooth="yes"/>
      <point x="483" y="460"/>
      <point x="517" y="420"/>
      <point x="582" y="420" type="curve" smooth="yes"/>
      <point x="647" y="420"/>
      <point x="668" y="462"/>
      <point x="668" y="512" type="curve" smooth="yes"/>
      <point x="668" y="566"/>
      <point x="628" y="612"/>
      <point x="551" y="612" type="curve" smooth="yes"/>
      <point x="537" y="612"/>
      <point x="523" y="610"/>
      <point x="509" y="607" type="curve"/>
      <point x="501" y="605" type="line"/>
      <point x="442" y="589"/>
      <point x="389" y="540"/>
      <point x="389" y="431" type="curve" smooth="yes"/>
      <point x="389" y="412" type="line"/>
      <point x="440" y="412" type="line" smooth="yes"/>
      <point x="534" y="412"/>
      <point x="584" y="398"/>
      <point x="620" y="371" type="curve" smooth="yes"/>
      <point x="658" y="342"/>
      <point x="675" y="299"/>
      <point x="675" y="243" type="curve" smooth="yes"/>
      <point x="675" y="114"/>
      <point x="588" y="15"/>
      <point x="371" y="15" type="curve" smooth="yes"/>
      <point x="155" y="15"/>
      <point x="68" y="112"/>
      <point x="68" y="243" type="curve" smooth="yes"/>
      <point x="68" y="299"/>
      <point x="85" y="342"/>
      <point x="123" y="371" type="curve" smooth="yes"/>
      <point x="159" y="398"/>
      <point x="209" y="412"/>
      <point x="303" y="412" type="curve" smooth="yes"/>
      <point x="354" y="412" type="line"/>
      <point x="354" y="431" type="line" smooth="yes"/>
      <point x="354" y="540"/>
      <point x="292" y="612"/>
      <point x="195" y="612" type="curve" smooth="yes"/>
      <point x="113" y="612"/>
      <point x="76" y="565"/>
      <point x="76" y="516" type="curve" smooth="yes"/>
      <point x="76" y="461"/>
      <point x="112" y="431"/>
      <point x="163" y="431" type="curve" smooth="yes"/>
      <point x="205" y="431"/>
      <point x="236" y="453"/>
      <point x="256" y="486" type="curve"/>
      <point x="234" y="501" type="line"/>
      <point x="217" y="472"/>
      <point x="196" y="457"/>
      <point x="164" y="457" type="curve" smooth="yes"/>
      <point x="132" y="457"/>
      <point x="103" y="473"/>
      <point x="103" y="517" type="curve" smooth="yes"/>
      <point x="103" y="553"/>
      <point x="130" y="586"/>
      <point x="194" y="586" type="curve" smooth="yes"/>
      <point x="274" y="586"/>
      <point x="325" y="532"/>
      <point x="328" y="435" type="curve"/>
      <point x="336" y="438" type="line"/>
      <point x="299" y="438" type="line" smooth="yes"/>
      <point x="119" y="438"/>
      <point x="41" y="371"/>
      <point x="41" y="241" type="curve" smooth="yes"/>
      <point x="41" y="91"/>
      <point x="147" y="-11"/>
    </contour>
  </outline>
</glyph>
<glyph name="uni0DEB" format="2">
  <advance width="529"/>
  <unicode hex="0DEB"/>
  <outline>
    <contour>
      <point x="473" y="-271" type="curve" smooth="yes"/>
      <point x="492" y="-271"/>
      <point x="527" y="-268"/>
      <point x="547" y="-257" type="curve"/>
      <point x="541" y="-233" type="line"/>
      <point x="523" y="-240"/>
      <point x="497" y="-245"/>
      <point x="473" y="-245" type="curve" smooth="yes"/>
      <point x="384" y="-245"/>
      <point x="356" y="-197"/>
      <point x="356" y="-142" type="curve" smooth="yes"/>
      <point x="356" y="-80"/>
      <point x="398" y="-27"/>
      <point x="456" y="13" type="curve"/>
      <point x="437" y="19" type="line"/>
      <point x="420" y="15" type="line"/>
      <point x="370" y="-23"/>
      <point x="329" y="-75"/>
      <point x="329" y="-142" type="curve" smooth="yes"/>
      <point x="329" y="-209"/>
      <point x="368" y="-271"/>
    </contour>
    <contour>
      <point x="317" y="-11" type="curve" smooth="yes"/>
      <point x="394" y="-11"/>
      <point x="453" y="2"/>
      <point x="519" y="38" type="curve"/>
      <point x="507" y="61" type="line"/>
      <point x="442" y="28"/>
      <point x="396" y="15"/>
      <point x="319" y="15" type="curve" smooth="yes"/>
      <point x="157" y="15"/>
      <point x="67" y="87"/>
      <point x="67" y="223" type="curve" smooth="yes"/>
      <point x="67" y="295"/>
      <point x="94" y="343"/>
      <point x="142" y="372" type="curve" smooth="yes"/>
      <point x="190" y="401"/>
      <point x="252" y="412"/>
      <point x="368" y="412" type="curve" smooth="yes"/>
      <point x="497" y="412" type="line"/>
      <point x="497" y="433" type="line" smooth="yes"/>
      <point x="497" y="542"/>
      <point x="432" y="612"/>
      <point x="333" y="612" type="curve" smooth="yes"/>
      <point x="249" y="612"/>
      <point x="212" y="565"/>
      <point x="212" y="518" type="curve" smooth="yes"/>
      <point x="212" y="465"/>
      <point x="246" y="433"/>
      <point x="301" y="433" type="curve" smooth="yes"/>
      <point x="351" y="433"/>
      <point x="378" y="463"/>
      <point x="398" y="498" type="curve"/>
      <point x="374" y="510" type="line"/>
      <point x="359" y="481"/>
      <point x="341" y="457"/>
      <point x="303" y="457" type="curve" smooth="yes"/>
      <point x="269" y="457"/>
      <point x="239" y="473"/>
      <point x="239" y="517" type="curve" smooth="yes"/>
      <point x="239" y="553"/>
      <point x="266" y="586"/>
      <point x="333" y="586" type="curve" smooth="yes"/>
      <point x="413" y="586"/>
      <point x="467" y="534"/>
      <point x="471" y="438" type="curve"/>
      <point x="373" y="438" type="line" smooth="yes"/>
      <point x="237" y="438"/>
      <point x="174" y="425"/>
      <point x="120" y="389" type="curve" smooth="yes"/>
      <point x="70" y="356"/>
      <point x="40" y="302"/>
      <point x="40" y="223" type="curve" smooth="yes"/>
      <point x="40" y="76"/>
      <point x="139" y="-11"/>
    </contour>
  </outline>
</glyph>
<glyph name="uni0DEC" format="2">
  <advance width="831"/>
  <unicode hex="0DEC"/>
  <outline>
    <contour>
      <point x="634" y="-11" type="curve" smooth="yes"/>
      <point x="726" y="-11"/>
      <point x="792" y="49"/>
      <point x="792" y="196" type="curve" smooth="yes"/>
      <point x="792" y="405"/>
      <point x="665" y="555"/>
      <point x="415" y="555" type="curve" smooth="yes"/>
      <point x="162" y="555"/>
      <point x="39" y="390"/>
      <point x="39" y="219" type="curve" smooth="yes"/>
      <point x="39" y="72"/>
      <point x="111" y="-11"/>
      <point x="223" y="-11" type="curve" smooth="yes"/>
      <point x="277" y="-11"/>
      <point x="325" y="9"/>
      <point x="362" y="43" type="curve"/>
      <point x="346" y="63" type="line"/>
      <point x="312" y="31"/>
      <point x="270" y="15"/>
      <point x="224" y="15" type="curve" smooth="yes"/>
      <point x="126" y="15"/>
      <point x="66" y="89"/>
      <point x="66" y="219" type="curve" smooth="yes"/>
      <point x="66" y="376"/>
      <point x="178" y="529"/>
      <point x="414" y="529" type="curve" smooth="yes"/>
      <point x="604" y="529"/>
      <point x="716" y="439"/>
      <point x="752" y="302" type="curve" smooth="yes"/>
      <point x="754" y="294" type="line" smooth="yes"/>
      <point x="761" y="265"/>
      <point x="765" y="230"/>
      <point x="765" y="196" type="curve" smooth="yes"/>
      <point x="765" y="67"/>
      <point x="711" y="15"/>
      <point x="635" y="15" type="curve" smooth="yes"/>
      <point x="570" y="15"/>
      <point x="519" y="63"/>
      <point x="519" y="164" type="curve" smooth="yes"/>
      <point x="519" y="259"/>
      <point x="575" y="314"/>
      <point x="651" y="314" type="curve" smooth="yes"/>
      <point x="690" y="314"/>
      <point x="729" y="303"/>
      <point x="763" y="281" type="curve"/>
      <point x="767" y="306" type="line"/>
      <point x="734" y="327"/>
      <point x="692" y="340"/>
      <point x="651" y="340" type="curve" smooth="yes"/>
      <point x="561" y="340"/>
      <point x="492" y="277"/>
      <point x="492" y="163" type="curve" smooth="yes"/>
      <point x="492" y="45"/>
      <point x="555" y="-11"/>
    </contour>
  </outline>
</glyph>
<glyph name="uni0DED" format="2">
  <advance width="359"/>
  <unicode hex="0DED"/>
  <outline>
    <contour>
      <point x="241" y="-11" type="curve" smooth="yes"/>
      <point x="275" y="-11"/>
      <point x="310" y="-4"/>
      <point x="344" y="8" type="curve"/>
      <point x="336" y="33" type="line"/>
      <point x="303" y="20"/>
      <point x="274" y="15"/>
      <point x="241" y="15" type="curve" smooth="yes"/>
      <point x="152" y="15"/>
      <point x="96" y="77"/>
      <point x="96" y="183" type="curve" smooth="yes"/>
      <point x="96" y="296"/>
      <point x="148" y="396"/>
      <point x="308" y="572" type="curve"/>
      <point x="298" y="601" type="line"/>
      <point x="40" y="601" type="line"/>
      <point x="40" y="575" type="line"/>
      <point x="235" y="575" type="line" smooth="yes"/>
      <point x="261" y="575"/>
      <point x="277" y="576"/>
      <point x="295" y="579" type="curve"/>
      <point x="283" y="580" type="line"/>
      <point x="101" y="387"/>
      <point x="69" y="280"/>
      <point x="69" y="182" type="curve" smooth="yes"/>
      <point x="69" y="64"/>
      <point x="135" y="-11"/>
    </contour>
  </outline>
</glyph>
<glyph name="uni0DEE" format="2">
  <advance width="669"/>
  <unicode hex="0DEE"/>
  <outline>
    <contour>
      <point x="324" y="-11" type="curve" smooth="yes"/>
      <point x="541" y="-11"/>
      <point x="629" y="113"/>
      <point x="629" y="277" type="curve" smooth="yes"/>
      <point x="629" y="462"/>
      <point x="506" y="555"/>
      <point x="361" y="555" type="curve" smooth="yes"/>
      <point x="315" y="555"/>
      <point x="275" y="545"/>
      <point x="239" y="529" type="curve"/>
      <point x="246" y="506" type="line"/>
      <point x="280" y="520"/>
      <point x="321" y="529"/>
      <point x="360" y="529" type="curve" smooth="yes"/>
      <point x="498" y="529"/>
      <point x="602" y="439"/>
      <point x="602" y="276" type="curve" smooth="yes"/>
      <point x="602" y="127"/>
      <point x="522" y="15"/>
      <point x="326" y="15" type="curve" smooth="yes"/>
      <point x="148" y="15"/>
      <point x="68" y="113"/>
      <point x="68" y="275" type="curve" smooth="yes"/>
      <point x="68" y="407"/>
      <point x="155" y="494"/>
      <point x="278" y="540" type="curve"/>
      <point x="281" y="543" type="line"/>
      <point x="403" y="604"/>
      <point x="532" y="689"/>
      <point x="633" y="776" type="curve"/>
      <point x="615" y="797" type="line"/>
      <point x="515" y="712"/>
      <point x="396" y="631"/>
      <point x="284" y="574" type="curve"/>
      <point x="161" y="522"/>
      <point x="41" y="440"/>
      <point x="41" y="275" type="curve" smooth="yes"/>
      <point x="41" y="102"/>
      <point x="129" y="-11"/>
    </contour>
  </outline>
</glyph>
